<svg xmlns="http://www.w3.org/2000/svg" xmlns:xlink="http://www.w3.org/1999/xlink" width="158" zoomAndPan="magnify" viewBox="0 0 118.5 30.000001" height="40" preserveAspectRatio="xMidYMid meet" version="1.0"><defs><g/></defs><g fill="#231f20" fill-opacity="1"><g transform="translate(101.237873, 18.303386)"><g><path d="M 8.636719 -1.585938 L 6.128906 -10.660156 L 3.453125 -10.660156 C 3.570312 -10.273438 3.542969 -10.089844 3.453125 -9.714844 L 1.1875 -1.4375 C 1.054688 -0.945312 0.984375 -0.652344 0.667969 0 L 1.1875 0 C 1.226562 -0.625 1.347656 -0.945312 1.480469 -1.453125 L 2.117188 -3.8125 L 5.636719 -3.8125 L 6.25 -1.585938 C 6.421875 -0.945312 6.515625 -0.667969 6.542969 0 L 9.261719 0 C 8.96875 -0.53125 8.820312 -0.878906 8.636719 -1.585938 Z M 2.199219 -4.089844 L 3.863281 -10.195312 L 5.558594 -4.089844 Z M 2.199219 -4.089844 "/></g></g></g><g fill="#231f20" fill-opacity="1"><g transform="translate(110.006545, 18.303386)"><g><path d="M 0.933594 -10.660156 C 1.039062 -9.648438 1.078125 -9.046875 1.078125 -7.808594 L 1.078125 -2.851562 C 1.078125 -1.613281 1.039062 -1.011719 0.933594 0 L 3.464844 0 C 3.359375 -1.011719 3.316406 -1.613281 3.316406 -2.851562 L 3.316406 -7.808594 C 3.316406 -9.046875 3.359375 -9.648438 3.464844 -10.660156 Z M 0.933594 -10.660156 "/></g></g></g><g fill="#bd9d94" fill-opacity="1"><g transform="translate(17.85263, 18.146716)"><g><path d="M 5.265625 -9.203125 C 5.910156 -9.203125 6.539062 -9.078125 7.15625 -8.828125 C 7.769531 -8.578125 8.300781 -8.234375 8.75 -7.796875 L 7.84375 -6.671875 C 7.507812 -7.023438 7.113281 -7.304688 6.65625 -7.515625 C 6.207031 -7.722656 5.753906 -7.828125 5.296875 -7.828125 C 4.378906 -7.828125 3.601562 -7.515625 2.96875 -6.890625 C 2.332031 -6.265625 2.015625 -5.503906 2.015625 -4.609375 C 2.015625 -3.703125 2.332031 -2.9375 2.96875 -2.3125 C 3.601562 -1.6875 4.378906 -1.375 5.296875 -1.375 C 6.242188 -1.375 7.09375 -1.738281 7.84375 -2.46875 L 8.765625 -1.4375 C 8.285156 -0.976562 7.734375 -0.613281 7.109375 -0.34375 C 6.484375 -0.0703125 5.851562 0.0625 5.21875 0.0625 C 3.863281 0.0625 2.726562 -0.382812 1.8125 -1.28125 C 0.894531 -2.175781 0.4375 -3.28125 0.4375 -4.59375 C 0.4375 -5.894531 0.898438 -6.988281 1.828125 -7.875 C 2.765625 -8.757812 3.910156 -9.203125 5.265625 -9.203125 Z M 5.265625 -9.203125 "/></g></g></g><g fill="#bd9d94" fill-opacity="1"><g transform="translate(27.137879, 18.146716)"><g><path d="M 1.84375 -7.875 C 2.78125 -8.757812 3.929688 -9.203125 5.296875 -9.203125 C 6.671875 -9.203125 7.820312 -8.757812 8.75 -7.875 C 9.6875 -6.988281 10.15625 -5.890625 10.15625 -4.578125 C 10.15625 -3.273438 9.6875 -2.175781 8.75 -1.28125 C 7.820312 -0.382812 6.671875 0.0625 5.296875 0.0625 C 3.929688 0.0625 2.78125 -0.382812 1.84375 -1.28125 C 0.90625 -2.175781 0.4375 -3.273438 0.4375 -4.578125 C 0.4375 -5.890625 0.90625 -6.988281 1.84375 -7.875 Z M 5.3125 -7.8125 C 4.40625 -7.8125 3.628906 -7.5 2.984375 -6.875 C 2.335938 -6.25 2.015625 -5.484375 2.015625 -4.578125 C 2.015625 -3.671875 2.335938 -2.898438 2.984375 -2.265625 C 3.640625 -1.640625 4.414062 -1.328125 5.3125 -1.328125 C 6.21875 -1.328125 6.988281 -1.640625 7.625 -2.265625 C 8.257812 -2.898438 8.578125 -3.671875 8.578125 -4.578125 C 8.578125 -5.484375 8.257812 -6.25 7.625 -6.875 C 6.988281 -7.5 6.21875 -7.8125 5.3125 -7.8125 Z M 5.3125 -7.8125 "/></g></g></g><g fill="#bd9d94" fill-opacity="1"><g transform="translate(37.902992, 18.146716)"><g><path d="M 9.15625 0 L 7.640625 0 L 2.75 -6.578125 L 2.75 0 L 1.203125 0 L 1.203125 -9.171875 L 2.71875 -9.171875 L 7.640625 -2.578125 L 7.640625 -9.171875 L 9.15625 -9.171875 Z M 9.15625 0 "/></g></g></g><g fill="#bd9d94" fill-opacity="1"><g transform="translate(48.432369, 18.146716)"><g><path d="M 4.21875 -9.234375 C 5.40625 -9.234375 6.472656 -8.914062 7.421875 -8.28125 L 6.78125 -6.921875 C 5.84375 -7.492188 4.945312 -7.78125 4.09375 -7.78125 C 3.632812 -7.78125 3.269531 -7.695312 3 -7.53125 C 2.738281 -7.363281 2.609375 -7.125 2.609375 -6.8125 C 2.609375 -6.507812 2.726562 -6.25 2.96875 -6.03125 C 3.21875 -5.820312 3.523438 -5.664062 3.890625 -5.5625 C 4.253906 -5.46875 4.648438 -5.34375 5.078125 -5.1875 C 5.503906 -5.039062 5.898438 -4.878906 6.265625 -4.703125 C 6.640625 -4.535156 6.945312 -4.269531 7.1875 -3.90625 C 7.425781 -3.539062 7.546875 -3.101562 7.546875 -2.59375 C 7.546875 -1.789062 7.222656 -1.148438 6.578125 -0.671875 C 5.941406 -0.191406 5.109375 0.046875 4.078125 0.046875 C 3.378906 0.046875 2.703125 -0.0820312 2.046875 -0.34375 C 1.398438 -0.601562 0.832031 -0.957031 0.34375 -1.40625 L 1.015625 -2.734375 C 1.472656 -2.304688 1.976562 -1.976562 2.53125 -1.75 C 3.082031 -1.519531 3.609375 -1.40625 4.109375 -1.40625 C 4.648438 -1.40625 5.070312 -1.5 5.375 -1.6875 C 5.675781 -1.882812 5.828125 -2.160156 5.828125 -2.515625 C 5.828125 -2.828125 5.703125 -3.085938 5.453125 -3.296875 C 5.210938 -3.515625 4.910156 -3.671875 4.546875 -3.765625 C 4.179688 -3.867188 3.78125 -3.992188 3.34375 -4.140625 C 2.914062 -4.285156 2.519531 -4.4375 2.15625 -4.59375 C 1.789062 -4.757812 1.484375 -5.019531 1.234375 -5.375 C 0.992188 -5.738281 0.875 -6.171875 0.875 -6.671875 C 0.875 -7.453125 1.175781 -8.070312 1.78125 -8.53125 C 2.394531 -9 3.207031 -9.234375 4.21875 -9.234375 Z M 4.21875 -9.234375 "/></g></g></g><g fill="#bd9d94" fill-opacity="1"><g transform="translate(56.735409, 18.146716)"><g><path d="M 7.75 -7.78125 L 2.75 -7.78125 L 2.75 -5.296875 L 7.234375 -5.296875 L 7.234375 -3.921875 L 2.75 -3.921875 L 2.75 -1.390625 L 7.90625 -1.390625 L 7.90625 0 L 1.203125 0 L 1.203125 -9.171875 L 7.75 -9.171875 Z M 7.75 -7.78125 "/></g></g></g><g fill="#bd9d94" fill-opacity="1"><g transform="translate(65.48372, 18.146716)"><g><path d="M 9.15625 0 L 7.640625 0 L 2.75 -6.578125 L 2.75 0 L 1.203125 0 L 1.203125 -9.171875 L 2.71875 -9.171875 L 7.640625 -2.578125 L 7.640625 -9.171875 L 9.15625 -9.171875 Z M 9.15625 0 "/></g></g></g><g fill="#bd9d94" fill-opacity="1"><g transform="translate(76.0131, 18.146716)"><g><path d="M 4.21875 -9.234375 C 5.40625 -9.234375 6.472656 -8.914062 7.421875 -8.28125 L 6.78125 -6.921875 C 5.84375 -7.492188 4.945312 -7.78125 4.09375 -7.78125 C 3.632812 -7.78125 3.269531 -7.695312 3 -7.53125 C 2.738281 -7.363281 2.609375 -7.125 2.609375 -6.8125 C 2.609375 -6.507812 2.726562 -6.25 2.96875 -6.03125 C 3.21875 -5.820312 3.523438 -5.664062 3.890625 -5.5625 C 4.253906 -5.46875 4.648438 -5.34375 5.078125 -5.1875 C 5.503906 -5.039062 5.898438 -4.878906 6.265625 -4.703125 C 6.640625 -4.535156 6.945312 -4.269531 7.1875 -3.90625 C 7.425781 -3.539062 7.546875 -3.101562 7.546875 -2.59375 C 7.546875 -1.789062 7.222656 -1.148438 6.578125 -0.671875 C 5.941406 -0.191406 5.109375 0.046875 4.078125 0.046875 C 3.378906 0.046875 2.703125 -0.0820312 2.046875 -0.34375 C 1.398438 -0.601562 0.832031 -0.957031 0.34375 -1.40625 L 1.015625 -2.734375 C 1.472656 -2.304688 1.976562 -1.976562 2.53125 -1.75 C 3.082031 -1.519531 3.609375 -1.40625 4.109375 -1.40625 C 4.648438 -1.40625 5.070312 -1.5 5.375 -1.6875 C 5.675781 -1.882812 5.828125 -2.160156 5.828125 -2.515625 C 5.828125 -2.828125 5.703125 -3.085938 5.453125 -3.296875 C 5.210938 -3.515625 4.910156 -3.671875 4.546875 -3.765625 C 4.179688 -3.867188 3.78125 -3.992188 3.34375 -4.140625 C 2.914062 -4.285156 2.519531 -4.4375 2.15625 -4.59375 C 1.789062 -4.757812 1.484375 -5.019531 1.234375 -5.375 C 0.992188 -5.738281 0.875 -6.171875 0.875 -6.671875 C 0.875 -7.453125 1.175781 -8.070312 1.78125 -8.53125 C 2.394531 -9 3.207031 -9.234375 4.21875 -9.234375 Z M 4.21875 -9.234375 "/></g></g></g><g fill="#bd9d94" fill-opacity="1"><g transform="translate(84.316142, 18.146716)"><g><path d="M 4.96875 -3.046875 L 4.96875 0 L 3.4375 0 L 3.4375 -3 L 0.015625 -9.171875 L 1.578125 -9.171875 L 4.1875 -4.703125 L 6.75 -9.171875 L 8.328125 -9.171875 Z M 4.96875 -3.046875 "/></g></g></g><g fill="#bd9d94" fill-opacity="1"><g transform="translate(92.815626, 18.146716)"><g><path d="M 4.21875 -9.234375 C 5.40625 -9.234375 6.472656 -8.914062 7.421875 -8.28125 L 6.78125 -6.921875 C 5.84375 -7.492188 4.945312 -7.78125 4.09375 -7.78125 C 3.632812 -7.78125 3.269531 -7.695312 3 -7.53125 C 2.738281 -7.363281 2.609375 -7.125 2.609375 -6.8125 C 2.609375 -6.507812 2.726562 -6.25 2.96875 -6.03125 C 3.21875 -5.820312 3.523438 -5.664062 3.890625 -5.5625 C 4.253906 -5.46875 4.648438 -5.34375 5.078125 -5.1875 C 5.503906 -5.039062 5.898438 -4.878906 6.265625 -4.703125 C 6.640625 -4.535156 6.945312 -4.269531 7.1875 -3.90625 C 7.425781 -3.539062 7.546875 -3.101562 7.546875 -2.59375 C 7.546875 -1.789062 7.222656 -1.148438 6.578125 -0.671875 C 5.941406 -0.191406 5.109375 0.046875 4.078125 0.046875 C 3.378906 0.046875 2.703125 -0.0820312 2.046875 -0.34375 C 1.398438 -0.601562 0.832031 -0.957031 0.34375 -1.40625 L 1.015625 -2.734375 C 1.472656 -2.304688 1.976562 -1.976562 2.53125 -1.75 C 3.082031 -1.519531 3.609375 -1.40625 4.109375 -1.40625 C 4.648438 -1.40625 5.070312 -1.5 5.375 -1.6875 C 5.675781 -1.882812 5.828125 -2.160156 5.828125 -2.515625 C 5.828125 -2.828125 5.703125 -3.085938 5.453125 -3.296875 C 5.210938 -3.515625 4.910156 -3.671875 4.546875 -3.765625 C 4.179688 -3.867188 3.78125 -3.992188 3.34375 -4.140625 C 2.914062 -4.285156 2.519531 -4.4375 2.15625 -4.59375 C 1.789062 -4.757812 1.484375 -5.019531 1.234375 -5.375 C 0.992188 -5.738281 0.875 -6.171875 0.875 -6.671875 C 0.875 -7.453125 1.175781 -8.070312 1.78125 -8.53125 C 2.394531 -9 3.207031 -9.234375 4.21875 -9.234375 Z M 4.21875 -9.234375 "/></g></g></g><path fill="#ffffff" d="M 9.628906 8.699219 L 8.988281 8.9375 L 12.886719 18.867188 L 13.527344 18.625 C 16.316406 17.566406 17.707031 14.488281 16.632812 11.746094 C 15.554688 9.003906 12.421875 7.640625 9.628906 8.699219 " fill-opacity="1" fill-rule="nonzero"/><path fill="#bd9d94" d="M 15.773438 12.074219 C 16.847656 14.8125 15.457031 17.890625 12.667969 18.949219 C 9.875 20.007812 6.738281 18.640625 5.664062 15.898438 C 4.585938 13.160156 5.976562 10.082031 8.769531 9.023438 C 11.558594 7.964844 14.695312 9.332031 15.773438 12.074219 " fill-opacity="1" fill-rule="nonzero"/><path fill="#ffffff" d="M 11.78125 15.808594 C 11.96875 15.695312 12.097656 15.539062 12.167969 15.34375 C 12.238281 15.148438 12.234375 14.953125 12.15625 14.753906 C 12.085938 14.574219 11.972656 14.441406 11.8125 14.351562 C 11.65625 14.265625 11.441406 14.230469 11.171875 14.253906 Z M 9.53125 11.792969 C 9.390625 11.90625 9.300781 12.046875 9.253906 12.207031 C 9.210938 12.371094 9.21875 12.53125 9.277344 12.683594 C 9.335938 12.824219 9.429688 12.941406 9.5625 13.027344 C 9.695312 13.117188 9.867188 13.164062 10.070312 13.171875 Z M 11.171875 15.976562 L 10.515625 14.304688 C 9.929688 14.359375 9.453125 14.28125 9.085938 14.074219 C 8.71875 13.867188 8.453125 13.546875 8.285156 13.117188 C 8.113281 12.679688 8.109375 12.261719 8.273438 11.859375 C 8.4375 11.457031 8.742188 11.148438 9.1875 10.925781 L 9.035156 10.53125 L 9.621094 10.308594 L 9.777344 10.703125 C 10.226562 10.589844 10.625 10.605469 10.972656 10.746094 C 11.320312 10.886719 11.609375 11.144531 11.835938 11.515625 L 10.859375 12.035156 C 10.675781 11.746094 10.429688 11.59375 10.125 11.582031 L 10.734375 13.140625 C 11.453125 13.066406 11.980469 13.125 12.324219 13.308594 C 12.667969 13.496094 12.921875 13.800781 13.09375 14.234375 C 13.28125 14.714844 13.292969 15.175781 13.125 15.613281 C 12.957031 16.058594 12.625 16.414062 12.128906 16.6875 L 12.421875 17.433594 L 11.832031 17.65625 L 11.546875 16.929688 C 11.058594 17.050781 10.609375 17.023438 10.207031 16.847656 C 9.800781 16.671875 9.457031 16.339844 9.167969 15.847656 L 10.183594 15.332031 C 10.3125 15.53125 10.464844 15.683594 10.644531 15.792969 C 10.824219 15.898438 11 15.960938 11.171875 15.976562 " fill-opacity="1" fill-rule="nonzero"/><path fill="#bd9d94" d="M 11.515625 8.628906 C 11.378906 8.613281 11.238281 8.601562 11.097656 8.597656 L 11.609375 8.402344 C 11.757812 8.402344 11.910156 8.410156 12.058594 8.421875 L 12.050781 8.425781 L 11.515625 8.628906 " fill-opacity="1" fill-rule="nonzero"/><path fill="#bd9d94" d="M 12.105469 8.726562 C 11.996094 8.703125 11.886719 8.683594 11.773438 8.664062 L 12.332031 8.453125 C 12.425781 8.464844 12.515625 8.480469 12.609375 8.496094 C 12.601562 8.523438 12.582031 8.546875 12.554688 8.554688 L 12.105469 8.726562 " fill-opacity="1" fill-rule="nonzero"/><path fill="#bd9d94" d="M 10.097656 8.65625 L 10.394531 8.542969 C 10.671875 8.476562 10.949219 8.4375 11.222656 8.417969 L 10.75 8.597656 C 10.53125 8.601562 10.316406 8.621094 10.097656 8.65625 " fill-opacity="1" fill-rule="nonzero"/><path fill="#bd9d94" d="M 12.601562 8.863281 C 12.507812 8.832031 12.414062 8.804688 12.316406 8.777344 L 12.894531 8.558594 C 12.96875 8.578125 13.042969 8.597656 13.113281 8.617188 C 13.109375 8.648438 13.089844 8.675781 13.058594 8.6875 L 12.601562 8.863281 " fill-opacity="1" fill-rule="nonzero"/><path fill="#bd9d94" d="M 13.027344 9.019531 C 12.945312 8.988281 12.863281 8.953125 12.78125 8.925781 L 13.375 8.699219 C 13.453125 8.726562 13.527344 8.753906 13.605469 8.785156 C 13.59375 8.800781 13.582031 8.8125 13.5625 8.816406 L 13.027344 9.019531 " fill-opacity="1" fill-rule="nonzero"/><path fill="#bd9d94" d="M 13.410156 9.199219 C 13.339844 9.160156 13.265625 9.125 13.191406 9.089844 L 13.792969 8.863281 C 13.867188 8.894531 13.941406 8.929688 14.015625 8.96875 L 13.410156 9.199219 " fill-opacity="1" fill-rule="nonzero"/><path fill="#bd9d94" d="M 13.753906 9.386719 C 13.691406 9.347656 13.625 9.3125 13.558594 9.273438 L 14.164062 9.042969 C 14.230469 9.082031 14.296875 9.117188 14.363281 9.15625 L 13.753906 9.386719 " fill-opacity="1" fill-rule="nonzero"/><path fill="#bd9d94" d="M 14.066406 9.59375 C 14.007812 9.550781 13.945312 9.511719 13.886719 9.472656 L 14.5 9.238281 C 14.5625 9.277344 14.621094 9.316406 14.683594 9.359375 L 14.066406 9.59375 " fill-opacity="1" fill-rule="nonzero"/><path fill="#bd9d94" d="M 14.347656 9.808594 C 14.296875 9.761719 14.242188 9.722656 14.1875 9.679688 L 14.804688 9.445312 C 14.859375 9.488281 14.914062 9.53125 14.96875 9.574219 L 14.347656 9.808594 " fill-opacity="1" fill-rule="nonzero"/><path fill="#bd9d94" d="M 14.609375 10.03125 C 14.5625 9.984375 14.511719 9.941406 14.460938 9.898438 L 15.082031 9.664062 C 15.132812 9.707031 15.183594 9.75 15.230469 9.792969 L 14.609375 10.03125 " fill-opacity="1" fill-rule="nonzero"/><path fill="#bd9d94" d="M 14.847656 10.261719 C 14.800781 10.214844 14.757812 10.167969 14.710938 10.125 L 15.332031 9.890625 C 15.378906 9.933594 15.425781 9.980469 15.472656 10.027344 L 14.847656 10.261719 " fill-opacity="1" fill-rule="nonzero"/><path fill="#bd9d94" d="M 16.316406 14.214844 C 16.320312 14.152344 16.324219 14.089844 16.324219 14.023438 L 16.949219 13.789062 C 16.945312 13.851562 16.941406 13.917969 16.9375 13.980469 L 16.316406 14.214844 " fill-opacity="1" fill-rule="nonzero"/><path fill="#bd9d94" d="M 16.285156 14.550781 C 16.292969 14.484375 16.300781 14.417969 16.308594 14.351562 L 16.929688 14.117188 C 16.921875 14.183594 16.917969 14.25 16.90625 14.316406 L 16.285156 14.550781 " fill-opacity="1" fill-rule="nonzero"/><path fill="#bd9d94" d="M 16.234375 14.890625 C 16.246094 14.824219 16.257812 14.757812 16.265625 14.6875 L 16.886719 14.453125 C 16.875 14.523438 16.863281 14.589844 16.851562 14.65625 L 16.234375 14.890625 " fill-opacity="1" fill-rule="nonzero"/><path fill="#bd9d94" d="M 16.152344 15.242188 C 16.171875 15.175781 16.1875 15.105469 16.203125 15.035156 L 16.820312 14.800781 C 16.804688 14.871094 16.785156 14.941406 16.765625 15.011719 L 16.152344 15.242188 " fill-opacity="1" fill-rule="nonzero"/><path fill="#bd9d94" d="M 16.042969 15.605469 C 16.066406 15.535156 16.089844 15.460938 16.113281 15.390625 L 16.722656 15.160156 C 16.699219 15.234375 16.675781 15.304688 16.652344 15.375 L 16.042969 15.605469 " fill-opacity="1" fill-rule="nonzero"/><path fill="#bd9d94" d="M 16.171875 12.664062 C 16.15625 12.605469 16.144531 12.546875 16.128906 12.492188 L 16.757812 12.253906 C 16.773438 12.308594 16.785156 12.367188 16.800781 12.425781 L 16.171875 12.664062 " fill-opacity="1" fill-rule="nonzero"/><path fill="#bd9d94" d="M 16.238281 12.960938 C 16.226562 12.902344 16.214844 12.84375 16.203125 12.785156 L 16.832031 12.546875 C 16.84375 12.605469 16.855469 12.664062 16.867188 12.722656 L 16.238281 12.960938 " fill-opacity="1" fill-rule="nonzero"/><path fill="#bd9d94" d="M 16.089844 12.371094 C 16.074219 12.316406 16.054688 12.257812 16.035156 12.203125 L 16.667969 11.964844 C 16.683594 12.019531 16.703125 12.078125 16.71875 12.132812 L 16.089844 12.371094 " fill-opacity="1" fill-rule="nonzero"/><path fill="#bd9d94" d="M 15.992188 12.085938 C 15.984375 12.058594 15.972656 12.027344 15.960938 12 C 15.953125 11.972656 15.941406 11.949219 15.929688 11.921875 L 16.558594 11.683594 C 16.570312 11.710938 16.582031 11.734375 16.59375 11.761719 C 16.605469 11.789062 16.613281 11.820312 16.625 11.847656 L 15.992188 12.085938 " fill-opacity="1" fill-rule="nonzero"/><path fill="#bd9d94" d="M 15.882812 11.808594 C 15.859375 11.753906 15.832031 11.699219 15.808594 11.648438 L 16.4375 11.410156 C 16.460938 11.460938 16.488281 11.515625 16.511719 11.570312 L 15.882812 11.808594 " fill-opacity="1" fill-rule="nonzero"/><path fill="#bd9d94" d="M 15.753906 11.535156 C 15.726562 11.480469 15.699219 11.429688 15.667969 11.378906 L 16.296875 11.140625 C 16.328125 11.191406 16.355469 11.242188 16.382812 11.296875 L 15.753906 11.535156 " fill-opacity="1" fill-rule="nonzero"/><path fill="#bd9d94" d="M 15.609375 11.269531 C 15.578125 11.214844 15.546875 11.164062 15.515625 11.113281 L 16.140625 10.875 C 16.175781 10.925781 16.207031 10.976562 16.238281 11.03125 L 15.609375 11.269531 " fill-opacity="1" fill-rule="nonzero"/><path fill="#bd9d94" d="M 15.445312 11.007812 C 15.414062 10.957031 15.378906 10.90625 15.34375 10.859375 L 15.96875 10.621094 C 16.003906 10.667969 16.039062 10.71875 16.074219 10.769531 L 15.445312 11.007812 " fill-opacity="1" fill-rule="nonzero"/><path fill="#bd9d94" d="M 15.265625 10.753906 C 15.230469 10.707031 15.191406 10.65625 15.152344 10.609375 L 15.78125 10.371094 C 15.820312 10.417969 15.855469 10.46875 15.894531 10.515625 L 15.265625 10.753906 " fill-opacity="1" fill-rule="nonzero"/><path fill="#bd9d94" d="M 15.070312 10.507812 C 15.027344 10.460938 14.988281 10.410156 14.945312 10.367188 L 15.570312 10.128906 C 15.609375 10.175781 15.652344 10.222656 15.695312 10.269531 L 15.070312 10.507812 " fill-opacity="1" fill-rule="nonzero"/><path fill="#bd9d94" d="M 16.285156 13.261719 C 16.277344 13.203125 16.269531 13.144531 16.257812 13.085938 L 16.886719 12.847656 C 16.894531 12.90625 16.90625 12.964844 16.914062 13.027344 L 16.285156 13.261719 " fill-opacity="1" fill-rule="nonzero"/><path fill="#bd9d94" d="M 16.316406 13.574219 C 16.3125 13.511719 16.304688 13.453125 16.300781 13.390625 L 16.925781 13.152344 C 16.933594 13.214844 16.9375 13.277344 16.941406 13.335938 L 16.316406 13.574219 " fill-opacity="1" fill-rule="nonzero"/><path fill="#bd9d94" d="M 16.324219 13.890625 C 16.324219 13.828125 16.324219 13.765625 16.320312 13.703125 L 16.945312 13.46875 C 16.949219 13.53125 16.949219 13.59375 16.949219 13.65625 L 16.324219 13.890625 " fill-opacity="1" fill-rule="nonzero"/><path fill="#bd9d94" d="M 15.898438 15.984375 C 15.929688 15.910156 15.960938 15.835938 15.988281 15.761719 L 16.59375 15.53125 C 16.5625 15.605469 16.53125 15.679688 16.5 15.753906 L 15.898438 15.984375 " fill-opacity="1" fill-rule="nonzero"/><path fill="#bd9d94" d="M 15.707031 16.375 C 15.75 16.300781 15.789062 16.222656 15.824219 16.144531 L 16.359375 15.941406 C 16.371094 15.9375 16.378906 15.933594 16.386719 15.933594 C 16.394531 15.933594 16.40625 15.9375 16.414062 15.9375 C 16.378906 16.011719 16.339844 16.082031 16.300781 16.152344 L 15.707031 16.375 " fill-opacity="1" fill-rule="nonzero"/><path fill="#bd9d94" d="M 15.464844 16.789062 C 15.515625 16.710938 15.570312 16.628906 15.617188 16.542969 L 16.078125 16.371094 C 16.085938 16.367188 16.097656 16.363281 16.105469 16.363281 C 16.128906 16.363281 16.148438 16.371094 16.164062 16.382812 C 16.125 16.449219 16.085938 16.507812 16.042969 16.570312 L 15.464844 16.789062 " fill-opacity="1" fill-rule="nonzero"/><path fill="#bd9d94" d="M 15.140625 17.234375 C 15.210938 17.148438 15.277344 17.058594 15.34375 16.96875 L 15.792969 16.800781 C 15.800781 16.796875 15.8125 16.792969 15.824219 16.792969 C 15.839844 16.792969 15.855469 16.800781 15.871094 16.808594 C 15.816406 16.882812 15.757812 16.953125 15.699219 17.023438 L 15.140625 17.234375 " fill-opacity="1" fill-rule="nonzero"/><path fill="#bd9d94" d="M 14.683594 17.730469 C 14.785156 17.632812 14.878906 17.535156 14.972656 17.429688 L 15.507812 17.226562 L 15.515625 17.226562 C 15.414062 17.332031 15.304688 17.4375 15.195312 17.535156 L 14.683594 17.730469 " fill-opacity="1" fill-rule="nonzero"/><path fill="#bd9d94" d="M 13.902344 18.347656 C 14.085938 18.226562 14.261719 18.097656 14.425781 17.957031 L 14.902344 17.78125 C 14.683594 17.945312 14.449219 18.097656 14.203125 18.234375 L 13.902344 18.347656 " fill-opacity="1" fill-rule="nonzero"/></svg>