<svg width="208" height="34" viewBox="0 0 208 34" fill="none" xmlns="http://www.w3.org/2000/svg">
<g clip-path="url(#clip0_8651_367906)">
<path d="M40.1083 25.7025C39.6246 25.7025 39.2826 25.6023 39.0824 25.4023C38.8989 25.2021 38.8072 24.8851 38.8072 24.4514V9.96449C38.8072 9.53062 38.9072 9.21367 39.1074 9.01363C39.3076 8.7967 39.6411 8.68823 40.1083 8.68823H46.2384C48.5736 8.68823 50.2917 9.18039 51.3927 10.1645C52.4936 11.1487 53.0441 12.6165 53.0441 14.5681C53.0441 16.5031 52.4936 17.9627 51.3927 18.9468C50.3084 19.9144 48.5903 20.3981 46.2384 20.3981H43.8614V24.4514C43.8614 24.8851 43.7614 25.2021 43.5612 25.4023C43.3609 25.6023 43.019 25.7025 42.5353 25.7025H40.1083ZM45.8381 16.77C46.522 16.77 47.0475 16.5865 47.4144 16.2196C47.798 15.8526 47.9899 15.3022 47.9899 14.5683C47.9899 13.8176 47.798 13.2587 47.4144 12.8917C47.0475 12.5248 46.522 12.3413 45.8381 12.3413H43.8614V16.77H45.8381ZM58.953 26.0777C57.3851 26.0777 56.1257 25.5773 55.1749 24.5766C54.2408 23.559 53.7738 22.1329 53.7738 20.2979C53.7738 18.8968 54.0907 17.6707 54.7245 16.6198C55.3751 15.569 56.2842 14.76 57.4518 14.1928C58.6362 13.6091 59.9956 13.3172 61.5302 13.3172C62.798 13.3172 63.9156 13.4589 64.883 13.7426C65.8672 14.0094 66.7678 14.4013 67.5852 14.9185V24.9268C67.5852 25.2438 67.5269 25.4523 67.41 25.5523C67.2933 25.6525 67.0598 25.7025 66.7096 25.7025H64.1574C63.9739 25.7025 63.8321 25.6775 63.7321 25.6273C63.6319 25.5608 63.5486 25.4606 63.4819 25.3271L63.1565 24.5766C62.6728 25.0936 62.0891 25.469 61.4051 25.7025C60.738 25.9527 59.9206 26.0777 58.953 26.0777ZM60.8297 22.6749C61.4802 22.6749 61.9889 22.5164 62.3558 22.1996C62.7228 21.8827 62.9063 21.4323 62.9063 20.8484V16.9452C62.5895 16.795 62.1891 16.72 61.7054 16.72C60.8213 16.72 60.1123 17.0285 59.5786 17.6457C59.0615 18.2629 58.803 19.1303 58.803 20.2479C58.803 21.866 59.4784 22.6749 60.8297 22.6749ZM71.0673 25.7025C70.5834 25.7025 70.2415 25.6023 70.0414 25.4023C69.8412 25.2021 69.7412 24.8851 69.7412 24.4514V14.4681C69.7412 14.1678 69.7912 13.9676 69.8913 13.8676C70.008 13.7507 70.2415 13.6924 70.5919 13.6924H73.1691C73.3691 13.6924 73.5193 13.7259 73.6193 13.7926C73.7361 13.8426 73.8028 13.9426 73.8195 14.0928L73.9446 14.8435C74.4117 14.3763 75.0206 14.0094 75.7711 13.7426C76.5385 13.4589 77.3892 13.3172 78.3233 13.3172C79.6744 13.3172 80.767 13.7009 81.601 14.4681C82.4351 15.2187 82.852 16.3363 82.852 17.8209V24.4514C82.852 24.8851 82.752 25.2021 82.5518 25.4023C82.3683 25.6023 82.0347 25.7025 81.5509 25.7025H79.124C78.6402 25.7025 78.29 25.6023 78.0731 25.4023C77.8729 25.2021 77.7729 24.8851 77.7729 24.4514V18.1461C77.7729 17.6457 77.6644 17.2872 77.4476 17.0703C77.2307 16.8535 76.8887 16.745 76.4217 16.745C75.9213 16.745 75.5209 16.8785 75.2207 17.1453C74.9372 17.4122 74.7954 17.7792 74.7954 18.2463V24.4514C74.7954 24.8851 74.6952 25.2021 74.4952 25.4023C74.3117 25.6023 73.978 25.7025 73.4943 25.7025H71.0673ZM91.6962 26.0777C89.3609 26.0777 87.5594 25.5356 86.2916 24.4514C85.0239 23.3673 84.39 21.7909 84.39 19.7225C84.39 18.4548 84.682 17.3372 85.2657 16.3698C85.8496 15.4022 86.692 14.6515 87.7929 14.1178C88.9105 13.5841 90.2283 13.3172 91.7462 13.3172C92.8971 13.3172 93.8647 13.4256 94.6486 13.6424C95.4493 13.8593 96.1582 14.1928 96.7754 14.6433C96.9589 14.7602 97.0506 14.9102 97.0506 15.0937C97.0506 15.2272 96.9839 15.4022 96.8504 15.6191L95.8245 17.3955C95.7078 17.6291 95.566 17.7459 95.3993 17.7459C95.2991 17.7459 95.1406 17.6792 94.9238 17.5457C94.4734 17.2622 94.0482 17.0537 93.6477 16.9202C93.2641 16.7868 92.7803 16.72 92.1966 16.72C91.3625 16.72 90.687 16.987 90.1699 17.5207C89.6694 18.0544 89.4192 18.7883 89.4192 19.7225C89.4192 20.6733 89.6777 21.4072 90.1949 21.9242C90.712 22.4247 91.421 22.6749 92.3216 22.6749C92.8554 22.6749 93.3392 22.5999 93.7729 22.4497C94.2066 22.2997 94.6486 22.0912 95.099 21.8242C95.3325 21.6908 95.4993 21.624 95.5995 21.624C95.7495 21.624 95.883 21.7408 95.9997 21.9744L97.1256 23.901C97.2091 24.0677 97.2508 24.2012 97.2508 24.3012C97.2508 24.4514 97.1506 24.5932 96.9506 24.7266C96.2499 25.1771 95.4826 25.5106 94.6486 25.7275C93.8312 25.961 92.8471 26.0777 91.6962 26.0777ZM103.595 26.0777C102.027 26.0777 100.767 25.5773 99.8166 24.5766C98.8825 23.559 98.4153 22.1329 98.4153 20.2979C98.4153 18.8968 98.7323 17.6707 99.3662 16.6198C100.017 15.569 100.926 14.76 102.093 14.1928C103.278 13.6091 104.637 13.3172 106.172 13.3172C107.44 13.3172 108.557 13.4589 109.525 13.7426C110.509 14.0094 111.41 14.4013 112.227 14.9185V24.9268C112.227 25.2438 112.169 25.4523 112.052 25.5523C111.935 25.6525 111.702 25.7025 111.351 25.7025H108.799C108.616 25.7025 108.474 25.6775 108.374 25.6273C108.274 25.5608 108.19 25.4606 108.123 25.3271L107.798 24.5766C107.315 25.0936 106.731 25.469 106.047 25.7025C105.38 25.9527 104.562 26.0777 103.595 26.0777ZM105.471 22.6749C106.122 22.6749 106.631 22.5164 106.998 22.1996C107.365 21.8827 107.548 21.4323 107.548 20.8484V16.9452C107.231 16.795 106.831 16.72 106.347 16.72C105.463 16.72 104.754 17.0285 104.22 17.6457C103.703 18.2629 103.445 19.1303 103.445 20.2479C103.445 21.866 104.12 22.6749 105.471 22.6749ZM127.944 24.7516C128.061 24.8851 128.119 25.0353 128.119 25.2021C128.119 25.3521 128.069 25.4773 127.969 25.5773C127.869 25.6608 127.736 25.7025 127.569 25.7025H123.691C123.457 25.7025 123.282 25.6858 123.165 25.6525C123.065 25.6023 122.957 25.5106 122.84 25.3773L119.437 20.7483V24.4514C119.437 24.8851 119.337 25.2021 119.137 25.4023C118.937 25.6023 118.595 25.7025 118.111 25.7025H115.684C115.2 25.7025 114.858 25.6023 114.658 25.4023C114.475 25.2021 114.383 24.8851 114.383 24.4514V9.96449C114.383 9.53062 114.483 9.21367 114.683 9.01363C114.883 8.7967 115.217 8.68823 115.684 8.68823H118.111C118.595 8.68823 118.937 8.7967 119.137 9.01363C119.337 9.21367 119.437 9.53062 119.437 9.96432V18.3464L122.74 14.0428C122.84 13.9093 122.948 13.8176 123.065 13.7676C123.182 13.7174 123.357 13.6924 123.59 13.6924H127.469C127.636 13.6924 127.761 13.7426 127.844 13.8426C127.944 13.9261 127.994 14.0428 127.994 14.1928C127.994 14.3598 127.936 14.5098 127.819 14.6433L123.54 19.5474L127.944 24.7516ZM136.068 26.0777C134.667 26.0777 133.416 25.8443 132.315 25.3773C131.231 24.9101 130.372 24.2095 129.738 23.2755C129.104 22.3414 128.787 21.1988 128.787 19.8477C128.787 17.7292 129.388 16.1111 130.589 14.9935C131.79 13.8759 133.516 13.3172 135.768 13.3172C137.97 13.3172 139.638 13.8676 140.772 14.9685C141.923 16.0528 142.499 17.5624 142.499 19.4973C142.499 20.3314 142.132 20.7483 141.398 20.7483H133.541C133.541 21.4655 133.808 22.0161 134.342 22.3997C134.892 22.7834 135.718 22.9751 136.819 22.9751C137.503 22.9751 138.07 22.9168 138.521 22.8001C138.988 22.6666 139.455 22.4749 139.922 22.2246C140.122 22.1412 140.255 22.0994 140.322 22.0994C140.472 22.0994 140.597 22.1996 140.697 22.3997L141.548 24.001C141.631 24.1679 141.673 24.2929 141.673 24.3764C141.673 24.5264 141.573 24.6684 141.373 24.8017C140.689 25.2521 139.913 25.5773 139.046 25.7775C138.179 25.9777 137.186 26.0777 136.068 26.0777ZM137.995 18.2713C137.995 17.6374 137.812 17.1453 137.445 16.795C137.078 16.4448 136.527 16.2696 135.793 16.2696C135.059 16.2696 134.501 16.4531 134.117 16.82C133.733 17.1704 133.541 17.6542 133.541 18.2713H137.995ZM151.075 26.0777C149.673 26.0777 148.347 25.936 147.096 25.6525C145.845 25.3521 144.836 24.9351 144.069 24.4014C143.785 24.2179 143.644 24.026 143.644 23.826C143.644 23.6925 143.694 23.5507 143.794 23.4005L145.02 21.449C145.153 21.2488 145.286 21.1487 145.42 21.1487C145.503 21.1487 145.645 21.207 145.845 21.3238C146.463 21.6742 147.163 21.9577 147.947 22.1745C148.731 22.3914 149.507 22.4999 150.274 22.4999C151.058 22.4999 151.633 22.3831 152 22.1495C152.384 21.916 152.576 21.5407 152.576 21.0236C152.576 20.5231 152.367 20.1312 151.95 19.8477C151.55 19.564 150.791 19.2055 149.673 18.7718C147.989 18.1379 146.671 17.4289 145.72 16.6448C144.786 15.8443 144.319 14.76 144.319 13.3922C144.319 11.7408 144.911 10.4815 146.096 9.61408C147.28 8.74652 148.856 8.31299 150.825 8.31299C152.192 8.31299 153.36 8.43802 154.327 8.68823C155.312 8.92189 156.145 9.28885 156.829 9.78912C157.113 10.0061 157.255 10.2063 157.255 10.3897C157.255 10.5065 157.205 10.6398 157.105 10.79L155.879 12.7417C155.729 12.9418 155.595 13.0419 155.478 13.0419C155.395 13.0419 155.253 12.9835 155.053 12.8667C154.085 12.2328 152.935 11.916 151.6 11.916C150.883 11.916 150.332 12.0328 149.949 12.2663C149.565 12.4998 149.373 12.8835 149.373 13.4172C149.373 13.7842 149.473 14.0845 149.673 14.318C149.874 14.5515 150.141 14.76 150.474 14.9435C150.825 15.1103 151.358 15.3272 152.075 15.5941L152.551 15.7692C153.785 16.253 154.753 16.72 155.453 17.1704C156.171 17.604 156.713 18.1461 157.08 18.7968C157.447 19.4305 157.63 20.2312 157.63 21.1988C157.63 22.6833 157.071 23.8677 155.954 24.7516C154.853 25.6358 153.227 26.0777 151.075 26.0777ZM162.946 25.7025C162.696 25.7025 162.505 25.6608 162.371 25.5773C162.237 25.494 162.137 25.3271 162.07 25.0769L158.843 14.2679C158.81 14.1678 158.793 14.0928 158.793 14.0428C158.793 13.8093 158.96 13.6924 159.293 13.6924H162.596C162.813 13.6924 162.971 13.7341 163.071 13.8174C163.172 13.8843 163.239 14.0009 163.271 14.1678L164.622 19.8477L166.324 15.2687C166.408 15.0687 166.491 14.9352 166.574 14.8685C166.674 14.785 166.842 14.7435 167.075 14.7435H168.65C168.884 14.7435 169.043 14.785 169.126 14.8685C169.227 14.9351 169.318 15.0687 169.402 15.2687L171.078 19.8477L172.455 14.1678C172.504 14.0011 172.57 13.8843 172.655 13.8176C172.737 13.7341 172.888 13.6926 173.104 13.6926H176.433C176.766 13.6926 176.933 13.8093 176.933 14.0428C176.933 14.0928 176.917 14.1678 176.883 14.2679L173.63 25.0769C173.564 25.3271 173.463 25.494 173.33 25.5773C173.213 25.6608 173.03 25.7025 172.78 25.7025H170.328C170.094 25.7025 169.919 25.6608 169.802 25.5773C169.685 25.4773 169.586 25.3105 169.501 25.0769L167.85 20.5481L166.199 25.0769C166.132 25.3105 166.031 25.4773 165.898 25.5773C165.781 25.6608 165.608 25.7025 165.374 25.7025H162.946ZM183.275 26.0777C181.707 26.0777 180.449 25.5773 179.497 24.5766C178.563 23.559 178.096 22.1329 178.096 20.2979C178.096 18.8968 178.412 17.6707 179.047 16.6198C179.697 15.569 180.606 14.76 181.773 14.1928C182.959 13.6091 184.318 13.3172 185.852 13.3172C187.12 13.3172 188.238 13.4589 189.205 13.7426C190.189 14.0094 191.09 14.4013 191.907 14.9185V24.9268C191.907 25.2438 191.849 25.4523 191.732 25.5523C191.615 25.6525 191.383 25.7025 191.032 25.7025H188.48C188.296 25.7025 188.155 25.6775 188.054 25.6273C187.953 25.5608 187.871 25.4606 187.804 25.3271L187.479 24.5766C186.995 25.0936 186.411 25.469 185.727 25.7025C185.06 25.9527 184.243 26.0777 183.275 26.0777ZM185.152 22.6749C185.802 22.6749 186.312 22.5164 186.679 22.1996C187.046 21.8827 187.229 21.4323 187.229 20.8484V16.9452C186.911 16.795 186.512 16.72 186.028 16.72C185.143 16.72 184.435 17.0285 183.901 17.6457C183.384 18.2629 183.124 19.1303 183.124 20.2479C183.124 21.866 183.802 22.6749 185.152 22.6749ZM195.364 30.7567C194.88 30.7567 194.539 30.6567 194.338 30.4565C194.154 30.2563 194.064 29.9393 194.064 29.5056V15.1687C194.814 14.635 195.757 14.1928 196.89 13.8426C198.025 13.4924 199.209 13.3172 200.443 13.3172C205.482 13.3172 208 15.4524 208 19.7225C208 21.6575 207.466 23.2003 206.399 24.3514C205.331 25.5023 203.822 26.0777 201.87 26.0777C201.32 26.0777 200.786 26.011 200.268 25.8775C199.768 25.7442 199.35 25.5608 199.018 25.3271V29.5056C199.018 29.9393 198.917 30.2563 198.717 30.4565C198.517 30.6567 198.175 30.7567 197.691 30.7567H195.364ZM200.794 22.6999C201.512 22.6999 202.046 22.4331 202.395 21.8992C202.762 21.3488 202.945 20.6149 202.945 19.6975C202.945 18.6133 202.729 17.8542 202.296 17.4205C201.879 16.9702 201.227 16.745 200.344 16.745C199.776 16.745 199.326 16.82 198.993 16.9702V20.9485C198.993 21.5157 199.151 21.9494 199.467 22.2496C199.786 22.5499 200.227 22.6999 200.794 22.6999Z" fill="#05091A"/>
<path fill-rule="evenodd" clip-rule="evenodd" d="M15.8405 33.0922C11.1005 33.0886 7.2821 31.9512 4.61431 29.9082C1.91453 27.8407 0.482239 24.9066 0.482239 21.5866C0.482239 18.3877 1.91129 16.081 3.52836 14.5217C4.79568 13.2999 6.19404 12.5174 7.16779 12.0671C6.94761 11.3913 6.67288 10.5067 6.42704 9.5929C6.09824 8.37023 5.7756 6.9355 5.7756 5.8843C5.7756 4.64003 6.04677 3.39025 6.77826 2.41926C7.55115 1.39338 8.71472 0.84375 10.1144 0.84375C11.2083 0.84375 12.1371 1.24952 12.864 1.94951C13.559 2.61849 14.0217 3.50716 14.3411 4.4335C14.9023 6.06112 15.1208 8.10605 15.182 10.1469H16.5228C16.5841 8.10605 16.8025 6.06112 17.3639 4.4335C17.6832 3.50716 18.1457 2.61865 18.8408 1.94951C19.5679 1.24968 20.4965 0.84375 21.5904 0.84375C22.9902 0.84375 24.1536 1.39338 24.9265 2.41926C25.658 3.39025 25.9294 4.64003 25.9294 5.8843C25.9294 6.9355 25.6066 8.37023 25.2778 9.5929C25.0319 10.5067 24.7572 11.3913 24.537 12.0671C25.5108 12.5174 26.9093 13.2999 28.1764 14.5219C29.7935 16.081 31.2226 18.3877 31.2226 21.5866C31.2226 24.9066 29.7904 27.8407 27.0905 29.9082C24.4227 31.9512 20.6043 33.0886 15.8643 33.0922H15.8405Z" fill="#633001"/>
<path d="M10.1142 2.02734C8.06429 2.02734 7.12057 3.57249 7.12057 5.70915C7.12057 7.40758 8.21708 10.809 8.66685 12.1331C8.76817 12.4311 8.60905 12.7573 8.31905 12.8727C6.676 13.5273 1.82721 15.9236 1.82721 21.4116C1.82721 27.1926 6.75475 31.5515 15.8416 31.5585L15.8524 31.5583L15.8632 31.5585C24.95 31.5515 29.8775 27.1926 29.8775 21.4116C29.8775 15.9236 25.0287 13.5273 23.3857 12.8727C23.0957 12.7574 22.9367 12.4311 23.0378 12.1331C23.4878 10.8091 24.5843 7.40758 24.5843 5.70915C24.5843 3.57232 23.6406 2.02734 21.5905 2.02734C18.6395 2.02734 17.9038 6.25018 17.8513 10.7825C17.8479 11.085 17.6057 11.3305 17.3062 11.3305H14.3986C14.099 11.3305 13.8569 11.085 13.8534 10.7825C13.8009 6.25018 13.0654 2.02734 10.1142 2.02734Z" fill="#D1884F"/>
<path d="M15.8632 29.7063C9.18677 29.7063 1.83874 26.096 1.82721 21.4224V21.4441C1.82721 27.2298 6.76254 31.591 15.8632 31.591C24.9639 31.591 29.8993 27.2298 29.8993 21.4441V21.4224C29.8877 26.096 22.5397 29.7063 15.8632 29.7063Z" fill="#FEDC90"/>
<path d="M12.1536 19.9871C12.1536 21.5651 11.4155 22.3868 10.5049 22.3868C9.59429 22.3868 8.85614 21.5651 8.85614 19.9871C8.85614 18.4092 9.59429 17.5874 10.5049 17.5874C11.4155 17.5874 12.1536 18.4092 12.1536 19.9871ZM22.8704 19.9871C22.8704 21.5651 22.1323 22.3868 21.2217 22.3868C20.3111 22.3868 19.5729 21.5651 19.5729 19.9871C19.5729 18.4092 20.3111 17.5874 21.2217 17.5874C22.1323 17.5874 22.8704 18.4092 22.8704 19.9871Z" fill="#633001"/>
</g>
<defs>
<clipPath id="clip0_8651_367906">
<rect width="208" height="32.3123" fill="white" transform="translate(0 0.84375)"/>
</clipPath>
</defs>
</svg>
