<svg width="208" height="36" viewBox="0 0 208 36" fill="none" xmlns="http://www.w3.org/2000/svg">
<path fill-rule="evenodd" clip-rule="evenodd" d="M30.5682 21.4814C29.9459 21.8747 29.2131 21.9235 28.6561 21.6093C27.9486 21.2098 27.5596 20.2743 27.5596 18.9732V15.0804C27.5596 13.2005 26.8163 11.8629 25.5736 11.5017C23.4674 10.8882 21.8835 13.4651 21.2882 14.4329L17.5738 20.4553V13.0943C17.5321 11.4008 16.982 10.3877 15.9377 10.0823C15.2467 9.88035 14.2128 9.96129 13.2084 11.4982L4.88669 24.8607C3.77261 22.7457 3.19184 20.3907 3.19485 18.0002C3.19485 9.95084 9.64546 3.40276 17.5738 3.40276C25.5022 3.40276 31.9519 9.95084 31.9519 18.0002C31.9519 18.0141 31.9554 18.0263 31.9563 18.0393C31.9563 18.0533 31.9537 18.0655 31.9545 18.0794C32.0294 19.6381 31.5246 20.8774 30.5682 21.4814ZM35.1468 18.0011V17.9601L35.1459 17.9201C35.1015 8.11714 27.2367 0.15918 17.573 0.15918C7.88398 0.15918 0 8.16239 0 18.0002C0 27.8371 7.88398 35.8412 17.5738 35.8412C22.0202 35.8412 26.2637 34.1511 29.5212 31.0833C30.1687 30.4741 30.207 29.448 29.6065 28.7918C29.4652 28.636 29.2941 28.5099 29.1035 28.4209C28.9128 28.332 28.7063 28.282 28.496 28.2739C28.2858 28.2658 28.076 28.2998 27.8791 28.3737C27.6821 28.4477 27.5019 28.5603 27.349 28.7048C24.7086 31.2051 21.2102 32.5983 17.5738 32.5976C13.3285 32.5976 9.50882 30.7186 6.87444 27.7388L14.379 15.6887V21.2438C14.379 23.9121 15.4138 24.7745 16.2814 25.0269C17.15 25.2793 18.4772 25.107 19.8705 22.8442L23.9983 16.1526C24.1306 15.9367 24.2525 15.7505 24.3638 15.5895V18.9732C24.3638 21.4674 25.3629 23.4621 27.1044 24.4447C28.6744 25.3307 30.6482 25.2506 32.2565 24.2358C34.206 23.0044 35.2564 20.7355 35.1468 18.0011ZM59.6133 11.9055C60.0354 12.1623 60.4009 12.7332 60.4009 13.2475C60.4009 14.0752 59.6977 14.7601 58.9101 14.7601C58.7134 14.7601 58.5168 14.7035 58.3479 14.6461C57.4193 13.9612 56.2383 13.5042 55.0008 13.5042C52.0766 13.5042 50.0514 15.9019 50.0514 18.8705C50.0514 21.8399 52.0766 24.2089 55.0008 24.2089C56.4629 24.2089 57.757 23.6092 58.7413 22.6963C58.9956 22.5135 59.3002 22.4138 59.6133 22.4108C60.4009 22.4108 61.0197 23.0383 61.0197 23.8381C61.0197 24.3516 60.7099 24.8085 60.3165 25.0652C58.9101 26.2645 56.9981 27.0634 55.0295 27.0634C50.5301 27.0634 46.8731 23.3525 46.8731 18.7852C46.8731 14.2179 50.5292 10.507 55.0295 10.507C56.717 10.507 58.3192 11.0204 59.6133 11.9055ZM67.8411 15.3597C70.9062 15.3597 73.4936 17.9575 73.4936 21.1541C73.4936 24.3516 70.9062 27.0634 67.8411 27.0634C64.6349 27.0634 61.9631 24.3516 61.9631 21.1541C61.9631 17.9575 64.6349 15.3597 67.8411 15.3597ZM67.8124 24.2089C69.163 24.2089 70.3153 22.9243 70.3153 21.1828C70.3153 19.4423 69.163 18.357 67.8124 18.357C66.3503 18.357 65.1406 19.4135 65.1406 21.1828C65.1406 22.9243 66.3503 24.2089 67.8124 24.2089ZM75.4213 25.2932V17.1299C75.4213 16.2448 76.1245 15.5024 76.9966 15.5024C77.8686 15.5024 78.5996 16.2448 78.5996 17.1299V25.2932C78.5996 26.1783 77.8686 26.9207 76.9966 26.9207C76.1245 26.9207 75.4213 26.1783 75.4213 25.2932ZM75.1689 12.4199C75.1689 11.3633 75.9835 10.507 76.9966 10.507C78.0366 10.507 78.8807 11.3633 78.8807 12.4199C78.8807 13.4468 78.0366 14.2753 76.9966 14.2753C75.9835 14.2753 75.1689 13.4468 75.1689 12.4199ZM84.6899 20.8687V25.2932C84.6899 26.1783 83.9589 26.9207 83.086 26.9207C82.2148 26.9207 81.5108 26.1783 81.5108 25.2932V16.7583C81.5108 16.0734 82.0738 15.5024 82.7492 15.5024C83.4237 15.5024 83.9589 16.0734 83.9589 16.7583C85.2522 15.5599 86.3766 15.3597 87.4453 15.3597C90.6236 15.3597 92.03 17.7574 92.03 20.4692V25.2932C92.03 26.1783 91.299 26.9207 90.4269 26.9207C89.5549 26.9207 88.8517 26.1783 88.8517 25.2932V20.8687C88.8517 19.4701 88.6828 18.2996 86.6864 18.2996C85.28 18.2996 84.6899 19.4701 84.6899 20.8687ZM102.366 22.5536C102.001 22.5536 101.749 22.3821 101.551 22.1532L97.8383 18.129V25.2932C97.8383 26.1783 97.1073 26.9207 96.2353 26.9207C95.3632 26.9207 94.66 26.1783 94.66 25.2932V11.1075C94.7055 10.988 94.7867 10.8854 94.8926 10.8137C94.9985 10.7421 95.124 10.7049 95.2518 10.7071C95.5321 10.7071 95.7566 10.936 95.9263 11.1075L101.832 17.7582C102.001 17.9584 102.225 18.0724 102.339 18.0724C102.451 18.0724 102.675 17.9584 102.844 17.7591L108.751 11.1075C108.92 10.936 109.144 10.7071 109.425 10.7071C109.707 10.7071 109.932 10.8786 110.016 11.1075V25.2932C110.016 26.1783 109.313 26.9207 108.441 26.9207C107.569 26.9207 106.838 26.1783 106.838 25.2932V18.129L103.126 22.1532C102.929 22.3821 102.675 22.5536 102.366 22.5536ZM117.653 24.2089C119.087 24.2089 120.296 22.9243 120.296 21.1828C120.296 19.4423 119.06 18.2996 117.653 18.2996C116.247 18.2996 115.121 19.4701 115.121 21.1828C115.121 22.8669 116.247 24.2089 117.653 24.2089ZM121.028 25.6649L120.971 25.2932C120.353 26.5203 118.383 27.0634 117.118 27.0634C114.136 27.0634 111.943 24.3516 111.943 21.1541C111.943 17.9575 114.193 15.3597 117.287 15.3597C117.821 15.3597 119.593 15.5024 120.971 17.1299L121.027 16.7583C121.027 16.0734 121.562 15.5024 122.237 15.5024C122.911 15.5024 123.474 16.0734 123.474 16.7583V25.6649C123.474 26.3498 122.911 26.9207 122.236 26.9207C121.562 26.9207 121.026 26.3498 121.026 25.6649H121.028ZM132.292 18.2996H131.956C129.958 18.4144 129.565 19.5563 129.565 20.8687V25.2932C129.565 26.1783 128.834 26.9207 127.962 26.9207C127.09 26.9207 126.387 26.1783 126.387 25.2932V16.7583C126.387 16.0734 126.949 15.5024 127.624 15.5024C128.299 15.5024 128.834 16.0734 128.834 16.7583C130.015 15.6452 130.971 15.4172 131.956 15.3597H132.265C133.024 15.3597 133.727 16.0159 133.727 16.8444C133.727 17.6146 133.052 18.2996 132.292 18.2996ZM144.542 24.5517C144.683 24.7798 144.767 25.0365 144.767 25.322C144.767 26.1496 144.007 26.9207 143.192 26.9207C142.63 26.9207 142.151 26.4925 141.786 26.0356L138.13 21.7825V25.2932C138.13 26.1783 137.398 26.9207 136.526 26.9207C135.654 26.9207 134.951 26.1783 134.951 25.2932V12.3346C134.951 11.4486 135.654 10.7071 136.526 10.7071C137.398 10.7071 138.129 11.4486 138.129 12.3346V20.4126L141.786 16.3588C142.151 15.9306 142.601 15.5024 143.164 15.5024C143.952 15.5024 144.683 16.2448 144.683 17.0725C144.683 17.3292 144.626 17.5859 144.485 17.8148L141.589 20.9827L144.542 24.5517ZM150.773 18.357C149.901 18.357 148.495 18.8139 148.495 20.155H153.078C153.078 18.7852 151.616 18.357 150.772 18.357H150.773ZM154.935 22.1819H148.495C148.495 24.0948 150.322 24.3803 151.138 24.3803C151.729 24.3803 152.573 24.2663 153.219 23.98C153.416 23.8381 153.754 23.7232 154.035 23.7232C154.738 23.7232 155.328 24.3237 155.328 25.0374C155.328 25.5221 155.019 25.9503 154.626 26.1783C153.642 26.892 152.375 27.0634 151.166 27.0634C147.96 27.0634 145.288 25.3228 145.288 21.2969C145.288 18.129 146.919 15.3597 150.716 15.3597C153.782 15.3597 156.116 17.3579 156.172 20.9261C156.172 21.611 155.61 22.1819 154.935 22.1819ZM163.781 27.0634H162.909C160.49 27.0634 159.084 26.0069 159.084 22.2107V18.2996H158.269C157.509 18.2996 156.835 17.6146 156.835 16.8444C156.835 16.0159 157.509 15.3597 158.269 15.3597H159.084V12.3337C159.084 11.4486 159.788 10.7063 160.66 10.7063C161.531 10.7063 162.263 11.4486 162.263 12.3337V15.3597H163.584C164.344 15.3597 165.019 16.0159 165.019 16.8444C165.019 17.6146 164.344 18.2996 163.584 18.2996H162.263V21.5823C162.263 23.7519 162.375 24.2089 163.331 24.2089H163.781C164.54 24.2089 165.187 24.8372 165.187 25.6361C165.187 26.4072 164.54 27.0634 163.781 27.0634ZM179.18 11.9055C179.601 12.1623 179.968 12.7332 179.968 13.2475C179.968 14.0752 179.265 14.7601 178.477 14.7601C178.28 14.7601 178.083 14.7035 177.915 14.6461C176.986 13.9612 175.805 13.5042 174.568 13.5042C171.644 13.5042 169.617 15.9019 169.617 18.8705C169.617 21.8399 171.643 24.2089 174.568 24.2089C176.03 24.2089 177.324 23.6092 178.308 22.6963C178.563 22.5135 178.867 22.4138 179.18 22.4108C179.968 22.4108 180.586 23.0383 180.586 23.8381C180.586 24.3516 180.277 24.8085 179.883 25.0652C178.477 26.2645 176.564 27.0634 174.596 27.0634C170.096 27.0634 166.44 23.3525 166.44 18.7852C166.44 14.2179 170.095 10.507 174.596 10.507C176.284 10.507 177.886 11.0204 179.18 11.9055ZM187.239 24.2089C188.673 24.2089 189.882 22.9243 189.882 21.1828C189.882 19.4423 188.645 18.2996 187.238 18.2996C185.833 18.2996 184.707 19.4701 184.707 21.1828C184.707 22.8669 185.833 24.2089 187.238 24.2089H187.239ZM190.613 25.6649L190.558 25.2932C189.939 26.5203 187.97 27.0634 186.704 27.0634C183.723 27.0634 181.529 24.3516 181.529 21.1541C181.529 17.9575 183.78 15.3597 186.873 15.3597C187.407 15.3597 189.179 15.5024 190.558 17.1299L190.613 16.7583C190.613 16.0734 191.148 15.5024 191.823 15.5024C192.497 15.5024 193.061 16.0734 193.061 16.7583V25.6649C193.061 26.3498 192.497 26.9207 191.823 26.9207C191.148 26.9207 190.613 26.3498 190.613 25.6649ZM201.794 24.2089C203.2 24.2089 204.325 22.8669 204.325 21.1828C204.325 19.4701 203.2 18.2996 201.794 18.2996C200.388 18.2996 199.15 19.4414 199.15 21.1828C199.15 22.9243 200.36 24.2089 201.794 24.2089ZM199.15 26.1218V30.1747C199.15 31.0598 198.419 31.8022 197.547 31.8022C196.676 31.8022 195.972 31.0598 195.972 30.1747V16.7583C195.972 16.0734 196.535 15.5024 197.21 15.5024C197.885 15.5024 198.42 16.0734 198.42 16.8723C199.6 15.6452 201.063 15.3597 202.159 15.3597C205.253 15.3597 207.503 17.9575 207.503 21.1541C207.503 24.3516 205.31 27.0634 202.328 27.0634C201.401 27.0634 200.022 26.778 199.15 26.1218Z" fill="#17181B"/>
</svg>
