<svg width="148" height="40" viewBox="0 0 148 40" fill="none" xmlns="http://www.w3.org/2000/svg">
<g clip-path="url(#clip0_8651_367881)">
<path d="M41.4128 4.82715H48.1953C49.9192 4.82715 51.1834 5.28685 51.9879 6.09134C52.7924 6.7809 53.1371 7.70031 53.1371 8.61972C53.1371 8.9645 53.1371 9.42421 53.0222 9.76899C52.7924 10.3436 52.4476 10.9183 51.9879 11.378C51.758 11.6078 51.5282 11.7227 51.2983 11.8377C52.1028 12.0675 52.7924 12.5272 53.367 13.1019C53.8267 13.6765 54.0566 14.3661 54.0566 15.4004C54.0566 15.975 53.9416 16.6646 53.7118 17.1243C53.4819 17.584 53.0222 18.0437 52.5625 18.3885C51.9879 18.7333 51.4132 18.9631 50.8386 19.193C50.1491 19.4228 49.3446 19.4228 48.5401 19.4228H41.5277V4.82715H41.4128ZM47.6207 10.8033C48.1953 10.8033 48.7699 10.6884 49.3446 10.4585C49.8043 10.2287 50.0341 9.76899 50.0341 9.30928C50.0341 8.84958 49.8043 8.38987 49.4595 8.16002C48.9998 7.81524 48.4252 7.70031 47.8505 7.81524H44.6326V10.9183H47.6207V10.8033ZM48.4252 16.6646C48.9998 16.6646 49.5744 16.5497 50.1491 16.3198C50.6088 16.09 50.8386 15.6302 50.7237 15.0556C50.7237 14.5959 50.4938 14.1362 50.1491 13.9063C49.8043 13.6765 49.1147 13.4466 48.3102 13.4466H44.5177V16.6646H48.4252Z" fill="#F3BA2F"/>
<path d="M58.0808 4.82715H61.2988V19.5415H58.0808V4.82715Z" fill="#F3BA2F"/>
<path d="M66.2406 4.82715H69.2305L76.1261 13.9082V4.82715H79.3441V19.5415H76.5858L69.3455 10.2305V19.5415H66.2406V4.82715Z" fill="#F3BA2F"/>
<path d="M89.1147 4.71191H92.1028L98.4256 19.5393H95.0928L93.7136 16.2064H87.5057L86.1266 19.5393H82.7938L89.1166 4.71191H89.1147ZM92.5625 13.4482L90.6088 8.62127L88.655 13.4482H92.5625Z" fill="#F3BA2F"/>
<path d="M101.873 4.82715H104.863L111.759 13.9082V4.82715H114.977V19.5415H112.219L105.093 10.2305V19.5415H101.873V4.82715Z" fill="#F3BA2F"/>
<path d="M126.701 19.7709C125.667 19.7709 124.633 19.541 123.713 19.1963C121.874 18.3918 120.495 17.0127 119.691 15.1738C119.346 14.2544 119.116 13.2201 119.116 12.1857C119.116 10.232 119.921 8.27824 121.3 6.78419C121.989 6.09463 122.794 5.52 123.713 5.17522C124.747 4.71551 125.782 4.60059 126.816 4.60059C127.391 4.60059 128.08 4.60059 128.655 4.71551C129.23 4.83044 129.689 4.94537 130.149 5.17522C130.609 5.40507 131.068 5.63492 131.413 5.86478C131.758 6.09463 132.218 6.43941 132.562 6.78419L130.609 9.19765C130.034 8.73794 129.459 8.27824 128.885 7.93346C128.31 7.58868 127.621 7.47375 126.931 7.47375C126.356 7.47375 125.782 7.58868 125.207 7.81853C124.633 8.04838 124.173 8.39316 123.828 8.85287C123.483 9.31257 123.139 9.77228 122.909 10.3469C122.679 10.9215 122.564 11.4962 122.564 12.0708C122.564 12.6454 122.679 13.335 122.909 13.9096C123.139 14.4843 123.368 14.944 123.828 15.4037C124.633 16.3231 125.782 16.7828 126.931 16.7828C127.621 16.7828 128.425 16.6679 129.115 16.3231C129.689 15.9783 130.379 15.5186 130.839 15.0589L132.907 17.1276C132.563 17.4724 132.103 17.9321 131.758 18.2768C131.298 18.6216 130.839 18.8515 130.379 19.0813C129.919 19.3112 129.345 19.541 128.77 19.656C127.965 19.7709 127.276 19.7709 126.701 19.7709Z" fill="#F3BA2F"/>
<path d="M136.587 4.82715H147.622V7.70217H139.69V10.6903H146.702V13.5634H139.69V16.6664H147.737V19.5415H136.587V4.82715Z" fill="#F3BA2F"/>
<path d="M45.552 34.0239C44.7475 34.0239 43.943 33.909 43.2534 33.5642C42.5639 33.3344 41.8743 32.8747 41.1848 32.3L42.334 31.0358C42.7937 31.4955 43.2534 31.7254 43.8281 32.0702C44.4027 32.3 44.9773 32.415 45.552 32.415C46.0117 32.415 46.4714 32.3 46.9311 32.0702C47.2759 31.8403 47.3908 31.4955 47.3908 31.1508C47.3908 31.0358 47.3908 30.806 47.2759 30.6911C47.1609 30.5761 47.046 30.3463 46.9311 30.2313L46.2415 29.8866C45.8967 29.7716 45.437 29.6567 45.0923 29.5418C44.6326 29.4269 44.0579 29.3119 43.5982 29.0821C43.2534 28.9672 42.7937 28.7373 42.5639 28.5075C42.334 28.2776 42.1042 28.0477 41.8743 27.703C41.6445 27.2433 41.6445 26.7836 41.6445 26.4388C41.6445 25.9791 41.7594 25.6343 41.8743 25.1746C41.9892 24.8298 42.334 24.485 42.5639 24.2552C42.9087 24.0253 43.2534 23.7955 43.7131 23.6805C44.1728 23.5656 44.6326 23.4507 45.0923 23.4507C45.7818 23.4507 46.4714 23.5656 47.1609 23.7955C47.7356 24.0253 48.3102 24.3701 48.8848 24.7149L47.9654 26.094C47.5057 25.7492 47.046 25.5194 46.5863 25.2895C46.1266 25.0597 45.6669 25.0597 45.2072 25.0597C44.7475 25.0597 44.2878 25.1746 43.943 25.4044C43.7131 25.6343 43.4833 25.9791 43.4833 26.3238C43.4833 26.5537 43.4833 26.6686 43.5982 26.8985C43.7131 27.0134 43.8281 27.2433 43.943 27.3582C44.1728 27.4731 44.4027 27.588 44.7475 27.703C45.0923 27.8179 45.437 27.9328 46.0117 28.0477C46.4714 28.1627 46.9311 28.2776 47.5057 28.5075C47.8505 28.6224 48.1953 28.8522 48.5401 29.0821C48.7699 29.3119 48.9998 29.6567 49.1147 29.8866C49.2296 30.2313 49.3445 30.5761 49.3445 31.0358C49.3445 31.4955 49.2296 31.9552 49.1147 32.3C48.8848 32.6448 48.655 32.9896 48.3102 33.3344C47.9654 33.5642 47.6206 33.7941 47.1609 33.909C46.5863 33.909 46.0117 34.0239 45.552 34.0239Z" fill="#F3BA2F"/>
<path d="M51.2983 23.5635H53.252L56.3569 28.3904L59.5748 23.5635H61.5286V33.9087H59.6898V26.4366L56.4718 31.2654H56.3569L53.1371 26.4366V33.9087H51.2983V23.5635Z" fill="#F3BA2F"/>
<path d="M67.7365 23.4487H69.4604L73.9426 33.794H71.9888L70.9545 31.2656H66.1276L65.0932 33.794H63.2544L67.7365 23.4487ZM70.3798 29.7715L68.541 25.6342L66.8171 29.7715H70.3798Z" fill="#F3BA2F"/>
<path d="M75.7814 23.5639H80.3784C80.9531 23.5639 81.5277 23.6788 82.1023 23.7937C82.562 23.9086 83.0217 24.2534 83.3665 24.5982C83.5964 24.8281 83.8262 25.1728 84.0561 25.6325C84.171 25.9773 84.2859 26.437 84.2859 26.8967C84.2859 27.2415 84.171 27.7012 84.0561 28.046C83.9412 28.3908 83.7113 28.6206 83.5964 28.9654C83.3665 29.1953 83.1367 29.4251 82.7919 29.655C82.4471 29.8848 82.1023 29.9998 81.7576 30.1147L84.5158 34.0222H82.3322L79.8038 30.4595H77.5053V34.0222H75.6664L75.7814 23.562V23.5639ZM80.2635 28.6206C80.8381 28.6206 81.4128 28.5057 81.7576 28.1609C82.1023 27.8161 82.3322 27.3564 82.3322 26.8967C82.3322 26.437 82.1023 25.9773 81.7576 25.6325C81.2978 25.2878 80.7232 25.1728 80.1486 25.1728H77.5053V28.6206H80.2635Z" fill="#F3BA2F"/>
<path d="M88.9997 25.1724H85.6669V23.5635H94.0584V25.1724H90.7236V33.9087H88.8848L88.9997 25.1724Z" fill="#F3BA2F"/>
<path d="M105.208 34.0236C104.519 34.0236 103.829 33.9087 103.139 33.5639C101.875 32.9893 100.841 32.0699 100.381 30.8057C100.151 30.1161 99.9215 29.4266 100.036 28.737C100.036 28.0474 100.151 27.3579 100.381 26.6683C100.841 25.4041 101.875 24.3698 103.139 23.7952C103.829 23.5653 104.519 23.3354 105.323 23.3354C105.783 23.3354 106.242 23.3354 106.587 23.4504C106.932 23.5653 107.277 23.6802 107.622 23.7952C107.966 23.9101 108.196 24.1399 108.541 24.2549C108.771 24.4847 109.116 24.7146 109.345 24.9444L108.196 26.3235C107.851 25.9788 107.392 25.634 106.932 25.4041C106.472 25.1743 105.898 25.0593 105.323 25.0593C104.863 25.0593 104.404 25.1743 103.944 25.2892C103.484 25.5191 103.139 25.7489 102.795 26.0937C102.45 26.4385 102.22 26.7832 102.105 27.243C101.99 27.7027 101.875 28.1624 101.875 28.6221C101.875 29.0818 101.99 29.5415 102.105 30.0012C102.22 30.4609 102.45 30.8057 102.795 31.1505C103.139 31.4952 103.484 31.7251 103.944 31.9549C104.404 32.1848 104.863 32.2997 105.323 32.1848C105.898 32.1848 106.472 32.0699 106.932 31.84C107.392 31.6102 107.851 31.2654 108.311 30.8057L109.46 31.9549C109.231 32.1848 108.886 32.5296 108.656 32.7594C108.311 32.9893 108.081 33.2191 107.737 33.3341C107.392 33.449 107.047 33.6788 106.587 33.6788C106.128 34.0236 105.668 34.0236 105.208 34.0236Z" fill="#F3BA2F"/>
<path d="M111.299 23.5635H113.023V27.8158H117.967V23.5635H119.806V33.9087H117.967V29.5397H113.023V33.9087H111.299V23.5635Z" fill="#F3BA2F"/>
<path d="M126.127 23.4487H127.851L132.333 33.794H130.379L129.345 31.2656H124.518L123.483 33.794H121.644L126.127 23.4487ZM128.655 29.7715L126.931 25.6342L125.207 29.7715H128.655Z" fill="#F3BA2F"/>
<path d="M134.173 23.5635H136.012V33.9087H134.173V23.5635Z" fill="#F3BA2F"/>
<path d="M138.77 23.5635H140.379L145.898 30.6908V23.5635H147.737V33.9087H146.242L140.609 26.5516V33.9087H138.77V23.5635Z" fill="#F3BA2F"/>
<path d="M21.1838 33.2193V37.7015L17.2763 40L13.4838 37.7015V33.2193L17.2763 35.5179L21.1838 33.2193ZM0.263489 17.7005L4.05607 19.9991V27.701L10.6087 31.6085V36.0906L0.263489 29.9995V17.7005ZM34.2873 17.7005V29.9995L23.8271 36.0906V31.6085L30.3798 27.701V19.9991L34.2873 17.7005ZM23.8271 11.6094L27.7346 13.908V18.3901L21.182 22.2976V30.1145L17.3894 32.413L13.5968 30.1145V22.2976L6.8143 18.3901V13.908L10.7218 11.6094L17.2745 15.5169L23.8271 11.6094ZM6.81616 21.6099L10.6087 23.9084V28.3906L6.81616 26.092V21.6099ZM27.7365 21.6099V26.092L23.9439 28.3906V23.9084L27.7365 21.6099ZM4.05607 7.70193L7.96357 10.0005L4.05607 12.299V16.7811L0.263489 14.4826V10.0005L4.05607 7.70193ZM30.4929 7.70193L34.4004 10.0005V14.4826L30.4929 16.7811V12.299L26.7003 10.0005L30.4929 7.70193ZM17.2745 7.70193L21.182 10.0005L17.2745 12.299L13.4819 10.0005L17.2745 7.70193ZM17.2745 0L27.7346 6.09111L23.9421 8.38964L17.3894 4.48214L10.7218 8.38964L6.92923 6.09111L17.2745 0Z" fill="#F3BA2F"/>
</g>
<defs>
<clipPath id="clip0_8651_367881">
<rect width="147.473" height="40" fill="white" transform="translate(0.263489)"/>
</clipPath>
</defs>
</svg>
