<svg width="162" height="40" viewBox="0 0 162 40" fill="none" xmlns="http://www.w3.org/2000/svg">
<g clip-path="url(#clip0_8651_368194)">
<path fill-rule="evenodd" clip-rule="evenodd" d="M1.54315 0.784528C5.53978 5.68415 9.92798 11.8396 10.6377 12.8352C10.6756 12.8882 10.703 12.9267 10.7193 12.9494C11.0976 13.4777 11.41 13.8703 11.6472 14.1685C12.1738 14.8305 12.33 15.027 12.0158 15.2074C11.7624 15.3529 11.5009 15.4009 11.2401 15.4009C10.945 15.4009 10.6125 15.2573 10.3705 15.0254C10.1994 14.8615 9.02859 13.144 7.43436 10.6454C6.21456 8.7336 5.19373 7.14765 5.16588 7.1211C5.1015 7.05968 5.1026 7.06177 7.31 11.0512C8.69605 13.5562 9.64416 15.4074 9.64416 15.5259C9.64416 15.7668 9.57908 15.8934 9.28486 16.2249C8.7944 16.7777 8.57513 17.3987 8.41686 18.6838C8.23943 20.1245 7.7405 21.1423 6.3578 22.884C5.54841 23.9037 5.41598 24.0905 5.21175 24.5015C4.95451 25.019 4.88376 25.3088 4.85509 25.9623C4.8248 26.6533 4.88381 27.0997 5.0928 27.7602C5.27576 28.3385 5.46673 28.7205 5.95495 29.4843C6.37628 30.1433 6.61888 30.6332 6.61888 30.8248C6.61888 30.9773 6.6477 30.9775 7.30058 30.8287C8.86301 30.4722 10.1317 29.8455 10.8452 29.0773C11.2868 28.6018 11.3905 28.3393 11.3939 27.6878C11.3961 27.2617 11.3812 27.1725 11.2672 26.9273C11.0815 26.5282 10.7436 26.1965 9.9987 25.6822C9.02268 25.0082 8.60581 24.4657 8.49066 23.7195C8.39621 23.1073 8.5058 22.6753 9.04573 21.5323C9.60458 20.3492 9.74308 19.845 9.83676 18.6523C9.89726 17.8818 9.98106 17.578 10.2002 17.3342C10.4288 17.0798 10.6346 16.9937 11.2002 16.9155C12.1225 16.7883 12.7097 16.5473 13.1924 16.098C13.6111 15.7083 13.7864 15.3327 13.8133 14.7674L13.8337 14.3388L13.5997 14.0633C12.7523 13.0653 0.975644 0 0.923495 0C0.912354 0 1.19121 0.353062 1.54315 0.784528ZM7.09458 26.7442C7.28618 26.4013 7.18438 25.9608 6.86388 25.7455C6.56106 25.5422 6.09066 25.638 6.09066 25.903C6.09066 25.9838 6.13493 26.0427 6.23473 26.0947C6.40275 26.182 6.41495 26.2802 6.28274 26.4808C6.14886 26.6842 6.15966 26.8628 6.31323 26.9842C6.56073 27.18 6.91108 27.0723 7.09458 26.7442ZM12.8615 8.05408C12.4834 7.99485 12.4675 7.9879 12.6454 7.96028C12.9864 7.90732 13.7914 7.9795 14.3462 8.11275C15.6413 8.4237 16.8199 9.2203 18.0778 10.6351L18.412 11.0109L18.8902 10.9333C20.9043 10.6063 22.9533 10.8662 24.6672 11.6658C25.1387 11.8859 25.882 12.3238 25.9748 12.4363C26.0043 12.4722 26.0588 12.7031 26.0955 12.9494C26.2228 13.8017 26.1592 14.4551 25.901 14.943C25.7607 15.2085 25.7528 15.2927 25.8472 15.5199C25.9225 15.7013 26.1327 15.8355 26.3408 15.8352C26.7667 15.8346 27.225 15.1392 27.4375 14.1716L27.5218 13.7873L27.689 13.9785C28.6057 15.0276 29.3258 16.4584 29.4495 17.4768L29.4817 17.7423L29.3277 17.501C29.0623 17.0857 28.796 16.8028 28.4547 16.5748C27.8397 16.1637 27.1892 16.0238 25.4668 15.9321C23.9112 15.8493 23.0308 15.7151 22.1578 15.4275C20.6723 14.9384 19.9237 14.2869 18.1592 11.9487C17.3755 10.9101 16.8911 10.3355 16.4093 9.87273C15.3144 8.82128 14.2386 8.26985 12.8615 8.05408ZM26.3257 10.3729C26.3648 9.67702 26.4583 9.21798 26.6462 8.79878C26.7205 8.63285 26.7902 8.49703 26.8008 8.49703C26.8117 8.49703 26.7793 8.61952 26.729 8.76918C26.5925 9.17603 26.57 9.73248 26.6642 10.3799C26.7835 11.2014 26.8515 11.3199 27.711 12.2072C28.1142 12.6235 28.5832 13.1484 28.7532 13.3738L29.0623 13.7835L28.7532 13.4907C28.3752 13.1326 27.5058 12.4341 27.3138 12.3343C27.185 12.2673 27.1658 12.2685 27.0865 12.3483C27.0133 12.4219 26.9978 12.5324 26.9877 13.0551C26.9718 13.8697 26.862 14.3926 26.5967 14.9154C26.4532 15.1982 26.4305 15.1378 26.5603 14.8186C26.6573 14.5803 26.6672 14.4756 26.6665 13.687C26.665 12.1025 26.4787 11.7216 25.3865 11.0691C25.11 10.9038 24.654 10.6654 24.3735 10.5393C24.0932 10.4132 23.8703 10.3033 23.8783 10.2951C23.9093 10.264 24.9745 10.578 25.4032 10.7446C26.0408 10.9924 26.146 11.0245 26.2235 10.9946C26.2753 10.9745 26.3005 10.8218 26.3257 10.3729ZM12.4563 9.15653C12.3535 10.3798 12.8284 12.0162 13.5959 13.0835C14.1908 13.9109 15.1131 14.5538 15.794 14.6159C16.2398 14.6565 16.3738 14.5155 16.1721 14.2181C15.8921 13.805 15.5477 13.169 15.4566 12.8967C15.4 12.7275 15.2769 12.2278 15.1831 11.7863C14.863 10.2788 14.5483 9.6917 13.8214 9.2458C13.5565 9.08328 12.9909 8.87062 12.6628 8.81018L12.4881 8.77797L12.4563 9.15653ZM25.3948 21.0268C21.808 19.5682 20.5447 18.302 20.5447 16.1656C20.5447 15.8512 20.5555 15.594 20.5685 15.594C20.5817 15.594 20.7203 15.6977 20.8768 15.8246C21.6042 16.4138 22.4187 16.6655 24.6735 16.9977C26.0002 17.1933 26.7468 17.3512 27.4357 17.582C29.6248 18.3153 30.9793 19.8035 31.3023 21.8307C31.3962 22.4197 31.3412 23.5242 31.189 24.1063C31.0688 24.5662 30.7022 25.3948 30.605 25.4267C30.578 25.4355 30.5515 25.3312 30.5447 25.1892C30.5078 24.428 30.127 23.687 29.4875 23.1318C28.7603 22.5007 27.7833 21.9983 25.3948 21.0268ZM22.7035 20.8663C22.7538 21.0178 22.8318 21.3627 22.8767 21.6328C23.164 23.3598 22.2665 24.7552 20.5207 25.2958C20.3358 25.353 19.6078 25.497 18.9028 25.6155C17.4757 25.8555 16.8388 26.0255 16.1989 26.3368C15.7451 26.5577 15.1957 26.8883 15.2284 26.9212C15.2389 26.9318 15.3425 26.9068 15.4585 26.8657C16.2654 26.5795 17.1634 26.4313 18.5278 26.3597C19.0693 26.3313 19.6852 26.286 19.8965 26.2592C21.112 26.1045 21.9545 25.7315 22.6097 25.058C22.9742 24.6832 23.1915 24.334 23.3667 23.8417C23.4777 23.5293 23.4927 23.4133 23.4935 22.86C23.4945 22.2962 23.481 22.193 23.3607 21.8462C23.2032 21.3915 23.0173 21.0503 22.782 20.7835L22.612 20.5908L22.7035 20.8663ZM24.521 24.5823C24.0443 23.5475 23.935 22.5485 24.196 21.6168C24.224 21.5172 24.2688 21.4357 24.296 21.4357C24.323 21.4357 24.4353 21.4972 24.5458 21.5722C24.7653 21.7215 25.2058 21.973 26.3792 22.6192C27.8435 23.4255 28.6783 24.0498 29.246 24.7633C29.7432 25.388 30.0508 26.0995 30.1988 26.9672C30.2828 27.4587 30.2337 28.6413 30.1088 29.1362C29.7152 30.6967 28.8002 31.9223 27.4952 32.6377C27.304 32.7423 27.1323 32.8283 27.1137 32.8288C27.0952 32.8292 27.1648 32.6503 27.2685 32.4312C27.7075 31.5042 27.7575 30.6025 27.4257 29.599C27.2223 28.9845 26.808 28.2347 25.9713 26.9673C24.9987 25.494 24.7602 25.1018 24.521 24.5823ZM15.5444 27.9763C14.0358 28.2238 12.3797 29.0302 11.0487 30.1653L10.6524 30.5033L11.0007 30.5583C12.818 30.8448 13.3074 31.099 14.568 32.4107C15.2934 33.1653 15.5384 33.3333 16.1401 33.4885C17.0239 33.7163 17.895 33.2977 18.1938 32.5013C18.3273 32.1455 18.3095 31.5563 18.1563 31.2605C17.792 30.556 16.7305 30.3283 16.2173 30.8443C15.7897 31.2742 15.9143 31.9217 16.446 32.033C16.5678 32.0587 16.5643 32.0532 16.415 31.985C16.1823 31.8787 16.0812 31.7313 16.0799 31.4968C16.0769 30.947 16.6999 30.6383 17.2794 30.9023C17.7037 31.0958 17.8722 31.3485 17.8722 31.7915C17.8722 32.4737 17.2974 32.9877 16.6284 32.9037C16.2709 32.8587 15.8336 32.6277 15.5991 32.36C15.0092 31.6862 15.239 30.6228 16.0627 30.2148C16.6898 29.9043 17.5234 29.9808 18.1698 30.4083C18.9125 30.8997 19.2283 31.3487 19.868 32.8223C20.0763 33.3022 20.3443 33.8423 20.4635 34.0227C21.0695 34.9388 21.7955 35.3882 22.67 35.3882C23.1523 35.3882 23.5152 35.2992 23.9717 35.069C24.3108 34.8978 24.7917 34.5727 24.757 34.5378C24.7472 34.528 24.6065 34.5722 24.4443 34.636C23.4895 35.0122 22.5188 34.9863 21.9552 34.5695C21.6002 34.3072 21.3138 33.7845 21.1667 33.1308C21.1412 33.0177 21.0572 32.518 20.9798 32.0203C20.7838 30.759 20.5957 30.192 20.1568 29.5413C19.7078 28.8757 18.8447 28.317 17.8797 28.0675C17.2776 27.9118 16.1945 27.8695 15.5444 27.9763ZM13.4316 18.2242C13.5619 17.7382 13.9827 17.2747 14.4157 17.1403C14.691 17.055 15.26 17.1095 15.5276 17.2468C16.0461 17.5132 16.4225 18.1197 16.3409 18.5575C16.2412 19.0913 15.3841 19.5185 14.3982 19.5255C13.8946 19.529 13.7086 19.4607 13.5163 19.2013C13.3972 19.0407 13.3521 18.5207 13.4316 18.2242ZM15.3952 17.4372C15.6538 17.5967 15.7203 17.8325 15.5683 18.0507C15.4635 18.201 15.1393 18.3438 14.9024 18.3438C14.5464 18.3438 14.1581 18.0885 14.1581 17.8547C14.1581 17.3848 14.9027 17.1333 15.3952 17.4372ZM92.6785 18.7825C91.8742 16.1071 93.2007 13.8879 96.031 13.1748C96.8427 12.9701 100.518 13.0625 101.148 13.3034C101.379 13.3917 101.48 13.7305 101.482 14.4269C101.484 14.9753 101.543 15.6413 101.615 15.907C101.723 16.3096 101.66 16.3888 101.235 16.3823C100.85 16.3763 100.618 16.1511 100.294 15.4698C99.7755 14.3816 99.148 14.0354 97.6858 14.0313C95.8192 14.026 94.4533 15.2828 94.6757 16.8013C94.8205 17.7895 95.8078 18.7618 98.0235 20.0985C100.132 21.37 101.362 22.4157 101.852 23.3525C103.163 25.8572 102.044 28.5375 99.123 29.888C97.6237 30.5812 95.1108 30.6528 93.3442 30.0528L92.2128 29.6685V27.8608C92.2128 26.2237 92.2518 26.0528 92.625 26.0528C92.9372 26.0528 93.072 26.2592 93.1815 26.9055C93.4542 28.5127 94.6755 29.4883 96.415 29.4883C98.119 29.4883 99.3102 28.5573 99.7665 26.8692C99.9608 26.15 99.9273 25.8848 99.5418 25.0915C99.0798 24.1403 98.2843 23.5092 95.5825 21.9505C94.0833 21.0855 93.0232 19.929 92.6785 18.7825ZM39.7152 14.2428C39.3465 14.2428 39.2027 14.1224 39.2027 13.8134C39.2027 13.4043 39.3465 13.3839 42.2353 13.3839C44.9167 13.3839 45.2598 13.4243 45.1983 13.732C45.1598 13.9235 44.7893 14.1892 44.3745 14.3225L43.6202 14.5649L43.5558 20.0405C43.5127 23.6942 43.5733 25.8018 43.7378 26.3748C44.227 28.079 45.7192 29.059 47.8245 29.059C49.2902 29.059 50.1463 28.7163 51.222 27.6987C52.379 26.6047 52.5635 25.5652 52.5598 20.1625C52.5563 14.8334 52.4635 14.3936 51.319 14.283C50.7982 14.2325 50.6237 14.1112 50.6237 13.7998C50.6237 13.4116 50.7955 13.3839 53.2095 13.3839C55.6517 13.3839 55.7953 13.4078 55.7953 13.8134C55.7953 14.0779 55.6505 14.2441 55.4182 14.246C54.4202 14.2548 54.4018 14.3498 54.2675 20.1933C54.1282 26.2617 53.998 26.9802 52.7682 28.4667C52.4135 28.8955 51.5677 29.5182 50.8887 29.8505C49.7822 30.392 49.4302 30.4542 47.499 30.4507C45.7188 30.447 45.1568 30.361 44.2667 29.9558C42.9673 29.3643 42.1223 28.5988 41.4993 27.4485C41.0645 26.6455 41.0273 26.211 40.9267 20.7705C40.8113 14.543 40.7555 14.2428 39.7152 14.2428ZM59.8795 14.2428C59.3868 14.2428 59.2432 14.1458 59.2432 13.8134C59.2432 13.4108 59.3808 13.385 61.4518 13.4015L63.6607 13.4191L64.7175 14.6362C65.2983 15.3055 67.1923 17.3993 68.9258 19.2888C70.6595 21.1785 72.6498 23.3767 73.3487 24.1738C74.0477 24.9712 74.7055 25.6233 74.8107 25.6233C74.9187 25.6233 74.9725 23.3713 74.934 20.451L74.866 15.2787L74.2613 14.7608C73.9288 14.4758 73.42 14.2428 73.1302 14.2428C72.7447 14.2428 72.6035 14.126 72.6035 13.8074C72.6035 13.388 72.7135 13.374 75.5663 13.4316C77.9922 13.4805 78.5293 13.5482 78.5293 13.8046C78.5293 13.9873 78.2293 14.1791 77.809 14.2647C77.413 14.3455 76.9765 14.5233 76.8393 14.6598C76.6623 14.8361 76.5722 17.1155 76.5283 22.5203L76.4665 30.1325H75.842C75.3043 30.1325 74.6643 29.5275 71.2427 25.7843C69.0565 23.3927 66.5047 20.5503 65.572 19.468C64.6392 18.3855 63.8033 17.4917 63.7145 17.4818C63.4643 17.4538 63.5248 27.1248 63.7807 28.0428C63.9802 28.7582 64.1173 28.8813 64.9648 29.1073C65.6473 29.2892 65.9233 29.4737 65.9233 29.7477C65.9233 30.0995 65.6632 30.1325 62.9065 30.1325C60.1003 30.1325 59.8897 30.1045 59.8897 29.73C59.8897 29.4558 60.0927 29.287 60.5263 29.2005C61.8422 28.9383 61.9295 28.5222 62.0033 22.1605C62.0447 18.5975 61.984 16.1045 61.8428 15.5825C61.5948 14.6646 60.9768 14.2428 59.8795 14.2428ZM82.4748 14.2428C82.0132 14.2428 81.8695 14.1408 81.8695 13.8134C81.8695 13.403 82.0132 13.3839 85.1018 13.3839C88.1903 13.3839 88.3342 13.403 88.3342 13.8134C88.3342 14.1284 88.1903 14.2428 87.7953 14.2428C87.4992 14.2428 87.0588 14.44 86.817 14.6809C86.3902 15.1063 86.3792 15.3178 86.44 21.8918C86.4992 28.3093 86.5245 28.6807 86.9207 28.9692C87.1508 29.1367 87.5628 29.2737 87.8365 29.2737C88.1903 29.2737 88.3342 29.3975 88.3342 29.7032C88.3342 30.1135 88.1903 30.1325 85.1018 30.1325C82.0867 30.1325 81.8695 30.1055 81.8695 29.7307C81.8695 29.4283 82.081 29.2948 82.7232 29.1925C83.9983 28.9893 84.0635 28.5733 83.984 21.1502C83.9205 15.2055 83.8932 14.8348 83.4983 14.5473C83.2682 14.3798 82.8077 14.2428 82.4748 14.2428ZM105.022 14.2428C104.727 14.2428 104.503 14.0794 104.433 13.8134C104.325 13.3981 104.427 13.3839 107.533 13.3839C110.601 13.3839 110.745 13.403 110.745 13.8134C110.745 14.1434 110.601 14.2428 110.125 14.2428C108.768 14.2428 108.799 14.4885 110.852 20.104C111.897 22.9625 112.911 25.6778 113.106 26.138L113.461 26.9748L115.107 22.595C117.044 17.4395 117.296 16.4861 116.967 15.5458C116.738 14.8904 115.846 14.2428 115.173 14.2428C114.983 14.2428 114.839 14.0582 114.839 13.8134C114.839 13.4024 114.983 13.3839 118.179 13.3839C121.376 13.3839 121.519 13.4024 121.519 13.8134C121.519 14.1189 121.376 14.2428 121.022 14.2428C120.116 14.2428 119.716 14.7243 119.846 15.6596C119.98 16.6224 123.687 26.9707 123.842 26.8158C124.095 26.564 128.2 15.424 128.2 14.9899C128.2 14.4696 127.834 14.2428 126.997 14.2428C126.619 14.2428 126.476 14.1245 126.476 13.8134C126.476 13.4078 126.619 13.3839 129.062 13.3839C131.255 13.3839 131.647 13.4346 131.647 13.7172C131.647 13.9006 131.379 14.1438 131.05 14.2579C130.312 14.5145 130.126 14.8073 129.199 17.1798C128.792 18.2217 127.519 21.4823 126.369 24.4253C125.22 27.3687 124.229 29.9052 124.169 30.062C124.108 30.219 123.752 30.3473 123.377 30.3473H122.695L121.147 26.3212C120.296 24.107 119.29 21.4837 118.912 20.4917C118.264 18.7918 118.21 18.718 117.966 19.2032C117.824 19.4867 116.801 22.1147 115.693 25.0433L113.679 30.3683L112.927 30.3042L112.175 30.24L109.308 22.7413C107.706 18.5518 106.233 15.0219 105.969 14.7427C105.71 14.4677 105.284 14.2428 105.022 14.2428ZM148.109 14.3339C148.073 14.2523 148.074 13.9592 148.074 13.9592C148.074 13.9592 148.065 13.8535 148.11 13.7971C148.154 13.7408 148.169 13.7393 148.328 13.7243L148.329 13.7241C148.911 13.6688 150.079 13.5757 151.053 13.5332C151.142 13.5293 151.241 13.5248 151.349 13.5199L151.351 13.5198L151.352 13.5197L151.353 13.5197C152.425 13.471 154.344 13.406 155.663 13.4719C158.193 13.5983 159.992 14.8212 160.605 16.8422C161.219 18.863 160.894 20.76 160.059 21.9675C159.223 23.175 157.817 24.2147 155.481 24.147C153.552 24.0912 153.036 23.73 152.624 23.4415C152.536 23.3805 152.454 23.3227 152.364 23.2718V25.849C152.384 27.6067 152.399 28.4508 152.535 28.7633C152.718 29.184 153.133 29.4432 153.94 29.6418C153.94 29.6418 154.306 29.7275 154.4 29.8188C154.494 29.9102 154.494 30.113 154.494 30.113C154.494 30.113 154.514 30.3027 154.438 30.3993C154.362 30.496 154.216 30.4767 154.216 30.4767L150.639 30.4478L148.483 30.4422C148.483 30.4422 148.256 30.4855 148.171 30.3945C148.087 30.3033 148.094 30.1135 148.094 30.1135C148.094 30.1135 148.113 29.909 148.212 29.8175C148.311 29.7258 148.679 29.6235 148.679 29.6235C149.511 29.39 149.872 29.143 150.06 28.6777C150.212 28.3025 150.213 27.6068 150.212 21.9297C150.21 16.5458 150.202 15.5415 150.079 15.2527C149.896 14.8251 149.439 14.7119 148.787 14.5506L148.787 14.5505C148.658 14.5185 148.521 14.4847 148.377 14.4461C148.377 14.4461 148.146 14.4155 148.109 14.3339ZM158.524 18.727C158.524 19.6098 158.508 20.992 157.568 21.8755C156.628 22.759 154.778 23.0008 153.522 22.7548C153.126 22.6773 152.899 22.5578 152.725 22.4657L152.708 22.4565L152.386 22.2872L152.367 19.1853C152.356 17.2418 152.376 15.9756 152.422 15.7946C152.464 14.7698 153.975 14.6423 154.714 14.6803C157.874 14.6803 158.432 17.3427 158.524 18.727ZM138.187 13.5042C138.187 13.5042 138.033 13.5634 137.799 13.6521L136.955 14.0879L136.347 15.6047C136.013 16.4389 135.402 17.9703 134.989 19.0078C134.237 20.8975 133.74 22.139 133.218 23.4348C133.064 23.816 132.6 24.9767 132.186 26.0142C131.773 27.0515 131.359 28.0388 131.268 28.2082C131.252 28.2363 131.236 28.2667 131.219 28.2987C130.988 28.7333 130.586 29.4883 129.877 29.6025C129.877 29.6025 129.487 29.6408 129.342 29.7835C129.198 29.9263 129.212 30.043 129.212 30.043V30.2228C129.212 30.2228 129.225 30.31 129.307 30.3533C129.389 30.3968 129.499 30.3993 129.499 30.3993L132.094 30.3698H134.777C134.777 30.3698 134.966 30.392 135.04 30.3313C135.113 30.2707 135.133 30.1807 135.133 30.1807V29.9913C135.133 29.9913 135.096 29.786 134.99 29.7058C134.883 29.6258 134.485 29.571 134.485 29.571C133.411 29.4298 133.227 28.6177 133.359 27.8873C133.424 27.5285 133.856 26.2012 134.342 24.8648L134.51 24.403L137.32 24.3815C138.866 24.3697 140.201 24.3777 140.286 24.3993C140.408 24.4302 140.579 24.777 141.08 26.0123C141.84 27.884 141.901 28.112 141.733 28.4622C141.722 28.4835 141.712 28.507 141.7 28.5323C141.542 28.871 141.236 29.529 140.463 29.596C140.463 29.596 140.053 29.6102 139.951 29.7327C139.85 29.8553 139.872 29.9963 139.872 29.9963V30.1837C139.872 30.1837 139.899 30.2935 139.951 30.337C140.004 30.3805 140.093 30.3695 140.093 30.3695L142.644 30.3512L146.23 30.351C146.23 30.351 146.371 30.366 146.41 30.312C146.448 30.2578 146.456 30.1942 146.456 30.1942V29.9453C146.456 29.9453 146.44 29.813 146.371 29.74C146.302 29.6672 145.837 29.5902 145.837 29.5902C145.243 29.4943 144.947 29.004 144.727 28.6388C144.671 28.5457 144.619 28.4607 144.569 28.3925C144.467 28.2533 144.102 27.4907 143.817 26.7572C143.531 26.0237 142.887 24.3667 142.385 23.0752C141.883 21.7837 141.183 19.982 140.829 19.0717C140.474 18.1612 139.801 16.4288 139.333 15.222C139.256 15.0239 139.187 14.846 139.125 14.6867L139.125 14.686C138.811 13.8755 138.684 13.5485 138.649 13.5042C138.537 13.3605 138.187 13.5042 138.187 13.5042ZM138.02 18.436C137.907 18.1608 137.707 17.6672 137.577 17.339C137.34 16.7425 137.251 16.6051 137.177 16.7283C137.156 16.7643 137.007 17.172 136.846 17.6343C135.806 20.6277 135.335 21.9755 135.241 22.2295C135.182 22.3892 135.133 22.5537 135.133 22.5952C135.133 22.6428 135.979 22.6707 137.428 22.6707C138.691 22.6707 139.723 22.655 139.723 22.6358C139.723 22.6167 139.611 22.331 139.473 22.0007C139.336 21.6703 138.999 20.8458 138.725 20.1683C138.45 19.4908 138.133 18.7113 138.02 18.436Z" fill="#FF007A"/>
</g>
<defs>
<clipPath id="clip0_8651_368194">
<rect width="160.167" height="40" fill="white" transform="translate(0.916656)"/>
</clipPath>
</defs>
</svg>
