<svg width="208" height="40" viewBox="0 0 208 40" fill="none" xmlns="http://www.w3.org/2000/svg">
<path d="M182.919 20.1697C181.843 19.4666 180.67 18.9576 179.557 18.3273C178.832 17.9273 178.058 17.5636 177.429 17.0424C176.365 16.1697 176.582 14.4363 177.695 13.6848C179.303 12.6182 181.952 13.2121 182.242 15.3939C182.242 15.4424 182.29 15.4788 182.339 15.4788H184.757C184.818 15.4788 184.866 15.4303 184.842 15.3576C184.82 14.6713 184.652 13.9976 184.347 13.3827C184.042 12.7677 183.609 12.2258 183.076 11.7939C182.092 11.0331 180.885 10.6198 179.642 10.6182C173.257 10.6182 172.664 17.3939 176.111 19.5273C176.51 19.7697 179.884 21.4666 181.069 22.206C182.278 22.9454 182.641 24.303 182.133 25.3576C181.649 26.3394 180.44 27.0182 179.206 26.9333C177.876 26.8606 176.836 26.1333 176.473 25.006C176.413 24.8 176.377 24.4 176.377 24.2424C176.374 24.2176 176.363 24.1944 176.345 24.1768C176.328 24.1591 176.305 24.1481 176.28 24.1454H173.656C173.62 24.1454 173.571 24.1939 173.571 24.2424C173.571 26.1333 174.043 27.1879 175.325 28.1454C176.534 29.0545 177.864 29.4424 179.219 29.4424C182.81 29.4424 184.66 27.406 185.023 25.3091C185.362 23.2485 184.757 21.3939 182.919 20.1697ZM69.0028 10.9697H66.56C66.542 10.9719 66.5248 10.9786 66.51 10.9892C66.4952 10.9998 66.4833 11.0139 66.4753 11.0303L64.3228 18.1333C64.3228 18.159 64.3126 18.1837 64.2944 18.2019C64.2763 18.2201 64.2517 18.2303 64.226 18.2303C64.2004 18.2303 64.1758 18.2201 64.1576 18.2019C64.1395 18.1837 64.1293 18.159 64.1293 18.1333L61.9767 11.0303C61.9646 10.9818 61.9284 10.9697 61.88 10.9697H57.8772C57.8288 10.9697 57.7805 11.0182 57.7805 11.0545V29.1879C57.7805 29.2363 57.8288 29.2848 57.8772 29.2848H60.5014C60.5498 29.2848 60.5981 29.2363 60.5981 29.1879V15.3939C60.5981 15.2848 60.7553 15.2727 60.7795 15.3697L62.9563 22.5212L63.1135 23.006C63.1135 23.0666 63.1498 23.0788 63.1981 23.0788H65.2177C65.266 23.0788 65.2902 23.0424 65.3023 23.0182L65.4595 22.5091L67.6363 15.3576C67.6605 15.2606 67.8177 15.2848 67.8177 15.3939V29.1757C67.8177 29.2242 67.866 29.2727 67.9144 29.2727H70.5386C70.587 29.2727 70.6353 29.2242 70.6353 29.1757V11.0545C70.6353 11.0182 70.587 10.9697 70.5386 10.9697H69.0028ZM142.746 10.9697C142.726 10.9698 142.706 10.9756 142.689 10.9863C142.672 10.997 142.658 11.0122 142.649 11.0303L140.497 18.1333C140.497 18.159 140.487 18.1837 140.468 18.2019C140.45 18.2201 140.426 18.2303 140.4 18.2303C140.374 18.2303 140.35 18.2201 140.332 18.2019C140.313 18.1837 140.303 18.159 140.303 18.1333L138.151 11.0303C138.151 10.9818 138.114 10.9697 138.066 10.9697H134.075C134.027 10.9697 133.979 11.0182 133.979 11.0545V29.1879C133.979 29.2363 134.027 29.2848 134.075 29.2848H136.7C136.736 29.2848 136.784 29.2363 136.784 29.1879V15.3939C136.784 15.2848 136.941 15.2727 136.978 15.3697L139.154 22.5212L139.3 23.006C139.324 23.0666 139.348 23.0788 139.396 23.0788H141.404C141.424 23.0774 141.443 23.0712 141.46 23.0606C141.477 23.05 141.491 23.0355 141.5 23.0182L141.658 22.5091L143.834 15.3576C143.859 15.2606 144.016 15.2848 144.016 15.3939V29.1757C144.016 29.2242 144.064 29.2727 144.113 29.2727H146.737C146.785 29.2727 146.833 29.2242 146.833 29.1757V11.0545C146.833 11.0182 146.785 10.9697 146.737 10.9697H142.746ZM108.898 10.9697H96.5023C96.466 10.9697 96.4177 11.0182 96.4177 11.0545V13.3333C96.4177 13.3818 96.466 13.4303 96.5023 13.4303H101.303V29.1879C101.303 29.2485 101.352 29.297 101.388 29.297H104.012C104.06 29.297 104.109 29.2485 104.109 29.2V13.4182H108.898C108.946 13.4182 108.994 13.3697 108.994 13.3212V11.0545C108.994 11.0182 108.97 10.9697 108.898 10.9697ZM124.377 29.2848H126.771C126.832 29.2848 126.88 29.2121 126.856 29.1636L121.922 10.9697C121.922 10.9212 121.886 10.897 121.837 10.897H118.391C118.371 10.9003 118.353 10.9088 118.338 10.9216C118.323 10.9344 118.312 10.951 118.306 10.9697L113.372 29.1515C113.348 29.2121 113.396 29.2727 113.457 29.2727H115.851C115.9 29.2727 115.924 29.2485 115.948 29.2121L117.375 23.9273C117.387 23.8788 117.423 23.8666 117.472 23.8666H122.744C122.793 23.8666 122.829 23.8909 122.841 23.9273L124.268 29.2121C124.292 29.2485 124.34 29.2848 124.365 29.2848H124.377ZM118.113 21.2727L120.023 14.1818C120.023 14.1561 120.033 14.1314 120.052 14.1132C120.07 14.095 120.094 14.0848 120.12 14.0848C120.146 14.0848 120.17 14.095 120.188 14.1132C120.207 14.1314 120.217 14.1561 120.217 14.1818L122.127 21.2727C122.152 21.3333 122.103 21.3939 122.043 21.3939H118.209C118.137 21.3939 118.088 21.3333 118.113 21.2727ZM165.094 29.2848H167.488C167.549 29.2848 167.597 29.2121 167.585 29.1636L162.651 10.9576C162.627 10.9091 162.603 10.8848 162.554 10.8848H159.132C159.111 10.886 159.09 10.8935 159.073 10.9065C159.055 10.9194 159.042 10.9372 159.035 10.9576L154.101 29.1394C154.089 29.2 154.138 29.2606 154.198 29.2606H156.58C156.629 29.2606 156.665 29.2363 156.677 29.2L158.104 23.9151C158.128 23.8666 158.153 23.8545 158.201 23.8545H163.486C163.522 23.8545 163.558 23.8788 163.57 23.9151L165.009 29.2C165.009 29.2363 165.058 29.2727 165.094 29.2727V29.2848ZM158.83 21.2727L160.753 14.1818C160.759 14.1632 160.772 14.1472 160.788 14.1359C160.804 14.1246 160.823 14.1186 160.843 14.1186C160.863 14.1186 160.882 14.1246 160.898 14.1359C160.915 14.1472 160.927 14.1632 160.934 14.1818L162.857 21.2727C162.857 21.3333 162.82 21.3939 162.76 21.3939H158.926C158.866 21.3939 158.806 21.3333 158.83 21.2727ZM81.2893 26.5939V20.9697C81.2893 20.9212 81.3256 20.8727 81.3739 20.8727H88.3637C88.4121 20.8727 88.4605 20.8242 88.4605 20.7879V18.5212C88.4578 18.4964 88.4468 18.4732 88.4292 18.4556C88.4116 18.4379 88.3885 18.4269 88.3637 18.4242H81.386C81.3377 18.4242 81.3014 18.3757 81.3014 18.3273V13.5273C81.3014 13.4788 81.3377 13.4303 81.386 13.4303H89.3432C89.3916 13.4303 89.44 13.3818 89.44 13.3333V11.0788C89.4374 11.054 89.4263 11.0308 89.4087 11.0131C89.3911 10.9955 89.368 10.9844 89.3432 10.9818H78.5805C78.5557 10.9844 78.5326 10.9955 78.515 11.0131C78.4974 11.0308 78.4863 11.054 78.4837 11.0788V29.1879C78.4837 29.2363 78.5321 29.2848 78.5805 29.2848H89.6698C89.7181 29.2848 89.7665 29.2363 89.7665 29.1879V26.7879C89.7639 26.763 89.7528 26.7399 89.7352 26.7222C89.7176 26.7046 89.6945 26.6935 89.6698 26.6909H81.3739C81.3256 26.6788 81.3014 26.6424 81.3014 26.5818L81.2893 26.5939ZM206.887 29.1273L197.818 19.7454C197.804 19.7282 197.796 19.7069 197.796 19.6848C197.796 19.6628 197.804 19.6414 197.818 19.6242L205.98 11.1394C206.001 11.1297 206.017 11.1122 206.025 11.0906C206.033 11.069 206.032 11.0451 206.023 11.0242C206.013 11.0033 205.996 10.9871 205.974 10.9792C205.953 10.9712 205.929 10.9722 205.908 10.9818H202.57C202.534 10.9818 202.522 10.9939 202.51 11.0182L195.58 18.206C195.567 18.217 195.551 18.2242 195.534 18.2269C195.518 18.2297 195.5 18.2279 195.484 18.2217C195.468 18.2155 195.454 18.2052 195.443 18.1918C195.433 18.1784 195.426 18.1624 195.423 18.1454V11.0788C195.421 11.054 195.41 11.0308 195.392 11.0131C195.374 10.9955 195.351 10.9844 195.326 10.9818H192.702C192.678 10.9844 192.654 10.9955 192.637 11.0131C192.619 11.0308 192.608 11.054 192.606 11.0788V29.2C192.606 29.2485 192.654 29.297 192.702 29.297H195.326C195.375 29.297 195.423 29.2485 195.423 29.2V21.2242C195.423 21.1394 195.532 21.103 195.58 21.1636L203.441 29.2606C203.454 29.2766 203.47 29.2891 203.489 29.297H206.839C206.9 29.2848 206.96 29.1757 206.887 29.1273Z" fill="#161616"/>
<path d="M39.8586 1.21191L23.9684 12.9937L26.9312 6.04828L39.8586 1.21191Z" fill="#E17726" stroke="#E17726" stroke-width="0.25" stroke-linecap="round" stroke-linejoin="round"/>
<path d="M3.21674 1.21191L18.9619 13.0907L16.1442 6.0604L3.21674 1.21191ZM34.1386 28.521L29.906 34.9937L38.9637 37.4907L41.5516 28.6665L34.1386 28.521ZM1.53581 28.6665L4.11163 37.4907L13.1451 34.9937L8.93674 28.521L1.53581 28.6665Z" fill="#E27625" stroke="#E27625" stroke-width="0.25" stroke-linecap="round" stroke-linejoin="round"/>
<path d="M12.6614 17.5881L10.146 21.3941L19.0949 21.8062L18.8046 12.1456L12.6614 17.6002V17.5881ZM30.4139 17.6002L24.1739 12.0244L23.9684 21.8062L32.9172 21.3941L30.4139 17.6002ZM13.1451 34.9941L18.5749 32.3759L13.907 28.7396L13.1451 34.9941ZM24.5126 32.3638L29.906 34.9941L29.1805 28.7274L24.5126 32.3638Z" fill="#E27625" stroke="#E27625" stroke-width="0.25" stroke-linecap="round" stroke-linejoin="round"/>
<path d="M29.906 34.9942L24.5126 32.376L24.9479 35.8911L24.8995 37.382L29.906 34.9942ZM13.1451 34.9942L18.1758 37.382L18.1395 35.8911L18.5749 32.376L13.1451 34.9942Z" fill="#D5BFB2" stroke="#D5BFB2" stroke-width="0.25" stroke-linecap="round" stroke-linejoin="round"/>
<path d="M18.2605 26.3998L13.786 25.0907L16.9544 23.6361L18.2726 26.3998H18.2605ZM24.8028 26.3998L26.133 23.624L29.3135 25.0786L24.8028 26.4119V26.3998Z" fill="#233447" stroke="#233447" stroke-width="0.25" stroke-linecap="round" stroke-linejoin="round"/>
<path d="M13.1451 34.994L13.9312 28.5213L8.93674 28.6668L13.1451 34.994ZM29.1442 28.5213L29.906 34.994L34.1386 28.6668L29.1442 28.5213ZM32.9293 21.394L23.9805 21.8062L24.8028 26.4122L26.133 23.6243L29.3135 25.0789L32.9293 21.394ZM13.786 25.091L16.9544 23.6365L18.2725 26.4001L19.107 21.794L10.1581 21.394L13.786 25.091Z" fill="#CC6228" stroke="#CC6228" stroke-width="0.25" stroke-linecap="round" stroke-linejoin="round"/>
<path d="M10.1581 21.394L13.907 28.7274L13.786 25.091L10.1581 21.394ZM29.3135 25.091L29.1684 28.7274L32.9172 21.394L29.3135 25.091ZM19.107 21.8062L18.2605 26.4122L19.3247 31.8425L19.5665 24.6789L19.107 21.8062ZM23.9684 21.8062L23.533 24.6668L23.7507 31.8425L24.8028 26.4001L23.9684 21.794V21.8062Z" fill="#E27525" stroke="#E27525" stroke-width="0.25" stroke-linecap="round" stroke-linejoin="round"/>
<path d="M24.8028 26.3999L23.7507 31.8423L24.5126 32.3757L29.1684 28.7393L29.3135 25.0908L24.8028 26.3999ZM13.786 25.0908L13.907 28.7272L18.5749 32.3635L19.3247 31.8423L18.2726 26.3999L13.774 25.0908H13.786Z" fill="#F5841F" stroke="#F5841F" stroke-width="0.25" stroke-linecap="round" stroke-linejoin="round"/>
<path d="M24.9116 37.382L24.9479 35.8911L24.5367 35.5517H18.5386L18.1395 35.8911L18.1758 37.382L13.1451 34.9941L14.9107 36.4487L18.4781 38.9093H24.5851L28.1646 36.4366L29.906 34.9941L24.8995 37.382H24.9116Z" fill="#C0AC9D" stroke="#C0AC9D" stroke-width="0.25" stroke-linecap="round" stroke-linejoin="round"/>
<path d="M24.5126 32.3635L23.7507 31.8423H19.3247L18.5749 32.3756L18.1395 35.8908L18.5386 35.5514H24.5368L24.9479 35.8908L24.5126 32.3756V32.3635Z" fill="#161616" stroke="#161616" stroke-width="0.25" stroke-linecap="round" stroke-linejoin="round"/>
<path d="M40.5358 13.7574L41.866 7.27252L39.8586 1.21191L24.5005 12.6059L30.414 17.5877L38.7581 20.024L40.5963 17.8786L39.7981 17.2968L41.0679 16.1331L40.1005 15.3816L41.3702 14.4119L40.5237 13.7574H40.5358ZM1.2093 7.2604L2.56372 13.7574L1.69303 14.3998L2.98698 15.3695L2.01954 16.1331L3.27721 17.2968L2.47907 17.8786L4.31721 20.024L12.6614 17.5998L18.5749 12.5937L3.21675 1.21191L1.2093 7.2604Z" fill="#763E1A" stroke="#763E1A" stroke-width="0.25" stroke-linecap="round" stroke-linejoin="round"/>
<path d="M38.7581 20.0241L30.4139 17.5999L32.9293 21.3938L29.1805 28.7271L34.1386 28.6665H41.5516L38.7581 20.0241ZM12.6614 17.5877L4.31721 20.0241L1.53581 28.6665H8.94883L13.907 28.7271L10.1581 21.3938L12.6735 17.5877H12.6614ZM23.9684 21.8059L24.5126 12.5938L26.9312 6.04834H16.1442L18.5628 12.5938L19.107 21.8059L19.3126 24.6908V31.8423H23.7507L23.7749 24.6908L23.9684 21.8059Z" fill="#F5841F" stroke="#F5841F" stroke-width="0.25" stroke-linecap="round" stroke-linejoin="round"/>
</svg>
