<svg xmlns="http://www.w3.org/2000/svg" xmlns:xlink="http://www.w3.org/1999/xlink" width="1140" zoomAndPan="magnify" viewBox="0 0 854.88 911.249972" height="1215" preserveAspectRatio="xMidYMid meet" version="1.0"><defs><filter x="0%" y="0%" width="100%" height="100%" id="4d09cc756a"><feColorMatrix values="0 0 0 0 1 0 0 0 0 1 0 0 0 0 1 0 0 0 1 0" color-interpolation-filters="sRGB"/></filter><clipPath id="66805c6130"><path d="M 690 107 L 854.46875 107 L 854.46875 470 L 690 470 Z M 690 107 " clip-rule="nonzero"/></clipPath><mask id="44ff889094"><g filter="url(#4d09cc756a)"><rect x="-85.488" width="1025.856" fill="#000000" y="-91.124997" height="1093.499966" fill-opacity="0.2863"/></g></mask><clipPath id="c279021334"><path d="M 0.445312 0.714844 L 164.46875 0.714844 L 164.46875 360.417969 L 0.445312 360.417969 Z M 0.445312 0.714844 " clip-rule="nonzero"/></clipPath><clipPath id="9faa008e3a"><rect x="0" width="165" y="0" height="363"/></clipPath><clipPath id="41cd9d9298"><path d="M 0.292969 467 L 256 467 L 256 830 L 0.292969 830 Z M 0.292969 467 " clip-rule="nonzero"/></clipPath><mask id="ad93759edc"><g filter="url(#4d09cc756a)"><rect x="-85.488" width="1025.856" fill="#000000" y="-91.124997" height="1093.499966" fill-opacity="0.2863"/></g></mask><clipPath id="53e2a0ec63"><path d="M 0.292969 0.769531 L 255 0.769531 L 255 360.472656 L 0.292969 360.472656 Z M 0.292969 0.769531 " clip-rule="nonzero"/></clipPath><clipPath id="735890fb98"><rect x="0" width="256" y="0" height="363"/></clipPath><mask id="2ce15780e8"><g filter="url(#4d09cc756a)"><rect x="-85.488" width="1025.856" fill="#000000" y="-91.124997" height="1093.499966" fill-opacity="0.2863"/></g></mask><clipPath id="dbab94671f"><path d="M 20 0.847656 L 63 0.847656 L 63 59 L 20 59 Z M 20 0.847656 " clip-rule="nonzero"/></clipPath><clipPath id="5e19f92210"><path d="M 0.429688 2 L 59 2 L 59 60.796875 L 0.429688 60.796875 Z M 0.429688 2 " clip-rule="nonzero"/></clipPath><clipPath id="e50bff3b61"><rect x="0" width="64" y="0" height="61"/></clipPath><mask id="2ef6e3ff57"><g filter="url(#4d09cc756a)"><rect x="-85.488" width="1025.856" fill="#000000" y="-91.124997" height="1093.499966" fill-opacity="0.2863"/></g></mask><clipPath id="a9bf0b6caa"><path d="M 33 0.722656 L 104 0.722656 L 104 96 L 33 96 Z M 33 0.722656 " clip-rule="nonzero"/></clipPath><clipPath id="2e4f6b6ff9"><path d="M 0.613281 3 L 97 3 L 97 100 L 0.613281 100 Z M 0.613281 3 " clip-rule="nonzero"/></clipPath><clipPath id="ff4462a6fb"><rect x="0" width="105" y="0" height="101"/></clipPath><mask id="4bdaafbb67"><g filter="url(#4d09cc756a)"><rect x="-85.488" width="1025.856" fill="#000000" y="-91.124997" height="1093.499966" fill-opacity="0.2863"/></g></mask><clipPath id="7f8b492c68"><path d="M 28 0.234375 L 88.488281 0.234375 L 88.488281 80 L 28 80 Z M 28 0.234375 " clip-rule="nonzero"/></clipPath><clipPath id="4b12ebb074"><path d="M 1 2 L 82 2 L 82 83.683594 L 1 83.683594 Z M 1 2 " clip-rule="nonzero"/></clipPath><clipPath id="86adbc2c78"><path d="M 44 0.234375 L 52 0.234375 L 52 3 L 44 3 Z M 44 0.234375 " clip-rule="nonzero"/></clipPath><clipPath id="8634da7e45"><path d="M 36 0.234375 L 46 0.234375 L 46 3 L 36 3 Z M 36 0.234375 " clip-rule="nonzero"/></clipPath><clipPath id="86be39daad"><rect x="0" width="89" y="0" height="84"/></clipPath><mask id="282fed2a59"><g filter="url(#4d09cc756a)"><rect x="-85.488" width="1025.856" fill="#000000" y="-91.124997" height="1093.499966" fill-opacity="0.2863"/></g></mask><clipPath id="dcab2712fd"><path d="M 31 0.152344 L 98.949219 0.152344 L 98.949219 91 L 31 91 Z M 31 0.152344 " clip-rule="nonzero"/></clipPath><clipPath id="88ee07039f"><path d="M 0.632812 3 L 92 3 L 92 94 L 0.632812 94 Z M 0.632812 3 " clip-rule="nonzero"/></clipPath><clipPath id="7f13bc6111"><path d="M 49 0.152344 L 58 0.152344 L 58 3 L 49 3 Z M 49 0.152344 " clip-rule="nonzero"/></clipPath><clipPath id="0d7ad748ca"><path d="M 40 0.152344 L 51 0.152344 L 51 3 L 40 3 Z M 40 0.152344 " clip-rule="nonzero"/></clipPath><clipPath id="e4e9b313e5"><rect x="0" width="99" y="0" height="95"/></clipPath></defs><g clip-path="url(#66805c6130)"><g mask="url(#44ff889094)"><g transform="matrix(1, 0, 0, 1, 690, 107)"><g clip-path="url(#9faa008e3a)"><g clip-path="url(#c279021334)"><path fill="#bd9d94" d="M 245.03125 0.714844 C 244.558594 0.714844 244.085938 0.714844 243.636719 0.789062 C 242.113281 0.960938 240.632812 1.238281 239.164062 1.582031 L 237.371094 2.609375 L 236.714844 2.234375 C 235.792969 2.523438 234.882812 2.8125 233.980469 3.15625 L 236.289062 4.484375 L 236.289062 17.804688 C 237.027344 17.28125 237.746094 16.765625 238.453125 16.230469 L 238.453125 4.484375 Z M 130.101562 18.707031 C 130.027344 18.707031 129.941406 18.707031 129.867188 18.707031 L 129.867188 23.644531 L 113.207031 33.238281 L 110.867188 31.890625 C 110.460938 32.476562 110.0625 33.089844 109.675781 33.699219 L 112.125 35.113281 L 112.125 54.316406 L 103.464844 59.304688 C 103.585938 60.078125 103.691406 60.835938 103.789062 61.597656 L 113.207031 56.179688 L 129.867188 65.773438 L 129.867188 84.988281 L 113.207031 94.582031 L 96.546875 84.988281 L 96.546875 78.945312 C 95.847656 79.566406 95.121094 80.15625 94.378906 80.734375 L 94.378906 84.988281 L 77.71875 94.582031 L 71.691406 91.113281 C 70.714844 91.378906 69.726562 91.636719 68.738281 91.90625 L 76.636719 96.457031 L 76.636719 115.667969 L 59.976562 125.277344 L 43.316406 115.667969 L 43.316406 97.410156 C 42.585938 97.558594 41.867188 97.710938 41.148438 97.871094 L 41.148438 115.667969 L 24.488281 125.277344 L 7.828125 115.667969 L 7.828125 111.332031 C 7.078125 112.007812 6.347656 112.703125 5.660156 113.429688 L 5.660156 115.667969 L 2.472656 117.511719 C 1.746094 118.65625 1.078125 119.855469 0.5 121.140625 L 6.742188 117.542969 L 23.402344 127.140625 L 23.402344 146.34375 L 9.960938 154.085938 C 10.421875 154.652344 10.875 155.21875 11.324219 155.789062 L 24.488281 148.214844 L 41.148438 157.800781 L 41.148438 177.015625 L 30.085938 183.386719 C 30.570312 183.976562 31.0625 184.554688 31.492188 185.144531 L 42.230469 178.953125 L 58.890625 188.558594 L 58.890625 207.730469 L 42.230469 217.335938 L 32.4375 211.679688 C 32.867188 212.730469 33.261719 213.78125 33.53125 214.808594 L 41.148438 219.1875 L 41.148438 238.402344 L 24.488281 248.007812 L 18.125 244.335938 C 17.054688 244.539062 15.992188 244.761719 14.949219 245 L 15.078125 245.085938 L 23.402344 249.871094 L 23.402344 269.085938 L 17 272.789062 C 17.835938 273.121094 18.695312 273.464844 19.585938 273.785156 L 24.488281 270.957031 L 37.949219 278.722656 C 40.011719 279.171875 42.070312 279.621094 44.164062 280.070312 L 59.976562 270.957031 L 76.636719 280.566406 L 76.636719 289.773438 C 77.375 290.148438 78.09375 290.546875 78.800781 290.953125 L 78.800781 280.566406 L 95.464844 270.957031 L 112.125 280.566406 L 112.125 299.757812 L 95.464844 309.363281 L 94.453125 308.785156 C 95.226562 310.605469 95.914062 312.5 96.546875 314.4375 L 96.546875 311.226562 L 113.207031 301.628906 L 129.867188 311.226562 L 129.867188 330.4375 L 113.207031 340.035156 L 101.386719 333.222656 C 101.621094 334.207031 101.867188 335.171875 102.113281 336.136719 L 103.789062 337.101562 L 112.125 341.910156 L 112.125 358.542969 C 112.789062 359.257812 113.519531 359.921875 114.289062 360.542969 L 114.289062 341.910156 L 130.949219 332.300781 L 139.277344 337.101562 L 147.609375 341.910156 L 147.609375 352.234375 C 148.328125 351.601562 149.046875 350.96875 149.765625 350.335938 L 149.765625 341.910156 L 166.363281 332.34375 L 183.097656 341.996094 L 183.097656 343.503906 C 183.816406 343.589844 184.535156 343.601562 185.265625 343.632812 L 185.265625 341.941406 L 193.601562 337.144531 L 201.925781 332.34375 L 210.25 337.144531 L 218.320312 341.792969 C 219.574219 341.597656 220.839844 341.382812 222.105469 341.171875 L 237.414062 332.34375 L 243.796875 336.019531 C 244.730469 335.742188 245.652344 335.441406 246.585938 335.140625 L 238.496094 330.480469 L 238.496094 311.257812 L 255.15625 301.671875 L 271.816406 311.257812 L 271.816406 325.007812 C 272.539062 324.644531 273.257812 324.28125 273.976562 323.917969 L 273.976562 311.257812 L 290.644531 301.671875 L 300.417969 307.304688 C 301.042969 306.835938 301.640625 306.351562 302.242188 305.871094 L 291.71875 299.808594 L 291.71875 280.609375 L 308.390625 271 L 319.054688 277.148438 C 319.277344 276.453125 319.492188 275.746094 319.730469 275.050781 L 309.460938 269.136719 L 309.460938 249.914062 L 326.121094 240.316406 L 334.457031 245.125 L 342.792969 249.914062 L 342.792969 253.457031 C 343.554688 253.125 344.273438 252.753906 344.949219 252.3125 L 344.949219 249.914062 L 349.101562 247.527344 C 349.703125 246.453125 350.21875 245.320312 350.648438 244.140625 L 343.867188 248.050781 L 327.207031 238.453125 L 327.207031 219.230469 L 342.707031 210.308594 C 342.40625 209.65625 342.085938 209.003906 341.796875 208.339844 L 326.121094 217.378906 L 309.460938 207.773438 L 309.460938 188.601562 L 326.121094 178.996094 L 332.742188 182.820312 C 332.441406 181.789062 332.128906 180.761719 331.828125 179.734375 L 327.207031 177.058594 L 327.207031 163.144531 C 326.476562 160.53125 325.738281 157.917969 324.976562 155.328125 L 309.460938 146.394531 L 309.460938 127.191406 L 313.398438 124.921875 C 313.066406 124.28125 312.722656 123.648438 312.378906 123.015625 L 308.378906 125.320312 L 291.71875 115.710938 L 291.71875 99.261719 C 291.011719 98.84375 290.292969 98.4375 289.550781 98.042969 L 289.550781 115.710938 L 272.890625 125.320312 L 256.230469 115.710938 L 256.230469 96.5 L 268.074219 89.675781 C 267.152344 89.378906 266.238281 89.078125 265.339844 88.765625 L 255.148438 94.636719 L 238.488281 85.03125 L 238.488281 73.410156 L 238.410156 73.335938 C 237.167969 71.878906 236.589844 69.917969 236.308594 67.980469 L 236.308594 85.019531 L 219.648438 94.625 L 202.988281 85.019531 L 202.988281 65.804688 L 219.648438 56.222656 L 236.179688 65.730469 C 236.265625 65.023438 236.46875 64.296875 236.726562 63.566406 L 220.730469 54.347656 L 220.730469 35.144531 L 234.046875 27.476562 C 233.53125 26.941406 232.898438 26.460938 232.359375 25.945312 L 219.648438 33.269531 L 202.988281 23.675781 L 202.988281 23.183594 C 196.53125 27.992188 189.996094 32.425781 183.011719 35.125 L 183.089844 35.125 L 183.089844 54.273438 L 166.429688 63.878906 L 149.765625 54.273438 L 149.765625 35.070312 L 155.089844 31.996094 C 154.445312 31.546875 153.800781 31.097656 153.148438 30.625 L 148.683594 33.195312 L 132.023438 23.601562 L 132.023438 18.75 C 131.390625 18.664062 130.746094 18.628906 130.101562 18.652344 Z M 130.949219 25.527344 L 147.609375 35.125 L 147.609375 54.324219 L 130.949219 63.933594 L 114.289062 54.324219 L 114.289062 35.125 Z M 201.925781 25.601562 L 218.585938 35.207031 L 218.585938 54.410156 L 201.925781 64.007812 L 185.265625 54.410156 L 185.265625 35.207031 Z M 148.695312 56.230469 L 165.355469 65.828125 L 165.355469 85.039062 L 148.695312 94.636719 L 132.035156 85.039062 L 132.035156 65.828125 Z M 184.171875 56.316406 L 200.84375 65.914062 L 200.84375 85.136719 L 184.191406 94.722656 L 167.523438 85.117188 L 167.523438 65.914062 Z M 95.464844 86.945312 L 103.789062 91.746094 L 112.125 96.554688 L 112.125 115.765625 L 95.464844 125.363281 L 78.792969 115.765625 L 78.792969 96.554688 Z M 130.949219 86.945312 L 139.277344 91.746094 L 147.609375 96.554688 L 147.609375 115.765625 L 130.949219 125.363281 L 114.289062 115.765625 L 114.289062 96.554688 Z M 166.363281 87.023438 L 183.097656 96.671875 L 183.097656 115.796875 L 166.429688 125.40625 L 149.765625 115.796875 L 149.765625 96.585938 Z M 201.925781 87.023438 L 210.25 91.820312 L 218.585938 96.628906 L 218.585938 115.839844 L 201.925781 125.449219 L 185.265625 115.839844 L 185.265625 96.628906 L 193.601562 91.820312 Z M 237.414062 87.023438 L 245.738281 91.820312 L 254.074219 96.628906 L 254.074219 115.839844 L 237.414062 125.449219 L 220.753906 115.839844 L 220.753906 96.628906 Z M 42.230469 117.671875 L 58.890625 127.277344 L 58.890625 146.480469 L 42.230469 156.078125 L 25.570312 146.480469 L 25.570312 127.277344 Z M 77.71875 117.671875 L 94.378906 127.277344 L 94.378906 146.480469 L 77.71875 156.078125 L 61.058594 146.480469 L 61.058594 127.277344 Z M 113.207031 117.671875 L 129.867188 127.277344 L 129.867188 146.480469 L 113.207031 156.078125 L 96.546875 146.480469 L 96.546875 127.277344 Z M 148.695312 117.671875 L 165.355469 127.277344 L 165.355469 146.480469 L 148.695312 156.078125 L 132.035156 146.480469 L 132.035156 127.277344 Z M 184.183594 117.746094 L 200.84375 127.34375 L 200.84375 146.546875 L 184.183594 156.152344 L 167.523438 146.546875 L 167.523438 127.34375 Z M 219.671875 117.746094 L 236.332031 127.34375 L 236.332031 146.546875 L 219.671875 156.152344 L 203.011719 146.546875 L 203.011719 127.34375 Z M 255.15625 117.746094 L 271.816406 127.34375 L 271.816406 146.546875 L 255.15625 156.152344 L 238.496094 146.546875 L 238.496094 127.34375 Z M 290.644531 117.746094 L 307.304688 127.34375 L 307.304688 146.546875 L 290.644531 156.152344 L 273.984375 146.546875 L 273.984375 127.34375 Z M 59.976562 148.375 L 76.636719 157.960938 L 76.636719 177.183594 L 59.976562 186.78125 L 43.316406 177.183594 L 43.316406 157.960938 Z M 95.464844 148.375 L 112.125 157.960938 L 112.125 177.183594 L 95.464844 186.78125 L 78.792969 177.183594 L 78.792969 157.960938 Z M 130.949219 148.375 L 147.609375 157.960938 L 147.609375 177.183594 L 130.949219 186.78125 L 114.289062 177.183594 L 114.289062 157.960938 Z M 201.925781 148.460938 L 218.585938 158.046875 L 218.585938 177.261719 L 201.925781 186.867188 L 185.265625 177.261719 L 185.265625 158.046875 Z M 237.414062 148.460938 L 254.074219 158.046875 L 254.074219 177.261719 L 237.414062 186.867188 L 220.753906 177.261719 L 220.753906 158.046875 Z M 272.902344 148.460938 L 289.5625 158.046875 L 289.5625 177.261719 L 272.902344 186.867188 L 256.242188 177.261719 L 256.242188 158.046875 Z M 308.378906 148.460938 L 325.050781 158.046875 L 325.050781 177.261719 L 308.378906 186.867188 L 291.730469 177.261719 L 291.730469 158.046875 Z M 166.351562 148.460938 L 183.078125 158.089844 L 183.078125 177.226562 L 166.417969 186.835938 L 149.757812 177.226562 L 149.757812 158.015625 Z M 77.71875 179.15625 L 94.378906 188.761719 L 94.378906 207.933594 L 77.71875 217.527344 L 61.058594 207.933594 L 61.058594 188.761719 Z M 113.207031 179.15625 L 129.867188 188.761719 L 129.867188 207.933594 L 113.207031 217.527344 L 96.546875 207.933594 L 96.546875 188.761719 Z M 148.695312 179.15625 L 165.355469 188.761719 L 165.355469 207.933594 L 148.695312 217.527344 L 132.035156 207.933594 L 132.035156 188.761719 Z M 184.171875 179.15625 L 200.84375 188.773438 L 200.84375 207.941406 L 184.214844 217.527344 L 167.523438 207.921875 L 167.523438 188.742188 Z M 219.671875 179.15625 L 236.332031 188.761719 L 236.332031 207.933594 L 219.671875 217.527344 L 203.011719 207.933594 L 203.011719 188.761719 Z M 255.15625 179.15625 L 271.816406 188.761719 L 271.816406 207.933594 L 255.15625 217.527344 L 238.496094 207.933594 L 238.496094 188.761719 Z M 290.644531 179.15625 L 307.304688 188.761719 L 307.304688 207.933594 L 290.644531 217.527344 L 273.984375 207.933594 L 273.984375 188.761719 Z M 59.976562 209.765625 L 76.636719 219.347656 L 76.636719 238.5625 L 59.976562 248.167969 L 43.316406 238.5625 L 43.316406 219.347656 Z M 95.464844 209.765625 L 112.125 219.347656 L 112.125 238.5625 L 95.464844 248.167969 L 78.800781 238.5625 L 78.800781 219.347656 Z M 130.949219 209.765625 L 147.609375 219.347656 L 147.609375 238.5625 L 130.949219 248.167969 L 114.289062 238.5625 L 114.289062 219.347656 Z M 166.394531 209.765625 L 183.089844 219.371094 L 183.089844 238.550781 L 166.429688 248.148438 L 149.757812 238.550781 L 149.757812 219.339844 Z M 201.925781 209.765625 L 218.585938 219.347656 L 218.585938 238.5625 L 201.925781 248.167969 L 185.265625 238.5625 L 185.265625 219.347656 Z M 237.414062 209.765625 L 254.074219 219.347656 L 254.074219 238.5625 L 237.414062 248.167969 L 220.753906 238.5625 L 220.753906 219.347656 Z M 272.902344 209.765625 L 289.5625 219.347656 L 289.5625 238.5625 L 272.902344 248.167969 L 256.242188 238.5625 L 256.242188 219.347656 Z M 308.390625 209.765625 L 325.050781 219.347656 L 325.050781 238.5625 L 308.390625 248.167969 L 291.730469 238.5625 L 291.730469 219.347656 Z M 42.230469 240.394531 L 50.566406 245.203125 L 58.890625 249.988281 L 58.890625 269.210938 L 42.230469 278.808594 L 25.570312 269.210938 L 25.570312 249.988281 Z M 77.71875 240.394531 L 86.054688 245.203125 L 94.378906 249.988281 L 94.378906 269.210938 L 77.71875 278.808594 L 61.058594 269.210938 L 61.058594 249.988281 Z M 113.207031 240.394531 L 121.542969 245.203125 L 129.867188 249.988281 L 129.867188 269.210938 L 113.207031 278.808594 L 96.546875 269.210938 L 96.546875 249.988281 Z M 148.695312 240.394531 L 157.03125 245.203125 L 165.355469 249.988281 L 165.355469 269.210938 L 148.695312 278.808594 L 132.035156 269.210938 L 132.035156 249.988281 Z M 184.183594 240.46875 L 192.519531 245.277344 L 200.84375 250.0625 L 200.84375 269.289062 L 184.191406 278.882812 L 167.523438 269.265625 L 167.523438 250.0625 Z M 219.671875 240.46875 L 228.003906 245.277344 L 236.332031 250.0625 L 236.332031 269.289062 L 219.671875 278.882812 L 203.011719 269.289062 L 203.011719 250.0625 Z M 255.15625 240.46875 L 263.492188 245.277344 L 271.816406 250.0625 L 271.816406 269.289062 L 255.15625 278.882812 L 238.496094 269.289062 L 238.496094 250.0625 Z M 290.644531 240.46875 L 298.980469 245.277344 L 307.304688 250.0625 L 307.304688 269.289062 L 290.644531 278.882812 L 273.984375 269.289062 L 273.984375 250.0625 Z M 130.949219 271.117188 L 147.609375 280.714844 L 147.609375 299.917969 L 130.949219 309.511719 L 114.289062 299.917969 L 114.289062 280.714844 Z M 166.386719 271.117188 L 183.097656 280.734375 L 183.097656 299.886719 L 166.4375 309.480469 L 149.777344 299.886719 L 149.777344 280.683594 Z M 201.925781 271.117188 L 218.585938 280.726562 L 218.585938 299.925781 L 201.925781 309.523438 L 185.265625 299.925781 L 185.265625 280.726562 Z M 237.414062 271.117188 L 254.074219 280.726562 L 254.074219 299.925781 L 237.414062 309.523438 L 220.753906 299.925781 L 220.753906 280.726562 Z M 272.902344 271.117188 L 289.5625 280.726562 L 289.5625 299.925781 L 272.902344 309.523438 L 256.242188 299.925781 L 256.242188 280.726562 Z M 148.695312 301.757812 L 165.355469 311.34375 L 165.355469 330.558594 L 148.695312 340.152344 L 132.035156 330.558594 L 132.035156 311.34375 Z M 184.171875 301.832031 L 200.84375 311.429688 L 200.84375 330.644531 L 184.191406 340.25 L 167.523438 330.632812 L 167.523438 311.429688 Z M 219.671875 301.832031 L 236.332031 311.417969 L 236.332031 330.632812 L 219.671875 340.238281 L 203.011719 330.632812 L 203.011719 311.417969 Z M 219.671875 301.832031 " fill-opacity="1" fill-rule="nonzero"/></g></g></g></g></g><g clip-path="url(#41cd9d9298)"><g mask="url(#ad93759edc)"><g transform="matrix(1, 0, 0, 1, 0, 467)"><g clip-path="url(#735890fb98)"><g clip-path="url(#53e2a0ec63)"><path fill="#bd9d94" d="M 148.867188 0.769531 C 148.394531 0.769531 147.921875 0.769531 147.472656 0.84375 C 145.949219 1.015625 144.46875 1.292969 143 1.636719 L 141.207031 2.664062 L 140.554688 2.289062 C 139.628906 2.578125 138.71875 2.867188 137.816406 3.210938 L 140.125 4.539062 L 140.125 17.859375 C 140.863281 17.335938 141.582031 16.824219 142.289062 16.285156 L 142.289062 4.539062 Z M 33.9375 18.761719 C 33.863281 18.761719 33.777344 18.761719 33.703125 18.761719 L 33.703125 23.699219 L 17.042969 33.292969 L 14.703125 31.945312 C 14.296875 32.535156 13.898438 33.144531 13.511719 33.753906 L 15.960938 35.167969 L 15.960938 54.371094 L 7.300781 59.359375 C 7.421875 60.132812 7.527344 60.890625 7.625 61.652344 L 17.042969 56.234375 L 33.703125 65.828125 L 33.703125 85.042969 L 17.042969 94.636719 L 0.382812 85.042969 L 0.382812 79.003906 C -0.316406 79.625 -1.042969 80.210938 -1.785156 80.789062 L -1.785156 85.042969 L -18.445312 94.636719 L -24.472656 91.167969 C -25.449219 91.4375 -26.4375 91.691406 -27.425781 91.960938 L -19.527344 96.511719 L -19.527344 115.726562 L -36.1875 125.332031 L -52.847656 115.726562 L -52.847656 97.464844 C -53.578125 97.613281 -54.296875 97.765625 -55.015625 97.925781 L -55.015625 115.726562 L -71.675781 125.332031 L -88.335938 115.726562 L -88.335938 111.386719 C -89.085938 112.0625 -89.816406 112.757812 -90.503906 113.488281 L -90.503906 115.726562 L -93.691406 117.566406 C -94.417969 118.714844 -95.085938 119.914062 -95.664062 121.199219 L -89.421875 117.597656 L -72.761719 127.195312 L -72.761719 146.398438 L -86.203125 154.140625 C -85.742188 154.707031 -85.289062 155.277344 -84.839844 155.84375 L -71.675781 148.269531 L -55.015625 157.855469 L -55.015625 177.070312 L -66.078125 183.441406 C -65.59375 184.03125 -65.101562 184.609375 -64.671875 185.199219 L -53.933594 179.007812 L -37.273438 188.613281 L -37.273438 207.785156 L -53.933594 217.390625 L -63.726562 211.734375 C -63.296875 212.785156 -62.902344 213.835938 -62.632812 214.863281 L -55.015625 219.242188 L -55.015625 238.457031 L -71.675781 248.0625 L -78.039062 244.390625 C -79.109375 244.59375 -80.171875 244.816406 -81.214844 245.054688 L -81.085938 245.140625 L -72.761719 249.925781 L -72.761719 269.140625 L -79.164062 272.84375 C -78.328125 273.175781 -77.46875 273.519531 -76.578125 273.839844 L -71.675781 271.011719 L -58.214844 278.777344 C -56.152344 279.226562 -54.09375 279.675781 -52 280.128906 L -36.1875 271.011719 L -19.527344 280.621094 L -19.527344 289.832031 C -18.789062 290.207031 -18.070312 290.601562 -17.359375 291.007812 L -17.359375 280.621094 L -0.699219 271.011719 L 15.960938 280.621094 L 15.960938 299.8125 L -0.699219 309.417969 L -1.710938 308.839844 C -0.9375 310.660156 -0.25 312.554688 0.382812 314.496094 L 0.382812 311.28125 L 17.042969 301.6875 L 33.703125 311.28125 L 33.703125 330.496094 L 17.042969 340.089844 L 5.222656 333.277344 C 5.457031 334.265625 5.703125 335.226562 5.949219 336.191406 L 7.625 337.15625 L 15.960938 341.964844 L 15.960938 358.597656 C 16.625 359.3125 17.355469 359.976562 18.125 360.597656 L 18.125 341.964844 L 34.785156 332.359375 L 43.113281 337.15625 L 51.445312 341.964844 L 51.445312 352.289062 C 52.164062 351.65625 52.882812 351.023438 53.601562 350.394531 L 53.601562 341.964844 L 70.199219 332.402344 L 86.933594 342.050781 L 86.933594 343.558594 C 87.652344 343.644531 88.371094 343.65625 89.101562 343.6875 L 89.101562 341.996094 L 97.4375 337.199219 L 105.761719 332.402344 L 114.085938 337.199219 L 122.15625 341.847656 C 123.410156 341.652344 124.675781 341.441406 125.941406 341.226562 L 141.25 332.402344 L 147.632812 336.074219 C 148.566406 335.796875 149.488281 335.496094 150.421875 335.195312 L 142.332031 330.539062 L 142.332031 311.3125 L 158.992188 301.730469 L 175.65625 311.3125 L 175.65625 325.066406 C 176.375 324.699219 177.09375 324.335938 177.8125 323.972656 L 177.8125 311.3125 L 194.480469 301.730469 L 204.253906 307.363281 C 204.878906 306.890625 205.476562 306.410156 206.078125 305.925781 L 195.554688 299.863281 L 195.554688 280.664062 L 212.226562 271.054688 L 222.890625 277.203125 C 223.113281 276.507812 223.328125 275.800781 223.566406 275.105469 L 213.296875 269.191406 L 213.296875 249.96875 L 229.957031 240.375 L 238.292969 245.183594 L 246.628906 249.96875 L 246.628906 253.515625 C 247.390625 253.183594 248.109375 252.808594 248.785156 252.367188 L 248.785156 249.96875 L 252.9375 247.582031 C 253.539062 246.511719 254.054688 245.375 254.484375 244.195312 L 247.703125 248.105469 L 231.042969 238.511719 L 231.042969 219.285156 L 246.542969 210.367188 C 246.242188 209.710938 245.921875 209.058594 245.632812 208.394531 L 229.957031 217.433594 L 213.296875 207.828125 L 213.296875 188.65625 L 229.957031 179.050781 L 236.578125 182.875 C 236.277344 181.847656 235.964844 180.816406 235.664062 179.789062 L 231.042969 177.113281 L 231.042969 163.199219 C 230.3125 160.585938 229.574219 157.972656 228.8125 155.382812 L 213.296875 146.449219 L 213.296875 127.25 L 217.234375 124.976562 C 216.902344 124.335938 216.558594 123.703125 216.214844 123.070312 L 212.214844 125.375 L 195.554688 115.769531 L 195.554688 99.316406 C 194.847656 98.898438 194.128906 98.492188 193.386719 98.097656 L 193.386719 115.769531 L 176.726562 125.375 L 160.066406 115.769531 L 160.066406 96.554688 L 171.910156 89.734375 C 170.988281 89.433594 170.074219 89.132812 169.175781 88.824219 L 158.984375 94.691406 L 142.324219 85.085938 L 142.324219 73.464844 L 142.246094 73.390625 C 141.003906 71.933594 140.425781 69.972656 140.144531 68.035156 L 140.144531 85.074219 L 123.484375 94.679688 L 106.824219 85.074219 L 106.824219 65.863281 L 123.484375 56.277344 L 140.015625 65.785156 C 140.101562 65.078125 140.304688 64.351562 140.5625 63.625 L 124.566406 54.402344 L 124.566406 35.199219 L 137.882812 27.53125 C 137.367188 26.996094 136.734375 26.515625 136.199219 26 L 123.484375 33.324219 L 106.824219 23.730469 L 106.824219 23.238281 C 100.367188 28.046875 93.832031 32.480469 86.847656 35.179688 L 86.925781 35.179688 L 86.925781 54.328125 L 70.265625 63.933594 L 53.601562 54.328125 L 53.601562 35.125 L 58.925781 32.050781 C 58.28125 31.601562 57.636719 31.152344 56.984375 30.679688 L 52.519531 33.25 L 35.859375 23.65625 L 35.859375 18.804688 C 35.226562 18.71875 34.582031 18.6875 33.9375 18.707031 Z M 34.785156 25.582031 L 51.445312 35.179688 L 51.445312 54.378906 L 34.785156 63.988281 L 18.125 54.378906 L 18.125 35.179688 Z M 105.761719 25.65625 L 122.421875 35.265625 L 122.421875 54.464844 L 105.761719 64.0625 L 89.101562 54.464844 L 89.101562 35.265625 Z M 52.53125 56.285156 L 69.191406 65.882812 L 69.191406 85.097656 L 52.53125 94.691406 L 35.871094 85.097656 L 35.871094 65.882812 Z M 88.007812 56.371094 L 104.679688 65.96875 L 104.679688 85.191406 L 88.027344 94.777344 L 71.359375 85.171875 L 71.359375 65.96875 Z M -0.699219 87.003906 L 7.625 91.800781 L 15.960938 96.609375 L 15.960938 115.820312 L -0.699219 125.417969 L -17.371094 115.820312 L -17.371094 96.609375 Z M 34.785156 87.003906 L 43.113281 91.800781 L 51.445312 96.609375 L 51.445312 115.820312 L 34.785156 125.417969 L 18.125 115.820312 L 18.125 96.609375 Z M 70.199219 87.078125 L 86.933594 96.726562 L 86.933594 115.855469 L 70.265625 125.460938 L 53.601562 115.855469 L 53.601562 96.640625 Z M 105.761719 87.078125 L 114.085938 91.875 L 122.421875 96.683594 L 122.421875 115.894531 L 105.761719 125.503906 L 89.101562 115.894531 L 89.101562 96.683594 L 97.4375 91.875 Z M 141.25 87.078125 L 149.574219 91.875 L 157.910156 96.683594 L 157.910156 115.894531 L 141.25 125.503906 L 124.589844 115.894531 L 124.589844 96.683594 Z M -53.933594 117.726562 L -37.273438 127.335938 L -37.273438 146.535156 L -53.933594 156.132812 L -70.59375 146.535156 L -70.59375 127.335938 Z M -18.445312 117.726562 L -1.785156 127.335938 L -1.785156 146.535156 L -18.445312 156.132812 L -35.105469 146.535156 L -35.105469 127.335938 Z M 17.042969 117.726562 L 33.703125 127.335938 L 33.703125 146.535156 L 17.042969 156.132812 L 0.382812 146.535156 L 0.382812 127.335938 Z M 52.53125 117.726562 L 69.191406 127.335938 L 69.191406 146.535156 L 52.53125 156.132812 L 35.871094 146.535156 L 35.871094 127.335938 Z M 88.019531 117.800781 L 104.679688 127.398438 L 104.679688 146.601562 L 88.019531 156.207031 L 71.359375 146.601562 L 71.359375 127.398438 Z M 123.507812 117.800781 L 140.167969 127.398438 L 140.167969 146.601562 L 123.507812 156.207031 L 106.847656 146.601562 L 106.847656 127.398438 Z M 158.992188 117.800781 L 175.65625 127.398438 L 175.65625 146.601562 L 158.992188 156.207031 L 142.332031 146.601562 L 142.332031 127.398438 Z M 194.480469 117.800781 L 211.140625 127.398438 L 211.140625 146.601562 L 194.480469 156.207031 L 177.820312 146.601562 L 177.820312 127.398438 Z M -36.1875 148.433594 L -19.527344 158.015625 L -19.527344 177.242188 L -36.1875 186.835938 L -52.847656 177.242188 L -52.847656 158.015625 Z M -0.699219 148.433594 L 15.960938 158.015625 L 15.960938 177.242188 L -0.699219 186.835938 L -17.371094 177.242188 L -17.371094 158.015625 Z M 34.785156 148.433594 L 51.445312 158.015625 L 51.445312 177.242188 L 34.785156 186.835938 L 18.125 177.242188 L 18.125 158.015625 Z M 105.761719 148.519531 L 122.421875 158.101562 L 122.421875 177.316406 L 105.761719 186.921875 L 89.101562 177.316406 L 89.101562 158.101562 Z M 141.25 148.519531 L 157.910156 158.101562 L 157.910156 177.316406 L 141.25 186.921875 L 124.589844 177.316406 L 124.589844 158.101562 Z M 176.738281 148.519531 L 193.398438 158.101562 L 193.398438 177.316406 L 176.738281 186.921875 L 160.078125 177.316406 L 160.078125 158.101562 Z M 212.214844 148.519531 L 228.886719 158.101562 L 228.886719 177.316406 L 212.214844 186.921875 L 195.566406 177.316406 L 195.566406 158.101562 Z M 70.1875 148.519531 L 86.914062 158.144531 L 86.914062 177.285156 L 70.253906 186.890625 L 53.59375 177.285156 L 53.59375 158.070312 Z M -18.445312 179.210938 L -1.785156 188.816406 L -1.785156 207.988281 L -18.445312 217.582031 L -35.105469 207.988281 L -35.105469 188.816406 Z M 17.042969 179.210938 L 33.703125 188.816406 L 33.703125 207.988281 L 17.042969 217.582031 L 0.382812 207.988281 L 0.382812 188.816406 Z M 52.53125 179.210938 L 69.191406 188.816406 L 69.191406 207.988281 L 52.53125 217.582031 L 35.871094 207.988281 L 35.871094 188.816406 Z M 88.007812 179.210938 L 104.679688 188.828125 L 104.679688 208 L 88.050781 217.582031 L 71.359375 207.976562 L 71.359375 188.796875 Z M 123.507812 179.210938 L 140.167969 188.816406 L 140.167969 207.988281 L 123.507812 217.582031 L 106.847656 207.988281 L 106.847656 188.816406 Z M 158.992188 179.210938 L 175.65625 188.816406 L 175.65625 207.988281 L 158.992188 217.582031 L 142.332031 207.988281 L 142.332031 188.816406 Z M 194.480469 179.210938 L 211.140625 188.816406 L 211.140625 207.988281 L 194.480469 217.582031 L 177.820312 207.988281 L 177.820312 188.816406 Z M -36.1875 209.820312 L -19.527344 219.402344 L -19.527344 238.617188 L -36.1875 248.222656 L -52.847656 238.617188 L -52.847656 219.402344 Z M -0.699219 209.820312 L 15.960938 219.402344 L 15.960938 238.617188 L -0.699219 248.222656 L -17.359375 238.617188 L -17.359375 219.402344 Z M 34.785156 209.820312 L 51.445312 219.402344 L 51.445312 238.617188 L 34.785156 248.222656 L 18.125 238.617188 L 18.125 219.402344 Z M 70.230469 209.820312 L 86.925781 219.425781 L 86.925781 238.605469 L 70.265625 248.203125 L 53.59375 238.605469 L 53.59375 219.394531 Z M 105.761719 209.820312 L 122.421875 219.402344 L 122.421875 238.617188 L 105.761719 248.222656 L 89.101562 238.617188 L 89.101562 219.402344 Z M 141.25 209.820312 L 157.910156 219.402344 L 157.910156 238.617188 L 141.25 248.222656 L 124.589844 238.617188 L 124.589844 219.402344 Z M 176.738281 209.820312 L 193.398438 219.402344 L 193.398438 238.617188 L 176.738281 248.222656 L 160.078125 238.617188 L 160.078125 219.402344 Z M 212.226562 209.820312 L 228.886719 219.402344 L 228.886719 238.617188 L 212.226562 248.222656 L 195.566406 238.617188 L 195.566406 219.402344 Z M -53.933594 240.449219 L -45.597656 245.257812 L -37.273438 250.042969 L -37.273438 269.269531 L -53.933594 278.863281 L -70.59375 269.269531 L -70.59375 250.042969 Z M -18.445312 240.449219 L -10.109375 245.257812 L -1.785156 250.042969 L -1.785156 269.269531 L -18.445312 278.863281 L -35.105469 269.269531 L -35.105469 250.042969 Z M 17.042969 240.449219 L 25.378906 245.257812 L 33.703125 250.042969 L 33.703125 269.269531 L 17.042969 278.863281 L 0.382812 269.269531 L 0.382812 250.042969 Z M 52.53125 240.449219 L 60.867188 245.257812 L 69.191406 250.042969 L 69.191406 269.269531 L 52.53125 278.863281 L 35.871094 269.269531 L 35.871094 250.042969 Z M 88.019531 240.523438 L 96.355469 245.332031 L 104.679688 250.121094 L 104.679688 269.34375 L 88.027344 278.9375 L 71.359375 269.320312 L 71.359375 250.121094 Z M 123.507812 240.523438 L 131.839844 245.332031 L 140.167969 250.121094 L 140.167969 269.34375 L 123.507812 278.9375 L 106.847656 269.34375 L 106.847656 250.121094 Z M 158.992188 240.523438 L 167.328125 245.332031 L 175.65625 250.121094 L 175.65625 269.34375 L 158.992188 278.9375 L 142.332031 269.34375 L 142.332031 250.121094 Z M 194.480469 240.523438 L 202.816406 245.332031 L 211.140625 250.121094 L 211.140625 269.34375 L 194.480469 278.9375 L 177.820312 269.34375 L 177.820312 250.121094 Z M 34.785156 271.175781 L 51.445312 280.769531 L 51.445312 299.972656 L 34.785156 309.566406 L 18.125 299.972656 L 18.125 280.769531 Z M 70.222656 271.175781 L 86.933594 280.792969 L 86.933594 299.941406 L 70.273438 309.535156 L 53.613281 299.941406 L 53.613281 280.738281 Z M 105.761719 271.175781 L 122.421875 280.78125 L 122.421875 299.984375 L 105.761719 309.578125 L 89.101562 299.984375 L 89.101562 280.78125 Z M 141.25 271.175781 L 157.910156 280.78125 L 157.910156 299.984375 L 141.25 309.578125 L 124.589844 299.984375 L 124.589844 280.78125 Z M 176.738281 271.175781 L 193.398438 280.78125 L 193.398438 299.984375 L 176.738281 309.578125 L 160.078125 299.984375 L 160.078125 280.78125 Z M 52.53125 301.8125 L 69.191406 311.398438 L 69.191406 330.613281 L 52.53125 340.207031 L 35.871094 330.613281 L 35.871094 311.398438 Z M 88.007812 301.890625 L 104.679688 311.484375 L 104.679688 330.699219 L 88.027344 340.304688 L 71.359375 330.6875 L 71.359375 311.484375 Z M 123.507812 301.890625 L 140.167969 311.472656 L 140.167969 330.6875 L 123.507812 340.292969 L 106.847656 330.6875 L 106.847656 311.472656 Z M 123.507812 301.890625 " fill-opacity="1" fill-rule="nonzero"/></g></g></g></g></g><g mask="url(#2ce15780e8)"><g transform="matrix(1, 0, 0, 1, 73, 138)"><g clip-path="url(#e50bff3b61)"><g clip-path="url(#dbab94671f)"><path fill="#ffffff" d="M 23.566406 2.804688 L 20.175781 4.121094 L 40.882812 58.117188 L 44.273438 56.800781 C 59.101562 51.054688 66.488281 34.308594 60.773438 19.394531 C 55.054688 4.484375 38.394531 -2.945312 23.566406 2.804688 " fill-opacity="1" fill-rule="nonzero"/></g><g clip-path="url(#5e19f92210)"><path fill="#bd9d94" d="M 56.203125 21.167969 C 61.917969 36.078125 54.535156 52.824219 39.703125 58.574219 C 24.875 64.324219 8.21875 56.898438 2.5 41.988281 C -3.21875 27.078125 4.167969 10.328125 18.996094 4.578125 C 33.828125 -1.171875 50.484375 6.257812 56.203125 21.167969 " fill-opacity="1" fill-rule="nonzero"/></g><path fill="#ffffff" d="M 35.007812 41.488281 C 36.007812 40.871094 36.691406 40.03125 37.058594 38.964844 C 37.425781 37.902344 37.40625 36.828125 36.988281 35.746094 C 36.617188 34.777344 36.015625 34.050781 35.175781 33.570312 C 34.339844 33.089844 33.207031 32.910156 31.769531 33.039062 Z M 23.046875 19.652344 C 22.308594 20.265625 21.820312 21.019531 21.585938 21.90625 C 21.347656 22.792969 21.386719 23.660156 21.710938 24.496094 C 22.003906 25.265625 22.507812 25.882812 23.21875 26.363281 C 23.929688 26.839844 24.832031 27.105469 25.917969 27.144531 Z M 31.769531 42.398438 L 28.289062 33.320312 C 25.160156 33.601562 22.628906 33.179688 20.683594 32.050781 C 18.742188 30.917969 17.320312 29.183594 16.425781 26.84375 C 15.515625 24.476562 15.496094 22.199219 16.367188 20.011719 C 17.234375 17.828125 18.859375 16.128906 21.234375 14.925781 L 20.410156 12.78125 L 23.535156 11.570312 L 24.359375 13.714844 C 26.746094 13.105469 28.863281 13.183594 30.710938 13.953125 C 32.558594 14.726562 34.082031 16.113281 35.285156 18.140625 L 30.109375 20.96875 C 29.125 19.390625 27.816406 18.570312 26.195312 18.503906 L 29.445312 26.972656 C 33.25 26.578125 36.066406 26.882812 37.886719 27.894531 C 39.710938 28.902344 41.070312 30.578125 41.96875 32.917969 C 42.96875 35.535156 43.027344 38.039062 42.144531 40.4375 C 41.257812 42.84375 39.488281 44.785156 36.847656 46.277344 L 38.398438 50.332031 L 35.273438 51.539062 L 33.765625 47.597656 C 31.160156 48.257812 28.785156 48.109375 26.636719 47.152344 C 24.488281 46.191406 22.652344 44.371094 21.128906 41.695312 L 26.519531 38.910156 C 27.191406 39.972656 28.003906 40.800781 28.960938 41.398438 C 29.910156 41.988281 30.847656 42.320312 31.769531 42.398438 " fill-opacity="1" fill-rule="nonzero"/><path fill="#bd9d94" d="M 33.589844 2.433594 C 32.855469 2.347656 32.121094 2.285156 31.378906 2.261719 L 34.085938 1.210938 C 34.882812 1.210938 35.679688 1.238281 36.46875 1.308594 L 36.4375 1.328125 L 33.589844 2.433594 " fill-opacity="1" fill-rule="nonzero"/><path fill="#bd9d94" d="M 36.730469 2.964844 C 36.144531 2.828125 35.554688 2.722656 34.960938 2.625 L 37.925781 1.472656 C 38.417969 1.539062 38.90625 1.621094 39.394531 1.71875 C 39.355469 1.859375 39.261719 1.980469 39.113281 2.039062 L 36.730469 2.964844 " fill-opacity="1" fill-rule="nonzero"/><path fill="#bd9d94" d="M 26.050781 2.574219 L 27.640625 1.960938 C 29.105469 1.613281 30.578125 1.386719 32.046875 1.28125 L 29.523438 2.261719 C 28.367188 2.292969 27.210938 2.398438 26.050781 2.574219 " fill-opacity="1" fill-rule="nonzero"/><path fill="#bd9d94" d="M 39.351562 3.699219 C 38.855469 3.535156 38.355469 3.386719 37.855469 3.25 L 40.925781 2.058594 C 41.3125 2.15625 41.703125 2.257812 42.085938 2.375 C 42.058594 2.539062 41.957031 2.6875 41.792969 2.75 L 39.351562 3.699219 " fill-opacity="1" fill-rule="nonzero"/><path fill="#bd9d94" d="M 41.625 4.5625 C 41.195312 4.378906 40.757812 4.207031 40.320312 4.042969 L 43.46875 2.824219 C 43.875 2.96875 44.28125 3.121094 44.683594 3.28125 C 44.632812 3.359375 44.5625 3.425781 44.46875 3.460938 L 41.625 4.5625 " fill-opacity="1" fill-rule="nonzero"/><path fill="#bd9d94" d="M 43.65625 5.527344 C 43.273438 5.328125 42.882812 5.136719 42.488281 4.949219 L 45.691406 3.710938 C 46.089844 3.886719 46.484375 4.078125 46.878906 4.277344 L 43.65625 5.527344 " fill-opacity="1" fill-rule="nonzero"/><path fill="#bd9d94" d="M 45.484375 6.566406 C 45.140625 6.351562 44.792969 6.144531 44.4375 5.945312 L 47.660156 4.695312 C 48.019531 4.890625 48.375 5.097656 48.726562 5.308594 L 45.484375 6.566406 " fill-opacity="1" fill-rule="nonzero"/><path fill="#bd9d94" d="M 47.136719 7.679688 C 46.824219 7.449219 46.503906 7.234375 46.183594 7.019531 L 49.441406 5.757812 C 49.769531 5.96875 50.09375 6.183594 50.414062 6.40625 L 47.136719 7.679688 " fill-opacity="1" fill-rule="nonzero"/><path fill="#bd9d94" d="M 48.644531 8.839844 C 48.359375 8.605469 48.074219 8.375 47.777344 8.148438 L 51.054688 6.878906 C 51.351562 7.101562 51.644531 7.332031 51.933594 7.566406 L 48.644531 8.839844 " fill-opacity="1" fill-rule="nonzero"/><path fill="#bd9d94" d="M 50.03125 10.054688 C 49.769531 9.808594 49.5 9.570312 49.230469 9.335938 L 52.53125 8.054688 C 52.800781 8.289062 53.066406 8.53125 53.332031 8.773438 L 50.03125 10.054688 " fill-opacity="1" fill-rule="nonzero"/><path fill="#bd9d94" d="M 51.289062 11.316406 C 51.050781 11.0625 50.804688 10.816406 50.558594 10.570312 L 53.863281 9.289062 C 54.117188 9.53125 54.363281 9.777344 54.605469 10.03125 L 51.289062 11.316406 " fill-opacity="1" fill-rule="nonzero"/><path fill="#bd9d94" d="M 59.09375 32.828125 C 59.113281 32.480469 59.128906 32.132812 59.136719 31.78125 L 62.453125 30.496094 C 62.445312 30.847656 62.421875 31.199219 62.402344 31.546875 L 59.09375 32.828125 " fill-opacity="1" fill-rule="nonzero"/><path fill="#bd9d94" d="M 58.9375 34.640625 C 58.980469 34.28125 59.019531 33.925781 59.050781 33.566406 L 62.347656 32.289062 C 62.316406 32.648438 62.28125 33.003906 62.234375 33.363281 L 58.9375 34.640625 " fill-opacity="1" fill-rule="nonzero"/><path fill="#bd9d94" d="M 58.652344 36.5 C 58.71875 36.132812 58.777344 35.769531 58.832031 35.402344 L 62.117188 34.125 C 62.0625 34.496094 62 34.863281 61.925781 35.230469 L 58.652344 36.5 " fill-opacity="1" fill-rule="nonzero"/><path fill="#bd9d94" d="M 58.222656 38.414062 C 58.320312 38.039062 58.410156 37.664062 58.492188 37.285156 L 61.765625 36.011719 C 61.679688 36.394531 61.582031 36.773438 61.480469 37.152344 L 58.222656 38.414062 " fill-opacity="1" fill-rule="nonzero"/><path fill="#bd9d94" d="M 57.648438 40.390625 C 57.773438 40.003906 57.894531 39.609375 58.003906 39.222656 L 61.25 37.964844 C 61.132812 38.355469 61.003906 38.75 60.871094 39.140625 L 57.648438 40.390625 " fill-opacity="1" fill-rule="nonzero"/><path fill="#bd9d94" d="M 58.328125 24.378906 C 58.25 24.0625 58.179688 23.753906 58.09375 23.441406 L 61.433594 22.144531 C 61.519531 22.457031 61.59375 22.769531 61.671875 23.082031 L 58.328125 24.378906 " fill-opacity="1" fill-rule="nonzero"/><path fill="#bd9d94" d="M 58.671875 25.992188 C 58.613281 25.675781 58.558594 25.355469 58.488281 25.035156 L 61.828125 23.742188 C 61.894531 24.058594 61.953125 24.378906 62.011719 24.699219 L 58.671875 25.992188 " fill-opacity="1" fill-rule="nonzero"/><path fill="#bd9d94" d="M 57.898438 22.796875 C 57.804688 22.488281 57.710938 22.183594 57.605469 21.878906 L 60.953125 20.582031 C 61.054688 20.886719 61.148438 21.191406 61.238281 21.496094 L 57.898438 22.796875 " fill-opacity="1" fill-rule="nonzero"/><path fill="#bd9d94" d="M 57.382812 21.246094 C 57.324219 21.089844 57.273438 20.929688 57.214844 20.773438 C 57.160156 20.628906 57.097656 20.492188 57.039062 20.347656 L 60.382812 19.054688 C 60.441406 19.195312 60.503906 19.332031 60.558594 19.476562 C 60.621094 19.632812 60.671875 19.792969 60.726562 19.945312 L 57.382812 21.246094 " fill-opacity="1" fill-rule="nonzero"/><path fill="#bd9d94" d="M 56.78125 19.726562 C 56.65625 19.433594 56.523438 19.140625 56.390625 18.851562 L 59.734375 17.554688 C 59.867188 17.84375 60 18.132812 60.128906 18.429688 L 56.78125 19.726562 " fill-opacity="1" fill-rule="nonzero"/><path fill="#bd9d94" d="M 56.101562 18.246094 C 55.957031 17.953125 55.804688 17.671875 55.652344 17.390625 L 58.996094 16.09375 C 59.148438 16.375 59.300781 16.65625 59.445312 16.949219 L 56.101562 18.246094 " fill-opacity="1" fill-rule="nonzero"/><path fill="#bd9d94" d="M 55.332031 16.789062 C 55.171875 16.507812 55 16.230469 54.832031 15.957031 L 58.167969 14.660156 C 58.339844 14.9375 58.511719 15.214844 58.671875 15.496094 L 55.332031 16.789062 " fill-opacity="1" fill-rule="nonzero"/><path fill="#bd9d94" d="M 54.46875 15.378906 C 54.292969 15.101562 54.109375 14.828125 53.921875 14.558594 L 57.253906 13.269531 C 57.441406 13.535156 57.625 13.808594 57.804688 14.082031 L 54.46875 15.378906 " fill-opacity="1" fill-rule="nonzero"/><path fill="#bd9d94" d="M 53.515625 13.996094 C 53.320312 13.730469 53.121094 13.460938 52.917969 13.199219 L 56.242188 11.914062 C 56.449219 12.171875 56.644531 12.4375 56.84375 12.707031 L 53.515625 13.996094 " fill-opacity="1" fill-rule="nonzero"/><path fill="#bd9d94" d="M 52.464844 12.652344 C 52.25 12.390625 52.03125 12.132812 51.804688 11.882812 L 55.121094 10.597656 C 55.347656 10.847656 55.570312 11.105469 55.789062 11.367188 L 52.464844 12.652344 " fill-opacity="1" fill-rule="nonzero"/><path fill="#bd9d94" d="M 58.929688 27.644531 C 58.886719 27.320312 58.839844 26.992188 58.789062 26.667969 L 62.125 25.375 C 62.175781 25.699219 62.222656 26.027344 62.261719 26.351562 L 58.929688 27.644531 " fill-opacity="1" fill-rule="nonzero"/><path fill="#bd9d94" d="M 59.089844 29.332031 C 59.066406 29 59.035156 28.671875 59 28.335938 L 62.332031 27.046875 C 62.363281 27.378906 62.394531 27.710938 62.410156 28.042969 L 59.089844 29.332031 " fill-opacity="1" fill-rule="nonzero"/><path fill="#bd9d94" d="M 59.140625 31.058594 C 59.140625 30.722656 59.132812 30.382812 59.117188 30.042969 L 62.441406 28.753906 C 62.453125 29.09375 62.460938 29.433594 62.460938 29.773438 L 59.140625 31.058594 " fill-opacity="1" fill-rule="nonzero"/><path fill="#bd9d94" d="M 56.867188 42.441406 C 57.035156 42.039062 57.195312 41.636719 57.347656 41.226562 L 60.566406 39.976562 C 60.410156 40.386719 60.246094 40.796875 60.066406 41.199219 L 56.867188 42.441406 " fill-opacity="1" fill-rule="nonzero"/><path fill="#bd9d94" d="M 55.863281 44.578125 C 56.082031 44.160156 56.289062 43.738281 56.484375 43.308594 L 59.328125 42.207031 C 59.375 42.1875 59.425781 42.179688 59.476562 42.179688 C 59.519531 42.179688 59.5625 42.1875 59.605469 42.195312 C 59.417969 42.589844 59.21875 42.972656 59.011719 43.359375 L 55.863281 44.578125 " fill-opacity="1" fill-rule="nonzero"/><path fill="#bd9d94" d="M 54.566406 46.832031 C 54.847656 46.390625 55.121094 45.945312 55.378906 45.488281 L 57.816406 44.542969 C 57.871094 44.519531 57.925781 44.511719 57.980469 44.511719 C 58.09375 44.511719 58.199219 44.554688 58.289062 44.625 C 58.078125 44.96875 57.863281 45.304688 57.640625 45.640625 L 54.566406 46.832031 " fill-opacity="1" fill-rule="nonzero"/><path fill="#bd9d94" d="M 52.839844 49.25 C 53.214844 48.777344 53.582031 48.296875 53.925781 47.800781 L 56.308594 46.878906 C 56.363281 46.855469 56.417969 46.847656 56.46875 46.847656 C 56.5625 46.847656 56.652344 46.878906 56.730469 46.929688 C 56.433594 47.324219 56.125 47.71875 55.808594 48.101562 L 52.839844 49.25 " fill-opacity="1" fill-rule="nonzero"/><path fill="#bd9d94" d="M 50.429688 51.9375 C 50.957031 51.414062 51.464844 50.875 51.953125 50.3125 L 54.800781 49.210938 L 54.839844 49.207031 C 54.296875 49.789062 53.726562 50.347656 53.136719 50.886719 L 50.429688 51.9375 " fill-opacity="1" fill-rule="nonzero"/><path fill="#bd9d94" d="M 46.269531 55.296875 C 47.25 54.644531 48.179688 53.941406 49.054688 53.1875 L 51.578125 52.210938 C 50.417969 53.121094 49.175781 53.949219 47.859375 54.679688 L 46.269531 55.296875 " fill-opacity="1" fill-rule="nonzero"/></g></g></g><g mask="url(#2ef6e3ff57)"><g transform="matrix(1, 0, 0, 1, 145, 241)"><g clip-path="url(#ff4462a6fb)"><g clip-path="url(#a9bf0b6caa)"><path fill="#ffffff" d="M 39 4.136719 L 33.382812 6.3125 L 67.671875 95.710938 L 73.289062 93.53125 C 97.84375 84.015625 110.074219 56.285156 100.605469 31.601562 C 91.136719 6.914062 63.554688 -5.386719 39 4.136719 " fill-opacity="1" fill-rule="nonzero"/></g><g clip-path="url(#2e4f6b6ff9)"><path fill="#bd9d94" d="M 93.039062 34.53125 C 102.507812 59.214844 90.277344 86.945312 65.722656 96.464844 C 41.167969 105.988281 13.585938 93.691406 4.113281 69.003906 C -5.355469 44.320312 6.875 16.589844 31.429688 7.070312 C 55.988281 -2.453125 83.570312 9.847656 93.039062 34.53125 " fill-opacity="1" fill-rule="nonzero"/></g><path fill="#ffffff" d="M 57.945312 68.179688 C 59.601562 67.152344 60.730469 65.761719 61.34375 64 C 61.949219 62.238281 61.914062 60.460938 61.226562 58.667969 C 60.613281 57.066406 59.609375 55.867188 58.226562 55.070312 C 56.839844 54.273438 54.960938 53.976562 52.582031 54.1875 Z M 38.136719 32.023438 C 36.914062 33.042969 36.109375 34.285156 35.71875 35.757812 C 35.324219 37.226562 35.390625 38.660156 35.925781 40.046875 C 36.410156 41.316406 37.242188 42.34375 38.421875 43.136719 C 39.597656 43.925781 41.089844 44.363281 42.894531 44.429688 Z M 52.582031 69.679688 L 46.816406 54.652344 C 41.636719 55.117188 37.445312 54.421875 34.226562 52.550781 C 31.011719 50.679688 28.65625 47.804688 27.171875 43.933594 C 25.667969 40.011719 25.636719 36.238281 27.074219 32.621094 C 28.511719 29 31.199219 26.191406 35.136719 24.199219 L 33.773438 20.648438 L 38.949219 18.644531 L 40.308594 22.195312 C 44.261719 21.183594 47.769531 21.316406 50.828125 22.585938 C 53.886719 23.867188 56.410156 26.167969 58.402344 29.523438 L 49.832031 34.203125 C 48.199219 31.589844 46.039062 30.234375 43.351562 30.125 L 48.730469 44.148438 C 55.035156 43.488281 59.695312 43.996094 62.710938 45.667969 C 65.734375 47.339844 67.980469 50.113281 69.46875 53.988281 C 71.128906 58.320312 71.226562 62.46875 69.761719 66.4375 C 68.292969 70.417969 65.367188 73.636719 60.988281 76.105469 L 63.558594 82.816406 L 58.386719 84.816406 L 55.886719 78.292969 C 51.574219 79.382812 47.640625 79.136719 44.082031 77.550781 C 40.523438 75.960938 37.484375 72.949219 34.960938 68.519531 L 43.886719 63.90625 C 45.003906 65.667969 46.347656 67.039062 47.929688 68.027344 C 49.503906 69.003906 51.058594 69.554688 52.582031 69.679688 " fill-opacity="1" fill-rule="nonzero"/><path fill="#bd9d94" d="M 55.597656 3.515625 C 54.382812 3.375 53.160156 3.273438 51.933594 3.230469 L 56.417969 1.492188 C 57.738281 1.492188 59.054688 1.539062 60.359375 1.652344 L 60.308594 1.6875 L 55.597656 3.515625 " fill-opacity="1" fill-rule="nonzero"/><path fill="#bd9d94" d="M 60.796875 4.394531 C 59.824219 4.171875 58.847656 3.992188 57.867188 3.832031 L 62.777344 1.925781 C 63.589844 2.039062 64.402344 2.175781 65.207031 2.332031 C 65.144531 2.566406 64.984375 2.769531 64.742188 2.863281 L 60.796875 4.394531 " fill-opacity="1" fill-rule="nonzero"/><path fill="#bd9d94" d="M 43.113281 3.753906 L 45.742188 2.734375 C 48.171875 2.164062 50.609375 1.785156 53.039062 1.609375 L 48.863281 3.230469 C 46.949219 3.285156 45.035156 3.457031 43.113281 3.753906 " fill-opacity="1" fill-rule="nonzero"/><path fill="#bd9d94" d="M 65.136719 5.613281 C 64.320312 5.339844 63.492188 5.097656 62.660156 4.867188 L 67.742188 2.894531 C 68.386719 3.054688 69.027344 3.226562 69.664062 3.417969 C 69.621094 3.695312 69.453125 3.9375 69.179688 4.042969 L 65.136719 5.613281 " fill-opacity="1" fill-rule="nonzero"/><path fill="#bd9d94" d="M 68.90625 7.042969 C 68.191406 6.738281 67.46875 6.453125 66.742188 6.183594 L 71.953125 4.164062 C 72.628906 4.402344 73.296875 4.652344 73.96875 4.921875 C 73.878906 5.050781 73.765625 5.164062 73.609375 5.222656 L 68.90625 7.042969 " fill-opacity="1" fill-rule="nonzero"/><path fill="#bd9d94" d="M 72.265625 8.640625 C 71.628906 8.308594 70.984375 7.992188 70.332031 7.683594 L 75.636719 5.628906 C 76.296875 5.925781 76.953125 6.238281 77.601562 6.570312 L 72.265625 8.640625 " fill-opacity="1" fill-rule="nonzero"/><path fill="#bd9d94" d="M 75.292969 10.359375 C 74.722656 10.007812 74.144531 9.660156 73.558594 9.332031 L 78.898438 7.261719 C 79.492188 7.589844 80.078125 7.929688 80.664062 8.28125 L 75.292969 10.359375 " fill-opacity="1" fill-rule="nonzero"/><path fill="#bd9d94" d="M 78.03125 12.199219 C 77.511719 11.824219 76.980469 11.460938 76.449219 11.109375 L 81.847656 9.019531 C 82.386719 9.367188 82.921875 9.726562 83.453125 10.097656 L 78.03125 12.199219 " fill-opacity="1" fill-rule="nonzero"/><path fill="#bd9d94" d="M 80.527344 14.125 C 80.054688 13.734375 79.582031 13.351562 79.09375 12.976562 L 84.515625 10.878906 C 85.007812 11.25 85.492188 11.625 85.972656 12.019531 L 80.527344 14.125 " fill-opacity="1" fill-rule="nonzero"/><path fill="#bd9d94" d="M 82.824219 16.132812 C 82.386719 15.726562 81.945312 15.332031 81.5 14.945312 L 86.960938 12.824219 C 87.410156 13.210938 87.847656 13.609375 88.285156 14.015625 L 82.824219 16.132812 " fill-opacity="1" fill-rule="nonzero"/><path fill="#bd9d94" d="M 84.902344 18.222656 C 84.507812 17.804688 84.101562 17.394531 83.695312 16.992188 L 89.167969 14.867188 C 89.585938 15.269531 89.996094 15.675781 90.394531 16.097656 L 84.902344 18.222656 " fill-opacity="1" fill-rule="nonzero"/><path fill="#bd9d94" d="M 97.828125 53.839844 C 97.859375 53.265625 97.890625 52.6875 97.898438 52.109375 L 103.390625 49.980469 C 103.375 50.558594 103.34375 51.140625 103.308594 51.714844 L 97.828125 53.839844 " fill-opacity="1" fill-rule="nonzero"/><path fill="#bd9d94" d="M 97.570312 56.835938 C 97.640625 56.246094 97.707031 55.652344 97.753906 55.0625 L 103.214844 52.945312 C 103.164062 53.539062 103.105469 54.132812 103.03125 54.722656 L 97.570312 56.835938 " fill-opacity="1" fill-rule="nonzero"/><path fill="#bd9d94" d="M 97.097656 59.917969 C 97.210938 59.3125 97.304688 58.707031 97.394531 58.097656 L 102.839844 55.988281 C 102.742188 56.601562 102.636719 57.207031 102.519531 57.8125 L 97.097656 59.917969 " fill-opacity="1" fill-rule="nonzero"/><path fill="#bd9d94" d="M 96.386719 63.089844 C 96.546875 62.464844 96.695312 61.84375 96.832031 61.214844 L 102.253906 59.113281 C 102.109375 59.742188 101.949219 60.367188 101.785156 60.996094 L 96.386719 63.089844 " fill-opacity="1" fill-rule="nonzero"/><path fill="#bd9d94" d="M 95.433594 66.355469 C 95.644531 65.71875 95.839844 65.066406 96.027344 64.421875 L 101.398438 62.339844 C 101.203125 62.992188 100.992188 63.644531 100.769531 64.285156 L 95.433594 66.355469 " fill-opacity="1" fill-rule="nonzero"/><path fill="#bd9d94" d="M 96.5625 39.847656 C 96.433594 39.328125 96.3125 38.8125 96.167969 38.296875 L 101.707031 36.152344 C 101.84375 36.667969 101.96875 37.183594 102.09375 37.703125 L 96.5625 39.847656 " fill-opacity="1" fill-rule="nonzero"/><path fill="#bd9d94" d="M 97.132812 42.523438 C 97.035156 41.992188 96.941406 41.464844 96.824219 40.9375 L 102.355469 38.796875 C 102.464844 39.320312 102.5625 39.851562 102.660156 40.378906 L 97.132812 42.523438 " fill-opacity="1" fill-rule="nonzero"/><path fill="#bd9d94" d="M 95.847656 37.230469 C 95.691406 36.722656 95.535156 36.214844 95.367188 35.714844 L 100.90625 33.5625 C 101.074219 34.066406 101.234375 34.574219 101.382812 35.078125 L 95.847656 37.230469 " fill-opacity="1" fill-rule="nonzero"/><path fill="#bd9d94" d="M 94.992188 34.664062 C 94.898438 34.402344 94.816406 34.140625 94.71875 33.882812 C 94.625 33.644531 94.519531 33.417969 94.425781 33.179688 L 99.964844 31.03125 C 100.0625 31.265625 100.164062 31.492188 100.253906 31.734375 C 100.355469 31.992188 100.441406 32.257812 100.53125 32.511719 L 94.992188 34.664062 " fill-opacity="1" fill-rule="nonzero"/><path fill="#bd9d94" d="M 94 32.148438 C 93.792969 31.660156 93.570312 31.175781 93.351562 30.699219 L 98.886719 28.554688 C 99.109375 29.035156 99.332031 29.511719 99.539062 30.003906 L 94 32.148438 " fill-opacity="1" fill-rule="nonzero"/><path fill="#bd9d94" d="M 92.871094 29.695312 C 92.632812 29.214844 92.382812 28.742188 92.132812 28.277344 L 97.664062 26.132812 C 97.917969 26.601562 98.171875 27.066406 98.410156 27.550781 L 92.871094 29.695312 " fill-opacity="1" fill-rule="nonzero"/><path fill="#bd9d94" d="M 91.601562 27.285156 C 91.332031 26.820312 91.050781 26.363281 90.769531 25.902344 L 96.296875 23.761719 C 96.582031 24.21875 96.863281 24.675781 97.132812 25.144531 L 91.601562 27.285156 " fill-opacity="1" fill-rule="nonzero"/><path fill="#bd9d94" d="M 90.171875 24.945312 C 89.878906 24.492188 89.574219 24.035156 89.261719 23.59375 L 94.785156 21.453125 C 95.09375 21.898438 95.398438 22.351562 95.695312 22.800781 L 90.171875 24.945312 " fill-opacity="1" fill-rule="nonzero"/><path fill="#bd9d94" d="M 88.589844 22.660156 C 88.265625 22.21875 87.9375 21.773438 87.601562 21.34375 L 93.105469 19.210938 C 93.449219 19.636719 93.777344 20.082031 94.105469 20.523438 L 88.589844 22.660156 " fill-opacity="1" fill-rule="nonzero"/><path fill="#bd9d94" d="M 86.851562 20.4375 C 86.492188 20.003906 86.132812 19.578125 85.761719 19.164062 L 91.25 17.03125 C 91.625 17.445312 91.996094 17.875 92.355469 18.304688 L 86.851562 20.4375 " fill-opacity="1" fill-rule="nonzero"/><path fill="#bd9d94" d="M 97.554688 45.257812 C 97.488281 44.71875 97.410156 44.179688 97.324219 43.640625 L 102.847656 41.5 C 102.929688 42.039062 103.011719 42.578125 103.078125 43.117188 L 97.554688 45.257812 " fill-opacity="1" fill-rule="nonzero"/><path fill="#bd9d94" d="M 97.820312 48.050781 C 97.785156 47.5 97.730469 46.953125 97.675781 46.402344 L 103.191406 44.265625 C 103.242188 44.816406 103.292969 45.367188 103.324219 45.917969 L 97.820312 48.050781 " fill-opacity="1" fill-rule="nonzero"/><path fill="#bd9d94" d="M 97.910156 50.910156 C 97.90625 50.351562 97.890625 49.789062 97.867188 49.226562 L 103.375 47.09375 C 103.394531 47.65625 103.402344 48.222656 103.402344 48.78125 L 97.910156 50.910156 " fill-opacity="1" fill-rule="nonzero"/><path fill="#bd9d94" d="M 94.140625 69.753906 C 94.421875 69.085938 94.6875 68.421875 94.9375 67.738281 L 100.269531 65.675781 C 100.011719 66.351562 99.734375 67.03125 99.441406 67.695312 L 94.140625 69.753906 " fill-opacity="1" fill-rule="nonzero"/><path fill="#bd9d94" d="M 92.484375 73.292969 C 92.84375 72.601562 93.183594 71.898438 93.511719 71.191406 L 98.214844 69.363281 C 98.296875 69.335938 98.378906 69.320312 98.460938 69.320312 C 98.53125 69.320312 98.605469 69.332031 98.675781 69.347656 C 98.363281 69.996094 98.035156 70.636719 97.691406 71.273438 L 92.484375 73.292969 " fill-opacity="1" fill-rule="nonzero"/><path fill="#bd9d94" d="M 90.332031 77.023438 C 90.796875 76.289062 91.25 75.550781 91.679688 74.800781 L 95.714844 73.234375 C 95.804688 73.199219 95.898438 73.183594 95.984375 73.183594 C 96.171875 73.183594 96.347656 73.25 96.492188 73.367188 C 96.148438 73.933594 95.789062 74.492188 95.421875 75.050781 L 90.332031 77.023438 " fill-opacity="1" fill-rule="nonzero"/><path fill="#bd9d94" d="M 87.472656 81.027344 C 88.09375 80.246094 88.699219 79.449219 89.269531 78.628906 L 93.21875 77.101562 C 93.308594 77.066406 93.394531 77.050781 93.484375 77.050781 C 93.636719 77.050781 93.785156 77.097656 93.917969 77.183594 C 93.421875 77.839844 92.914062 78.488281 92.386719 79.125 L 87.472656 81.027344 " fill-opacity="1" fill-rule="nonzero"/><path fill="#bd9d94" d="M 83.480469 85.476562 C 84.359375 84.609375 85.199219 83.714844 86.003906 82.789062 L 90.71875 80.960938 L 90.78125 80.953125 C 89.882812 81.917969 88.941406 82.839844 87.960938 83.734375 L 83.480469 85.476562 " fill-opacity="1" fill-rule="nonzero"/><path fill="#bd9d94" d="M 76.597656 91.035156 C 78.214844 89.960938 79.753906 88.792969 81.207031 87.542969 L 85.382812 85.929688 C 83.460938 87.433594 81.40625 88.804688 79.222656 90.019531 L 76.597656 91.035156 " fill-opacity="1" fill-rule="nonzero"/></g></g></g><g mask="url(#4bdaafbb67)"><g transform="matrix(1, 0, 0, 1, 742, 688)"><g clip-path="url(#86be39daad)"><g clip-path="url(#7f8b492c68)"><path fill="#ffffff" d="M 33.292969 2.996094 L 28.554688 4.824219 L 57.5 79.816406 L 62.242188 77.988281 C 82.96875 70.007812 93.292969 46.746094 85.300781 26.035156 C 77.308594 5.328125 54.023438 -4.988281 33.292969 2.996094 " fill-opacity="1" fill-rule="nonzero"/></g><g clip-path="url(#4b12ebb074)"><path fill="#bd9d94" d="M 78.914062 28.496094 C 86.90625 49.203125 76.582031 72.464844 55.851562 80.453125 C 35.125 88.4375 11.839844 78.125 3.847656 57.414062 C -4.148438 36.707031 6.175781 13.445312 26.90625 5.457031 C 47.636719 -2.527344 70.921875 7.789062 78.914062 28.496094 " fill-opacity="1" fill-rule="nonzero"/></g><path fill="#ffffff" d="M 49.289062 56.722656 C 50.683594 55.859375 51.640625 54.695312 52.15625 53.214844 C 52.667969 51.738281 52.636719 50.25 52.058594 48.742188 C 51.539062 47.398438 50.695312 46.390625 49.523438 45.726562 C 48.355469 45.058594 46.769531 44.808594 44.757812 44.984375 Z M 32.566406 26.394531 C 31.535156 27.246094 30.855469 28.289062 30.523438 29.523438 C 30.191406 30.757812 30.25 31.957031 30.699219 33.121094 C 31.109375 34.1875 31.8125 35.046875 32.808594 35.714844 C 33.800781 36.378906 35.0625 36.742188 36.582031 36.800781 Z M 44.757812 57.980469 L 39.894531 45.375 C 35.523438 45.765625 31.984375 45.179688 29.265625 43.613281 C 26.550781 42.039062 24.5625 39.632812 23.3125 36.382812 C 22.042969 33.09375 22.011719 29.925781 23.226562 26.890625 C 24.441406 23.855469 26.710938 21.5 30.035156 19.828125 L 28.882812 16.851562 L 33.25 15.167969 L 34.402344 18.148438 C 37.738281 17.300781 40.699219 17.410156 43.277344 18.476562 C 45.863281 19.550781 47.992188 21.480469 49.675781 24.292969 L 42.4375 28.21875 C 41.0625 26.027344 39.238281 24.890625 36.96875 24.796875 L 41.507812 36.5625 C 46.832031 36.007812 50.765625 36.433594 53.3125 37.835938 C 55.863281 39.242188 57.761719 41.566406 59.015625 44.816406 C 60.417969 48.449219 60.5 51.933594 59.261719 55.261719 C 58.023438 58.601562 55.550781 61.300781 51.859375 63.371094 L 54.027344 69 L 49.660156 70.679688 L 47.546875 65.207031 C 43.910156 66.121094 40.589844 65.914062 37.582031 64.582031 C 34.582031 63.25 32.015625 60.722656 29.886719 57.007812 L 37.421875 53.136719 C 38.363281 54.613281 39.496094 55.765625 40.832031 56.597656 C 42.164062 57.414062 43.472656 57.878906 44.757812 57.980469 " fill-opacity="1" fill-rule="nonzero"/><g clip-path="url(#86adbc2c78)"><path fill="#bd9d94" d="M 47.304688 2.476562 C 46.28125 2.359375 45.25 2.273438 44.214844 2.238281 L 47.996094 0.78125 C 49.113281 0.78125 50.226562 0.820312 51.328125 0.914062 L 51.285156 0.945312 L 47.304688 2.476562 " fill-opacity="1" fill-rule="nonzero"/></g><path fill="#bd9d94" d="M 51.695312 3.214844 C 50.875 3.027344 50.050781 2.878906 49.21875 2.742188 L 53.367188 1.144531 C 54.054688 1.238281 54.738281 1.351562 55.417969 1.484375 C 55.363281 1.679688 55.230469 1.851562 55.027344 1.929688 L 51.695312 3.214844 " fill-opacity="1" fill-rule="nonzero"/><g clip-path="url(#8634da7e45)"><path fill="#bd9d94" d="M 36.769531 2.675781 L 38.988281 1.820312 C 41.039062 1.34375 43.09375 1.027344 45.144531 0.878906 L 41.621094 2.238281 C 40.007812 2.285156 38.390625 2.429688 36.769531 2.675781 " fill-opacity="1" fill-rule="nonzero"/></g><path fill="#bd9d94" d="M 55.359375 4.234375 C 54.667969 4.007812 53.96875 3.804688 53.265625 3.613281 L 57.558594 1.957031 C 58.101562 2.09375 58.644531 2.234375 59.179688 2.394531 C 59.144531 2.625 59.003906 2.828125 58.769531 2.921875 L 55.359375 4.234375 " fill-opacity="1" fill-rule="nonzero"/><path fill="#bd9d94" d="M 58.539062 5.4375 C 57.9375 5.179688 57.328125 4.941406 56.714844 4.714844 L 61.113281 3.019531 C 61.683594 3.21875 62.246094 3.429688 62.8125 3.65625 C 62.738281 3.765625 62.644531 3.859375 62.511719 3.90625 L 58.539062 5.4375 " fill-opacity="1" fill-rule="nonzero"/><path fill="#bd9d94" d="M 61.375 6.773438 C 60.839844 6.5 60.292969 6.230469 59.746094 5.976562 L 64.222656 4.25 C 64.78125 4.5 65.332031 4.761719 65.882812 5.039062 L 61.375 6.773438 " fill-opacity="1" fill-rule="nonzero"/><path fill="#bd9d94" d="M 63.929688 8.21875 C 63.449219 7.921875 62.960938 7.632812 62.46875 7.359375 L 66.976562 5.617188 C 67.476562 5.894531 67.972656 6.179688 68.464844 6.472656 L 63.929688 8.21875 " fill-opacity="1" fill-rule="nonzero"/><path fill="#bd9d94" d="M 66.246094 9.761719 C 65.804688 9.445312 65.355469 9.144531 64.90625 8.847656 L 69.464844 7.09375 C 69.917969 7.386719 70.375 7.6875 70.820312 8 L 66.246094 9.761719 " fill-opacity="1" fill-rule="nonzero"/><path fill="#bd9d94" d="M 68.351562 11.378906 C 67.953125 11.050781 67.550781 10.726562 67.140625 10.414062 L 71.71875 8.65625 C 72.132812 8.964844 72.542969 9.28125 72.945312 9.609375 L 68.351562 11.378906 " fill-opacity="1" fill-rule="nonzero"/><path fill="#bd9d94" d="M 70.289062 13.0625 C 69.921875 12.71875 69.546875 12.390625 69.171875 12.066406 L 73.78125 10.285156 C 74.160156 10.609375 74.53125 10.945312 74.898438 11.285156 L 70.289062 13.0625 " fill-opacity="1" fill-rule="nonzero"/><path fill="#bd9d94" d="M 72.042969 14.816406 C 71.710938 14.464844 71.367188 14.117188 71.023438 13.78125 L 75.644531 12 C 75.996094 12.335938 76.34375 12.679688 76.679688 13.03125 L 72.042969 14.816406 " fill-opacity="1" fill-rule="nonzero"/><path fill="#bd9d94" d="M 82.957031 44.691406 C 82.984375 44.210938 83.007812 43.726562 83.015625 43.242188 L 87.652344 41.453125 C 87.636719 41.941406 87.609375 42.429688 87.582031 42.910156 L 82.957031 44.691406 " fill-opacity="1" fill-rule="nonzero"/><path fill="#bd9d94" d="M 82.734375 47.207031 C 82.796875 46.710938 82.851562 46.214844 82.894531 45.71875 L 87.503906 43.941406 C 87.460938 44.441406 87.410156 44.9375 87.347656 45.433594 L 82.734375 47.207031 " fill-opacity="1" fill-rule="nonzero"/><path fill="#bd9d94" d="M 82.339844 49.789062 C 82.433594 49.28125 82.515625 48.773438 82.589844 48.265625 L 87.183594 46.496094 C 87.105469 47.007812 87.015625 47.515625 86.914062 48.027344 L 82.339844 49.789062 " fill-opacity="1" fill-rule="nonzero"/><path fill="#bd9d94" d="M 81.738281 52.453125 C 81.875 51.925781 81.996094 51.40625 82.113281 50.878906 L 86.691406 49.117188 C 86.570312 49.644531 86.433594 50.167969 86.292969 50.695312 L 81.738281 52.453125 " fill-opacity="1" fill-rule="nonzero"/><path fill="#bd9d94" d="M 80.933594 55.191406 C 81.113281 54.65625 81.277344 54.109375 81.433594 53.570312 L 85.96875 51.824219 C 85.804688 52.371094 85.625 52.917969 85.4375 53.457031 L 80.933594 55.191406 " fill-opacity="1" fill-rule="nonzero"/><path fill="#bd9d94" d="M 81.886719 32.957031 C 81.777344 32.519531 81.675781 32.085938 81.554688 31.652344 L 86.230469 29.855469 C 86.347656 30.285156 86.449219 30.722656 86.558594 31.15625 L 81.886719 32.957031 " fill-opacity="1" fill-rule="nonzero"/><path fill="#bd9d94" d="M 82.367188 35.199219 C 82.285156 34.757812 82.207031 34.3125 82.109375 33.871094 L 86.777344 32.074219 C 86.871094 32.511719 86.953125 32.957031 87.03125 33.402344 L 82.367188 35.199219 " fill-opacity="1" fill-rule="nonzero"/><path fill="#bd9d94" d="M 81.285156 30.757812 C 81.152344 30.332031 81.019531 29.90625 80.878906 29.488281 L 85.554688 27.683594 C 85.695312 28.105469 85.828125 28.53125 85.953125 28.957031 L 81.285156 30.757812 " fill-opacity="1" fill-rule="nonzero"/><path fill="#bd9d94" d="M 80.5625 28.605469 C 80.480469 28.386719 80.414062 28.167969 80.332031 27.953125 C 80.253906 27.75 80.164062 27.5625 80.082031 27.359375 L 84.761719 25.558594 C 84.839844 25.757812 84.925781 25.949219 85.003906 26.152344 C 85.089844 26.363281 85.160156 26.585938 85.238281 26.800781 L 80.5625 28.605469 " fill-opacity="1" fill-rule="nonzero"/><path fill="#bd9d94" d="M 79.726562 26.496094 C 79.546875 26.085938 79.363281 25.683594 79.175781 25.28125 L 83.851562 23.480469 C 84.039062 23.882812 84.226562 24.285156 84.398438 24.695312 L 79.726562 26.496094 " fill-opacity="1" fill-rule="nonzero"/><path fill="#bd9d94" d="M 78.769531 24.441406 C 78.570312 24.035156 78.359375 23.640625 78.148438 23.25 L 82.816406 21.449219 C 83.03125 21.84375 83.246094 22.234375 83.445312 22.636719 L 78.769531 24.441406 " fill-opacity="1" fill-rule="nonzero"/><path fill="#bd9d94" d="M 77.699219 22.417969 C 77.472656 22.027344 77.234375 21.644531 76.996094 21.257812 L 81.664062 19.460938 C 81.902344 19.847656 82.140625 20.226562 82.367188 20.621094 L 77.699219 22.417969 " fill-opacity="1" fill-rule="nonzero"/><path fill="#bd9d94" d="M 76.492188 20.457031 C 76.242188 20.074219 75.988281 19.691406 75.722656 19.320312 L 80.386719 17.527344 C 80.648438 17.898438 80.902344 18.277344 81.152344 18.65625 L 76.492188 20.457031 " fill-opacity="1" fill-rule="nonzero"/><path fill="#bd9d94" d="M 75.15625 18.539062 C 74.882812 18.167969 74.609375 17.792969 74.320312 17.433594 L 78.96875 15.644531 C 79.257812 16.003906 79.535156 16.375 79.8125 16.746094 L 75.15625 18.539062 " fill-opacity="1" fill-rule="nonzero"/><path fill="#bd9d94" d="M 73.6875 16.671875 C 73.386719 16.308594 73.082031 15.949219 72.769531 15.601562 L 77.402344 13.816406 C 77.71875 14.164062 78.03125 14.523438 78.335938 14.882812 L 73.6875 16.671875 " fill-opacity="1" fill-rule="nonzero"/><path fill="#bd9d94" d="M 82.726562 37.492188 C 82.667969 37.039062 82.601562 36.589844 82.53125 36.140625 L 87.195312 34.34375 C 87.261719 34.792969 87.332031 35.246094 87.386719 35.695312 L 82.726562 37.492188 " fill-opacity="1" fill-rule="nonzero"/><path fill="#bd9d94" d="M 82.949219 39.835938 C 82.917969 39.375 82.871094 38.917969 82.828125 38.453125 L 87.480469 36.660156 C 87.527344 37.125 87.566406 37.585938 87.59375 38.046875 L 82.949219 39.835938 " fill-opacity="1" fill-rule="nonzero"/><path fill="#bd9d94" d="M 83.023438 42.234375 C 83.019531 41.765625 83.007812 41.292969 82.988281 40.820312 L 87.636719 39.03125 C 87.652344 39.503906 87.660156 39.980469 87.660156 40.449219 L 83.023438 42.234375 " fill-opacity="1" fill-rule="nonzero"/><path fill="#bd9d94" d="M 79.84375 58.042969 C 80.078125 57.480469 80.304688 56.925781 80.511719 56.355469 L 85.015625 54.621094 C 84.796875 55.191406 84.566406 55.757812 84.316406 56.316406 L 79.84375 58.042969 " fill-opacity="1" fill-rule="nonzero"/><path fill="#bd9d94" d="M 78.441406 61.011719 C 78.746094 60.433594 79.035156 59.84375 79.3125 59.25 L 83.28125 57.714844 C 83.351562 57.691406 83.417969 57.679688 83.488281 57.679688 C 83.550781 57.679688 83.613281 57.6875 83.671875 57.703125 C 83.40625 58.246094 83.128906 58.785156 82.839844 59.316406 L 78.441406 61.011719 " fill-opacity="1" fill-rule="nonzero"/><path fill="#bd9d94" d="M 76.628906 64.140625 C 77.019531 63.527344 77.402344 62.90625 77.765625 62.277344 L 81.171875 60.960938 C 81.25 60.933594 81.324219 60.917969 81.398438 60.917969 C 81.558594 60.917969 81.707031 60.976562 81.828125 61.074219 C 81.535156 61.550781 81.234375 62.019531 80.921875 62.488281 L 76.628906 64.140625 " fill-opacity="1" fill-rule="nonzero"/><path fill="#bd9d94" d="M 74.214844 67.5 C 74.738281 66.84375 75.25 66.175781 75.730469 65.488281 L 79.0625 64.207031 C 79.140625 64.175781 79.214844 64.164062 79.289062 64.164062 C 79.417969 64.164062 79.542969 64.203125 79.652344 64.273438 C 79.238281 64.824219 78.808594 65.371094 78.359375 65.90625 L 74.214844 67.5 " fill-opacity="1" fill-rule="nonzero"/><path fill="#bd9d94" d="M 70.84375 71.230469 C 71.585938 70.507812 72.292969 69.753906 72.972656 68.976562 L 76.953125 67.445312 L 77.007812 67.4375 C 76.25 68.246094 75.453125 69.023438 74.625 69.769531 L 70.84375 71.230469 " fill-opacity="1" fill-rule="nonzero"/><path fill="#bd9d94" d="M 65.03125 75.898438 C 66.398438 74.992188 67.695312 74.015625 68.921875 72.96875 L 72.449219 71.613281 C 70.828125 72.875 69.09375 74.023438 67.25 75.042969 L 65.03125 75.898438 " fill-opacity="1" fill-rule="nonzero"/></g></g></g><g mask="url(#282fed2a59)"><g transform="matrix(1, 0, 0, 1, 656, 8)"><g clip-path="url(#e4e9b313e5)"><g clip-path="url(#dcab2712fd)"><path fill="#ffffff" d="M 36.910156 3.363281 L 31.585938 5.421875 L 64.09375 90.015625 L 69.417969 87.953125 C 92.699219 78.949219 104.292969 52.710938 95.316406 29.351562 C 86.339844 5.992188 60.191406 -5.644531 36.910156 3.363281 " fill-opacity="1" fill-rule="nonzero"/></g><g clip-path="url(#88ee07039f)"><path fill="#bd9d94" d="M 88.144531 32.125 C 97.117188 55.484375 85.523438 81.722656 62.242188 90.730469 C 38.964844 99.738281 12.8125 88.105469 3.835938 64.742188 C -5.140625 41.386719 6.453125 15.148438 29.734375 6.140625 C 53.015625 -2.871094 79.167969 8.765625 88.144531 32.125 " fill-opacity="1" fill-rule="nonzero"/></g><path fill="#ffffff" d="M 54.871094 63.964844 C 56.441406 62.992188 57.511719 61.675781 58.09375 60.007812 C 58.667969 58.34375 58.632812 56.664062 57.980469 54.964844 C 57.398438 53.449219 56.449219 52.3125 55.136719 51.558594 C 53.820312 50.808594 52.039062 50.523438 49.785156 50.726562 Z M 36.089844 29.753906 C 34.933594 30.714844 34.167969 31.894531 33.796875 33.285156 C 33.425781 34.675781 33.488281 36.03125 33.992188 37.34375 C 34.457031 38.546875 35.246094 39.515625 36.363281 40.265625 C 37.476562 41.015625 38.894531 41.425781 40.601562 41.492188 Z M 49.785156 65.386719 L 44.320312 51.164062 C 39.410156 51.605469 35.4375 50.945312 32.382812 49.175781 C 29.335938 47.402344 27.101562 44.6875 25.695312 41.023438 C 24.269531 37.3125 24.238281 33.742188 25.605469 30.316406 C 26.96875 26.894531 29.515625 24.234375 33.246094 22.347656 L 31.957031 18.988281 L 36.859375 17.089844 L 38.152344 20.453125 C 41.898438 19.496094 45.222656 19.617188 48.121094 20.824219 C 51.023438 22.035156 53.417969 24.210938 55.304688 27.386719 L 47.179688 31.8125 C 45.632812 29.34375 43.582031 28.058594 41.035156 27.953125 L 46.136719 41.222656 C 52.109375 40.601562 56.53125 41.078125 59.390625 42.664062 C 62.253906 44.246094 64.386719 46.871094 65.796875 50.535156 C 67.371094 54.632812 67.460938 58.5625 66.074219 62.316406 C 64.679688 66.082031 61.90625 69.128906 57.757812 71.464844 L 60.191406 77.8125 L 55.289062 79.707031 L 52.917969 73.535156 C 48.828125 74.566406 45.101562 74.332031 41.726562 72.832031 C 38.351562 71.328125 35.472656 68.480469 33.082031 64.285156 L 41.542969 59.917969 C 42.601562 61.585938 43.875 62.886719 45.375 63.820312 C 46.871094 64.746094 48.339844 65.265625 49.785156 65.386719 " fill-opacity="1" fill-rule="nonzero"/><g clip-path="url(#7f13bc6111)"><path fill="#bd9d94" d="M 52.644531 2.777344 C 51.492188 2.644531 50.335938 2.550781 49.171875 2.507812 L 53.421875 0.863281 C 54.675781 0.863281 55.921875 0.90625 57.160156 1.015625 L 57.113281 1.046875 L 52.644531 2.777344 " fill-opacity="1" fill-rule="nonzero"/></g><path fill="#bd9d94" d="M 57.574219 3.609375 C 56.652344 3.398438 55.726562 3.230469 54.796875 3.074219 L 59.449219 1.273438 C 60.222656 1.378906 60.992188 1.507812 61.757812 1.65625 C 61.695312 1.878906 61.546875 2.070312 61.316406 2.160156 L 57.574219 3.609375 " fill-opacity="1" fill-rule="nonzero"/><g clip-path="url(#0d7ad748ca)"><path fill="#bd9d94" d="M 40.8125 3 L 43.304688 2.035156 C 45.605469 1.496094 47.917969 1.140625 50.21875 0.972656 L 46.261719 2.507812 C 44.445312 2.558594 42.628906 2.722656 40.8125 3 " fill-opacity="1" fill-rule="nonzero"/></g><path fill="#bd9d94" d="M 61.6875 4.761719 C 60.914062 4.5 60.128906 4.273438 59.339844 4.058594 L 64.160156 2.191406 C 64.769531 2.34375 65.378906 2.503906 65.980469 2.683594 C 65.941406 2.945312 65.78125 3.175781 65.519531 3.277344 L 61.6875 4.761719 " fill-opacity="1" fill-rule="nonzero"/><path fill="#bd9d94" d="M 65.261719 6.117188 C 64.585938 5.824219 63.898438 5.554688 63.210938 5.300781 L 68.152344 3.390625 C 68.789062 3.613281 69.425781 3.851562 70.058594 4.109375 C 69.976562 4.230469 69.871094 4.335938 69.722656 4.390625 L 65.261719 6.117188 " fill-opacity="1" fill-rule="nonzero"/><path fill="#bd9d94" d="M 68.445312 7.625 C 67.84375 7.3125 67.230469 7.011719 66.617188 6.722656 L 71.644531 4.777344 C 72.269531 5.058594 72.890625 5.355469 73.507812 5.667969 L 68.445312 7.625 " fill-opacity="1" fill-rule="nonzero"/><path fill="#bd9d94" d="M 71.316406 9.253906 C 70.777344 8.917969 70.230469 8.589844 69.671875 8.28125 L 74.734375 6.320312 C 75.296875 6.632812 75.855469 6.953125 76.410156 7.285156 L 71.316406 9.253906 " fill-opacity="1" fill-rule="nonzero"/><path fill="#bd9d94" d="M 73.914062 10.996094 C 73.421875 10.640625 72.917969 10.296875 72.414062 9.960938 L 77.53125 7.984375 C 78.042969 8.3125 78.550781 8.652344 79.054688 9.003906 L 73.914062 10.996094 " fill-opacity="1" fill-rule="nonzero"/><path fill="#bd9d94" d="M 76.28125 12.816406 C 75.832031 12.449219 75.382812 12.085938 74.917969 11.730469 L 80.0625 9.746094 C 80.527344 10.09375 80.984375 10.453125 81.441406 10.820312 L 76.28125 12.816406 " fill-opacity="1" fill-rule="nonzero"/><path fill="#bd9d94" d="M 78.457031 14.71875 C 78.042969 14.332031 77.625 13.957031 77.199219 13.59375 L 82.378906 11.585938 C 82.804688 11.953125 83.21875 12.328125 83.636719 12.710938 L 78.457031 14.71875 " fill-opacity="1" fill-rule="nonzero"/><path fill="#bd9d94" d="M 80.425781 16.695312 C 80.054688 16.296875 79.667969 15.910156 79.28125 15.527344 L 84.472656 13.515625 C 84.867188 13.898438 85.257812 14.285156 85.636719 14.683594 L 80.425781 16.695312 " fill-opacity="1" fill-rule="nonzero"/><path fill="#bd9d94" d="M 92.683594 50.394531 C 92.714844 49.851562 92.738281 49.304688 92.75 48.757812 L 97.957031 46.742188 C 97.941406 47.292969 97.910156 47.839844 97.875 48.386719 L 92.683594 50.394531 " fill-opacity="1" fill-rule="nonzero"/><path fill="#bd9d94" d="M 92.4375 53.234375 C 92.503906 52.671875 92.566406 52.113281 92.613281 51.554688 L 97.789062 49.550781 C 97.742188 50.109375 97.6875 50.671875 97.613281 51.230469 L 92.4375 53.234375 " fill-opacity="1" fill-rule="nonzero"/><path fill="#bd9d94" d="M 91.988281 56.144531 C 92.09375 55.574219 92.1875 55 92.269531 54.425781 L 97.433594 52.429688 C 97.34375 53.007812 97.242188 53.582031 97.128906 54.15625 L 91.988281 56.144531 " fill-opacity="1" fill-rule="nonzero"/><path fill="#bd9d94" d="M 91.316406 59.148438 C 91.46875 58.554688 91.605469 57.96875 91.738281 57.375 L 96.878906 55.382812 C 96.742188 55.980469 96.589844 56.574219 96.433594 57.167969 L 91.316406 59.148438 " fill-opacity="1" fill-rule="nonzero"/><path fill="#bd9d94" d="M 90.410156 62.238281 C 90.613281 61.632812 90.796875 61.019531 90.972656 60.410156 L 96.066406 58.4375 C 95.878906 59.054688 95.683594 59.671875 95.472656 60.28125 L 90.410156 62.238281 " fill-opacity="1" fill-rule="nonzero"/><path fill="#bd9d94" d="M 91.480469 37.15625 C 91.359375 36.664062 91.246094 36.175781 91.109375 35.6875 L 96.359375 33.65625 C 96.488281 34.144531 96.609375 34.636719 96.726562 35.128906 L 91.480469 37.15625 " fill-opacity="1" fill-rule="nonzero"/><path fill="#bd9d94" d="M 92.019531 39.6875 C 91.929688 39.1875 91.839844 38.6875 91.730469 38.1875 L 96.976562 36.164062 C 97.078125 36.65625 97.171875 37.160156 97.261719 37.660156 L 92.019531 39.6875 " fill-opacity="1" fill-rule="nonzero"/><path fill="#bd9d94" d="M 90.804688 34.679688 C 90.65625 34.195312 90.507812 33.71875 90.347656 33.242188 L 95.597656 31.210938 C 95.757812 31.6875 95.910156 32.164062 96.050781 32.644531 L 90.804688 34.679688 " fill-opacity="1" fill-rule="nonzero"/><path fill="#bd9d94" d="M 89.996094 32.25 C 89.90625 32.003906 89.828125 31.757812 89.734375 31.511719 C 89.644531 31.285156 89.546875 31.070312 89.457031 30.84375 L 94.707031 28.8125 C 94.796875 29.035156 94.898438 29.25 94.984375 29.480469 C 95.078125 29.722656 95.160156 29.972656 95.246094 30.214844 L 89.996094 32.25 " fill-opacity="1" fill-rule="nonzero"/><path fill="#bd9d94" d="M 89.054688 29.871094 C 88.855469 29.410156 88.648438 28.953125 88.4375 28.5 L 93.6875 26.46875 C 93.898438 26.921875 94.109375 27.375 94.304688 27.839844 L 89.054688 29.871094 " fill-opacity="1" fill-rule="nonzero"/><path fill="#bd9d94" d="M 87.984375 27.550781 C 87.757812 27.09375 87.519531 26.648438 87.28125 26.207031 L 92.527344 24.175781 C 92.765625 24.621094 93.007812 25.0625 93.234375 25.519531 L 87.984375 27.550781 " fill-opacity="1" fill-rule="nonzero"/><path fill="#bd9d94" d="M 86.777344 25.269531 C 86.523438 24.828125 86.257812 24.394531 85.992188 23.960938 L 91.230469 21.933594 C 91.5 22.367188 91.765625 22.796875 92.019531 23.246094 L 86.777344 25.269531 " fill-opacity="1" fill-rule="nonzero"/><path fill="#bd9d94" d="M 85.421875 23.054688 C 85.144531 22.625 84.855469 22.195312 84.5625 21.777344 L 89.796875 19.75 C 90.089844 20.171875 90.378906 20.597656 90.65625 21.027344 L 85.421875 23.054688 " fill-opacity="1" fill-rule="nonzero"/><path fill="#bd9d94" d="M 83.921875 20.894531 C 83.617188 20.476562 83.308594 20.050781 82.984375 19.644531 L 88.203125 17.628906 C 88.527344 18.03125 88.839844 18.453125 89.152344 18.871094 L 83.921875 20.894531 " fill-opacity="1" fill-rule="nonzero"/><path fill="#bd9d94" d="M 82.277344 18.789062 C 81.9375 18.378906 81.59375 17.976562 81.242188 17.582031 L 86.445312 15.566406 C 86.800781 15.957031 87.152344 16.363281 87.496094 16.773438 L 82.277344 18.789062 " fill-opacity="1" fill-rule="nonzero"/><path fill="#bd9d94" d="M 92.421875 42.273438 C 92.359375 41.765625 92.285156 41.253906 92.203125 40.746094 L 97.441406 38.71875 C 97.519531 39.230469 97.597656 39.742188 97.660156 40.246094 L 92.421875 42.273438 " fill-opacity="1" fill-rule="nonzero"/><path fill="#bd9d94" d="M 92.675781 44.917969 C 92.640625 44.398438 92.589844 43.878906 92.539062 43.355469 L 97.765625 41.335938 C 97.816406 41.855469 97.863281 42.378906 97.890625 42.898438 L 92.675781 44.917969 " fill-opacity="1" fill-rule="nonzero"/><path fill="#bd9d94" d="M 92.757812 47.621094 C 92.753906 47.09375 92.742188 46.5625 92.71875 46.027344 L 97.9375 44.011719 C 97.957031 44.542969 97.964844 45.078125 97.96875 45.609375 L 92.757812 47.621094 " fill-opacity="1" fill-rule="nonzero"/><path fill="#bd9d94" d="M 89.1875 65.453125 C 89.453125 64.820312 89.703125 64.191406 89.941406 63.546875 L 94.996094 61.59375 C 94.75 62.234375 94.488281 62.878906 94.210938 63.507812 L 89.1875 65.453125 " fill-opacity="1" fill-rule="nonzero"/><path fill="#bd9d94" d="M 87.613281 68.804688 C 87.953125 68.148438 88.28125 67.484375 88.589844 66.816406 L 93.050781 65.085938 C 93.125 65.058594 93.203125 65.046875 93.28125 65.046875 C 93.347656 65.046875 93.417969 65.054688 93.484375 65.070312 C 93.1875 65.683594 92.875 66.289062 92.554688 66.890625 L 87.613281 68.804688 " fill-opacity="1" fill-rule="nonzero"/><path fill="#bd9d94" d="M 85.578125 72.332031 C 86.015625 71.640625 86.445312 70.941406 86.851562 70.230469 L 90.679688 68.746094 C 90.765625 68.714844 90.851562 68.699219 90.9375 68.699219 C 91.113281 68.699219 91.28125 68.761719 91.417969 68.875 C 91.089844 69.410156 90.746094 69.941406 90.398438 70.464844 L 85.578125 72.332031 " fill-opacity="1" fill-rule="nonzero"/><path fill="#bd9d94" d="M 82.867188 76.121094 C 83.453125 75.378906 84.027344 74.628906 84.570312 73.851562 L 88.3125 72.40625 C 88.394531 72.371094 88.480469 72.359375 88.5625 72.359375 C 88.710938 72.359375 88.851562 72.402344 88.972656 72.484375 C 88.507812 73.105469 88.023438 73.71875 87.523438 74.324219 L 82.867188 76.121094 " fill-opacity="1" fill-rule="nonzero"/><path fill="#bd9d94" d="M 79.082031 80.328125 C 79.910156 79.511719 80.707031 78.664062 81.472656 77.789062 L 85.941406 76.058594 L 86 76.050781 C 85.152344 76.964844 84.257812 77.835938 83.328125 78.683594 L 79.082031 80.328125 " fill-opacity="1" fill-rule="nonzero"/><path fill="#bd9d94" d="M 72.554688 85.59375 C 74.085938 84.574219 75.546875 83.472656 76.921875 82.289062 L 80.882812 80.761719 C 79.0625 82.183594 77.113281 83.480469 75.042969 84.628906 L 72.554688 85.59375 " fill-opacity="1" fill-rule="nonzero"/></g></g></g></svg>